{
.appVersion = "3151";
.formatVersion = 3;
axes = (
{
name = Weight;
tag = wght;
}
);
classes = (
{
code = "uni17C9 uni17CA uni17CB uni17CC uni17CD uni17CE uni17CF uni17D0 uni17D1
k.17C9 k.17CA k.17CB k.17CC k.17CD k.17CE k.17CF k.17D0 k.17D1
k.17C9C9 k.17C9CA k.17C9CB k.17C9CC k.17C9CD k.17C9CE k.17C9CF k.17C9D0 k.17C9D1 k.17CAC9 k.17CACA k.17CACB k.17CACC k.17CACD k.17CACE k.17CACF k.17CAD0 k.17CAD1 k.17CBC9 k.17CBCA k.17CBCB k.17CBCC k.17CBCD k.17CBCE k.17CBCF k.17CBD0 k.17CBD1 k.17CCC9 k.17CCCA k.17CCCB k.17CCCC k.17CCCD k.17CCCE k.17CCCF k.17CCD0 k.17CCD1 k.17CDC9 k.17CDCA k.17CDCB k.17CDCC k.17CDCD k.17CDCE k.17CDCF k.17CDD0 k.17CDD1 k.17CEC9 k.17CECA k.17CECB k.17CECC k.17CECD k.17CECE k.17CECF k.17CED0 k.17CED1 k.17CFC9 k.17CFCA k.17CFCB k.17CFCC k.17CFCD k.17CFCE k.17CFCF k.17CFD0 k.17CFD1 k.17D0C9 k.17D0CA k.17D0CB k.17D0CC k.17D0CD k.17D0CE k.17D0CF k.17D0D0 k.17D0D1 k.17D1C9 k.17D1CA k.17D1CB k.17D1CC k.17D1CD k.17D1CE k.17D1CF k.17D1D0 k.17D1D1 
";
name = vannayutti;
},
{
code = "k.17B6 k.17B7 k.17B8 k.17B9 k.17BA k.17BB k.17BC k.17BD k.17BE k.17BF k.17C0 k.17C1 k.17C2 k.17C3 k.17C4 k.17C5
k.17BB.1.b k.17BB.1.c k.17BC.1.b k.17BC.1.c k.17BD.1.b k.17BD.1.c k.17BF.1.a k.17BF.1.b k.17BF.1.c k.17C0.1.a k.17C0.1.b k.17C0.1.c
";
name = vowels;
},
{
code = "uni17A4 uni17A5 uni17A6 uni17A7 uni17A8 uni17A9 uni17AA uni17AB uni17AC uni17AD uni17AE uni17AF uni17B0 uni17B1 uni17B2 uni17B3 
";
name = vowels.ind;
},
{
code = "uni1780 uni1781 uni1782 uni1783 uni1784 uni1785 uni1786 uni1787 uni1788 uni1789 uni178A uni178B uni178C uni178D uni178E uni178F uni1790 uni1791 uni1792 uni1793 uni1794 uni1795 uni1796 uni1797 uni1798 uni1799 uni179A uni179B uni179C uni179D uni179E uni179F uni17A0 uni17A1 uni17A2 uni17A3 uni17B3";
name = consonants;
},
{

glyphs = (
{
glyphname = .notdef;
lastChange = "2024-12-17 00:52:19 +0000";
layers = (
{
layerId = m01;
shapes = (
{
closed = 1;
nodes = (
(282,473,l),
(307,478,o),
(333,478,o),
(359,474,c),
(363,500,l),
(333,504,o),
(305,504,o),
(278,499,c)
);
},
{
closed = 1;
nodes = (
(527,399,l),
(511,422,o),
(490,441,o),
(467,458,c),
(453,436,l),
(474,421,o),
(491,404,o),
(506,384,c)
);
},
{
closed = 1;
nodes = (
(573,213,l),
(577,241,o),
(577,269,o),
(573,295,c),
(547,291,l),
(550,267,o),
(551,243,o),
(548,217,c)
);
},
{
closed = 1;
nodes = (
(475,48,l),
(498,65,o),
(517,87,o),
(533,107,c),
(511,122,l),
(498,100,o),
(481,84,o),
(461,69,c)
);
},
{
closed = 1;
nodes = (
(136,379,l),
(151,400,o),
(168,418,o),
(189,433,c),
(174,454,l),
(151,438,o),
(131,417,o),
(115,393,c)
);
},
{
closed = 1;
nodes = (
(289,-2,l),
(319,-4,o),
(346,-4,o),
(374,3,c),
(369,28,l),
(344,23,o),
(319,22,o),
(294,25,c)
);
},
{
closed = 1;
nodes = (
(123,97,l),
(138,75,o),
(160,54,o),
(184,39,c),
(197,60,l),
(175,75,o),
(157,91,o),
(142,112,c)
);
},
{
closed = 1;
nodes = (
(73,286,l),
(68,258,o),
(70,229,o),
(75,200,c),
(100,207,l),
(95,231,o),
(95,256,o),
(98,284,c)
);
}
);
width = 646;
},
{
layerId = m002;
shapes = (
{
closed = 1;
nodes = (
(282,473,l),
(307,478,o),
(333,478,o),
(359,474,c),
(363,500,l),
(333,504,o),
(305,504,o),
(278,499,c)
);
},
{
closed = 1;
nodes = (
(527,399,l),
(511,422,o),
(490,441,o),
(467,458,c),
(453,436,l),
(474,421,o),
(491,404,o),
(506,384,c)
);
},
{
closed = 1;
nodes = (
(573,213,l),
(577,241,o),
(577,269,o),
(573,295,c),
(547,291,l),
(550,267,o),
(551,243,o),
(548,217,c)
);
},
{
closed = 1;
nodes = (
(475,48,l),
(498,65,o),
(517,87,o),
(533,107,c),
(511,122,l),
(498,100,o),
(481,84,o),
(461,69,c)
);
},
{
closed = 1;
nodes = (
(136,379,l),
(151,400,o),
(168,418,o),
(189,433,c),
(174,454,l),
(151,438,o),
(131,417,o),
(115,393,c)
);
},
{
closed = 1;
nodes = (
(289,-2,l),
(319,-4,o),
(346,-4,o),
(374,3,c),
(369,28,l),
(344,23,o),
(319,22,o),
(294,25,c)
);
},
{
closed = 1;
nodes = (
(123,97,l),
(138,75,o),
(160,54,o),
(184,39,c),
(197,60,l),
(175,75,o),
(157,91,o),
(142,112,c)
);
},
{
closed = 1;
nodes = (
(73,286,l),
(68,258,o),
(70,229,o),
(75,200,c),
(100,207,l),
(95,231,o),
(95,256,o),
(98,284,c)
);
}
);
width = 646;
}
);
note = ".notdef";
},
{
glyphname = exclam;
lastChange = "2024-12-17 00:52:19 +0000";
layers = (
{
layerId = m01;
shapes = (
{
closed = 1;
nodes = (
(162,719,o),
(73,719,o),
(76,657,c),
(84,251,ls),
(85,209,o),
(153,209,o),
(154,251,cs),
(162,657,l)
);
},
{
closed = 1;
nodes = (
(152,-1,o),
(176,23,o),
(176,52,cs),
(176,81,o),
(151,105,o),
(122,105,cs),
(94,105,o),
(70,81,o),
(70,52,cs),
(70,25,o),
(91,-1,o),
(122,-1,cs)
);
}
);
width = 246;
},
{
layerId = m002;
shapes = (
{
closed = 1;
nodes = (
(183,732,o),
(75,732,o),
(76,657,cs),
(84,251,ls),
(85,196,o),
(173,196,o),
(174,251,cs),
(182,657,ls)
);
},
{
closed = 1;
nodes = (
(167,-1,o),
(196,28,o),
(196,62,cs),
(196,96,o),
(166,125,o),
(132,125,cs),
(99,125,o),
(70,96,o),
(70,62,cs),
(70,30,o),
(95,-1,o),
(132,-1,cs)
);
}
);
width = 266;
}
);
note = exclam;
unicode = 33;
},
{
glyphname = quotedbl;
lastChange = "2024-12-17 00:52:19 +0000";
layers = (
{
layerId = m01;
shapes = (
{
closed = 1;
nodes = (
(151,674,ls),
(151,726,o),
(70,727,o),
(70,674,cs),
(70,494,ls),
(70,439,o),
(151,439,o),
(151,495,cs)
);
},
{
closed = 1;
nodes = (
(311,674,ls),
(311,726,o),
(230,727,o),
(230,674,cs),
(230,494,ls),
(230,439,o),
(311,439,o),
(311,495,cs)
);
}
);
width = 381;
},
{
layerId = m002;
shapes = (
{
closed = 1;
nodes = (
(171,674,ls),
(171,739,o),
(70,740,o),
(70,674,cs),
(70,494,ls),
(70,426,o),
(171,426,o),
(171,495,cs)
);
},
{
closed = 1;
nodes = (
(331,674,ls),
(331,739,o),
(230,740,o),
(230,674,cs),
(230,494,ls),
(230,426,o),
(331,426,o),
(331,495,cs)
);
}
);
width = 401;
}
);
note = quotedbl;
unicode = 34;
},
{
glyphname = numbersign;
lastChange = "2024-12-17 00:52:19 +0000";
layers = (
{
layerId = m01;
shapes = (
{
closed = 1;
nodes = (
(264,177,l),
(383,177,l),
(371,35,ls),
(366,-20,o),
(447,-20,o),
(452,36,cs),
(464,177,l),
(550,177,ls),
(602,177,o),
(603,258,o),
(550,258,cs),
(471,258,l),
(489,453,l),
(575,453,ls),
(627,453,o),
(628,534,o),
(575,534,cs),
(496,534,l),
(508,674,ls),
(513,726,o),
(432,727,o),
(427,674,cs),
(415,534,l),
(296,534,l),
(308,674,ls),
(313,726,o),
(232,727,o),
(227,674,cs),
(215,534,l),
(136,534,ls),
(81,534,o),
(81,453,o),
(137,453,cs),
(208,453,l),
(191,258,l),
(111,258,ls),
(56,258,o),
(56,177,o),
(112,177,cs),
(183,177,l),
(171,35,ls),
(166,-20,o),
(247,-20,o),
(252,36,cs)
);
},
{
closed = 1;
nodes = (
(289,453,l),
(408,453,l),
(391,258,l),
(271,258,l)
);
}
);
width = 684;
},
{
layerId = m002;
shapes = (
{
closed = 1;
nodes = (
(283,167,l),
(382,167,l),
(371,36,ls),
(365,-32,o),
(466,-34,o),
(472,35,cs),
(483,167,l),
(560,167,ls),
(625,167,o),
(626,268,o),
(560,268,cs),
(492,268,l),
(508,443,l),
(585,443,ls),
(650,443,o),
(651,544,o),
(585,544,cs),
(517,544,l),
(528,673,ls),
(534,738,o),
(433,741,o),
(427,675,cs),
(416,544,l),
(317,544,l),
(328,673,ls),
(334,738,o),
(233,741,o),
(227,675,cs),
(216,544,l),
(146,544,ls),
(78,544,o),
(78,443,o),
(147,443,cs),
(207,443,l),
(192,268,l),
(121,268,ls),
(53,268,o),
(53,167,o),
(122,167,cs),
(182,167,l),
(171,36,ls),
(165,-32,o),
(266,-34,o),
(272,35,cs)
);
},
{
closed = 1;
nodes = (
(308,443,l),
(407,443,l),
(392,268,l),
(292,268,l)
);
}
);
width = 704;
}
);
unicode = 35;
},
{
glyphname = dollar;
lastChange = "2024-12-17 00:52:19 +0000";
layers = (
{
layerId = m01;
shapes = (
{
closed = 1;
nodes = (
(277,-123,o),
(352,-123,o),
(352,-80,cs),
(352,-2,l),
(461,8,o),
(561,72,o),
(561,186,cs),
(561,288,o),
(496,350,o),
(352,395,c),
(352,626,l),
(414,611,o),
(467,565,o),
(467,485,c),
(542,485,l),
(542,615,o),
(453,684,o),
(352,700,c),
(352,777,ls),
(352,817,o),
(277,817,o),
(277,777,cs),
(277,702,l),
(172,691,o),
(75,626,o),
(75,516,cs),
(75,425,o),
(136,380,o),
(277,337,c),
(277,79,l),
(207,92,o),
(146,135,o),
(146,211,c),
(70,211,l),
(70,84,o),
(168,15,o),
(277,0,c),
(277,-80,ls)
);
},
{
closed = 1;
nodes = (
(158,583,o),
(213,621,o),
(277,630,c),
(277,417,l),
(196,443,o),
(158,470,o),
(158,518,cs)
);
},
{
closed = 1;
nodes = (
(352,314,l),
(441,282,o),
(478,244,o),
(478,186,cs),
(478,124,o),
(420,87,o),
(352,78,c)
);
}
);
width = 631;
},
{
layerId = m002;
shapes = (
{
closed = 1;
nodes = (
(277,-110,o),
(368,-110,o),
(368,-58,cs),
(368,-1,l),
(480,11,o),
(581,78,o),
(581,196,cs),
(581,304,o),
(513,359,o),
(368,404,c),
(368,609,l),
(425,593,o),
(471,549,o),
(467,475,c),
(562,475,l),
(566,612,o),
(474,684,o),
(368,701,c),
(368,761,ls),
(368,810,o),
(277,810,o),
(277,761,cs),
(277,701,l),
(171,687,o),
(75,619,o),
(75,506,cs),
(75,411,o),
(138,372,o),
(277,329,c),
(277,99,l),
(214,114,o),
(161,157,o),
(166,231,c),
(70,231,l),
(65,95,o),
(165,20,o),
(277,2,c),
(277,-58,ls)
);
},
{
closed = 1;
nodes = (
(178,564,o),
(223,600,o),
(277,611,c),
(277,430,l),
(208,451,o),
(178,468,o),
(178,508,cs)
);
},
{
closed = 1;
nodes = (
(368,302,l),
(447,274,o),
(478,248,o),
(478,196,cs),
(478,140,o),
(428,106,o),
(368,96,c)
);
}
);
width = 651;
}
);
note = dollar;
unicode = 36;
},
{
glyphname = percent;
lastChange = "2024-12-17 00:52:19 +0000";
layers = (
{
layerId = m01;
shapes = (
{
closed = 1;
nodes = (
(275,443,o),
(270,404,o),
(260,380,cs),
(239,330,o),
(174,332,o),
(155,380,cs),
(145,404,o),
(140,443,o),
(140,496,cs),
(140,550,o),
(145,589,o),
(155,613,cs),
(174,661,o),
(239,661,o),
(260,613,cs),
(270,589,o),
(275,550,o),
(275,496,cs)
);
},
{
closed = 1;
nodes = (
(344,628,o),
(322,708,o),
(208,708,cs),
(94,708,o),
(70,629,o),
(70,501,cs),
(70,369,o),
(93,286,o),
(208,286,cs),
(324,286,o),
(344,374,o),
(344,501,cs)
);
},
{
closed = 1;
nodes = (
(518,701,l),
(272,0,l),
(351,0,l),
(596,701,l)
);
},
{
closed = 1;
nodes = (
(727,150,o),
(722,111,o),
(713,88,cs),
(693,39,o),
(628,39,o),
(607,88,cs),
(597,111,o),
(592,150,o),
(592,205,cs),
(592,259,o),
(597,298,o),
(607,322,cs),
(628,370,o),
(693,370,o),
(713,322,cs),
(722,298,o),
(727,259,o),
(727,205,cs)
);
},
{
closed = 1;
nodes = (
(797,331,o),
(776,416,o),
(659,416,cs),
(541,416,o),
(523,327,o),
(523,208,cs),
(523,85,o),
(542,-7,o),
(659,-7,cs),
(776,-7,o),
(797,84,o),
(797,208,cs)
);
}
);
width = 867;
},
{
layerId = m002;
shapes = (
{
closed = 1;
nodes = (
(275,434,o),
(270,407,o),
(261,384,cs),
(242,340,o),
(191,342,o),
(174,384,cs),
(165,407,o),
(160,434,o),
(160,486,cs),
(160,529,o),
(165,566,o),
(174,589,cs),
(191,631,o),
(242,631,o),
(261,589,cs),
(270,566,o),
(275,529,o),
(275,486,cs)
);
},
{
closed = 1;
nodes = (
(364,610,o),
(340,698,o),
(218,698,cs),
(96,698,o),
(70,611,o),
(70,491,cs),
(70,367,o),
(95,276,o),
(218,276,cs),
(343,276,o),
(364,372,o),
(364,491,cs)
);
},
{
closed = 1;
nodes = (
(531,711,l),
(278,-10,l),
(378,-10,l),
(630,711,l)
);
},
{
closed = 1;
nodes = (
(747,161,o),
(742,133,o),
(734,112,cs),
(716,69,o),
(665,69,o),
(646,112,cs),
(637,134,o),
(632,161,o),
(632,215,cs),
(632,268,o),
(637,295,o),
(646,318,cs),
(665,360,o),
(716,360,o),
(734,318,cs),
(742,296,o),
(747,268,o),
(747,215,cs)
);
},
{
closed = 1;
nodes = (
(837,333,o),
(814,426,o),
(689,426,cs),
(562,426,o),
(543,329,o),
(543,218,cs),
(543,103,o),
(563,3,o),
(689,3,cs),
(815,3,o),
(837,102,o),
(837,218,cs)
);
}
);
width = 907;
}
);
note = percent;
unicode = 37;
},
{
glyphname = ampersand;
lastChange = "2024-12-17 00:52:19 +0000";
layers = (
{
layerId = m01;
shapes = (
{
closed = 1;
nodes = (
(630,9,l),
(530,128,l),
(569,182,o),
(579,250,o),
(579,331,c),
(509,331,l),
(509,280,o),
(498,234,o),
(476,192,c),
(321,378,l),
(372,416,ls),
(443,469,o),
(468,513,o),
(468,569,cs),
(468,764,o),
(127,780,o),
(127,547,cs),
(127,502,o),
(143,463,o),
(206,387,c),
(129,332,o),
(70,264,o),
(70,196,cs),
(70,-8,o),
(340,-59,o),
(477,64,c),
(523,9,l)
);
},
{
closed = 1;
nodes = (
(337,29,o),
(140,63,o),
(152,196,cs),
(156,238,o),
(185,281,o),
(239,318,cs),
(255,329,l),
(425,125,l)
);
},
{
closed = 1;
nodes = (
(235,481,o),
(206,519,o),
(206,550,cs),
(206,680,o),
(396,665,o),
(396,569,cs),
(396,529,o),
(373,506,o),
(329,475,cs),
(273,435,l)
);
}
);
width = 700;
},
{
layerId = m002;
shapes = (
{
closed = 1;
nodes = (
(661,9,l),
(553,139,l),
(591,196,o),
(600,268,o),
(599,351,c),
(509,351,l),
(510,303,o),
(502,260,o),
(484,220,c),
(345,376,l),
(388,408,ls),
(452,456,o),
(488,490,o),
(488,549,cs),
(488,757,o),
(127,773,o),
(127,527,cs),
(127,481,o),
(143,441,o),
(202,389,c),
(127,344,o),
(70,276,o),
(70,206,cs),
(70,-4,o),
(341,-59,o),
(486,60,c),
(528,9,l)
);
},
{
closed = 1;
nodes = (
(335,51,o),
(161,84,o),
(172,205,cs),
(176,245,o),
(204,282,o),
(255,320,cs),
(263,326,l),
(422,136,l)
);
},
{
closed = 1;
nodes = (
(250,471,o),
(226,504,o),
(226,530,cs),
(226,649,o),
(396,636,o),
(396,549,cs),
(396,513,o),
(377,494,o),
(333,463,cs),
(285,429,l)
);
}
);
width = 731;
}
);
note = ampersand;
unicode = 38;
},
{
glyphname = quotesingle;
lastChange = "2024-12-17 00:52:19 +0000";
layers = (
{
layerId = m01;
shapes = (
{
closed = 1;
nodes = (
(151,674,ls),
(151,726,o),
(70,727,o),
(70,674,cs),
(70,494,ls),
(70,439,o),
(151,439,o),
(151,495,cs)
);
}
);
width = 221;
},
{
layerId = m002;
shapes = (
{
closed = 1;
nodes = (
(171,674,ls),
(171,739,o),
(70,740,o),
(70,674,cs),
(70,494,ls),
(70,426,o),
(171,426,o),
(171,495,cs)
);
}
);
width = 241;
}
);
note = quotesingle;
unicode = 39;
},
{
glyphname = parenleft;
lastChange = "2024-12-17 00:52:19 +0000";
layers = (
{
layerId = m01;
shapes = (
{
closed = 1;
nodes = (
(267,-143,o),
(293,-140,o),
(315,-115,c),
(108,109,o),
(68,425,o),
(315,683,c),
(297,705,o),
(271,708,o),
(236,683,c),
(-5,455,o),
(35,75,o),
(236,-115,c)
);
}
);
width = 335;
},
{
layerId = m002;
shapes = (
{
closed = 1;
nodes = (
(277,-157,o),
(312,-150,o),
(338,-115,c),
(127,109,o),
(86,424,o),
(338,682,c),
(317,715,o),
(282,722,o),
(240,691,c),
(-7,458,o),
(34,72,o),
(239,-122,cs)
);
}
);
width = 358;
}
);
note = parenleft;
unicode = 40;
},
{
glyphname = parenright;
lastChange = "2024-12-17 00:52:19 +0000";
layers = (
{
layerId = m01;
shapes = (
{
closed = 1;
nodes = (
(300,75,o),
(340,455,o),
(99,683,c),
(64,708,o),
(38,705,o),
(20,683,c),
(267,425,o),
(227,109,o),
(20,-115,c),
(42,-140,o),
(68,-143,o),
(99,-115,c)
);
}
);
width = 335;
},
{
layerId = m002;
shapes = (
{
closed = 1;
nodes = (
(324,72,o),
(365,458,o),
(118,691,c),
(76,722,o),
(41,715,o),
(20,682,c),
(272,424,o),
(231,109,o),
(20,-115,c),
(46,-150,o),
(81,-157,o),
(119,-122,cs)
);
}
);
width = 358;
}
);
note = parenright;
unicode = 41;
},
{
glyphname = asterisk;
lastChange = "2024-12-17 00:52:19 +0000";
layers = (
{
layerId = m01;
shapes = (
{
closed = 1;
nodes = (
(191,350,o),
(269,350,o),
(269,402,cs),
(264,490,l),
(337,440,ls),
(377,411,o),
(420,483,o),
(375,506,cs),
(297,545,l),
(375,584,ls),
(419,606,o),
(379,677,o),
(337,649,cs),
(264,600,l),
(269,688,ls),
(272,738,o),
(191,738,o),
(194,688,cs),
(199,600,l),
(127,648,ls),
(85,676,o),
(44,607,o),
(90,584,cs),
(167,545,l),
(90,506,ls),
(44,483,o),
(84,412,o),
(127,441,cs),
(199,490,l),
(194,402,ls)
);
}
);
width = 464;
},
{
layerId = m002;
shapes = (
{
closed = 1;
nodes = (
(183,338,o),
(302,338,o),
(290,402,cs),
(276,480,l),
(342,432,ls),
(394,394,o),
(450,490,o),
(391,515,cs),
(320,545,l),
(390,575,ls),
(448,600,o),
(395,695,o),
(342,657,cs),
(276,610,l),
(290,687,ls),
(301,750,o),
(184,750,o),
(195,687,cs),
(209,609,l),
(144,656,ls),
(92,694,o),
(37,601,o),
(97,575,cs),
(166,545,l),
(97,515,ls),
(37,489,o),
(90,394,o),
(144,433,cs),
(209,480,l),
(195,403,ls)
);
}
);
width = 486;
}
);
note = asterisk;
unicode = 42;
},
{
glyphname = plus;
lastChange = "2024-12-17 00:52:19 +0000";
layers = (
{
layerId = m01;
shapes = (
{
closed = 1;
nodes = (
(274,30,o),
(349,30,o),
(349,82,cs),
(349,247,l),
(515,247,ls),
(565,247,o),
(565,322,o),
(515,322,cs),
(349,322,l),
(349,488,ls),
(349,538,o),
(274,538,o),
(274,488,cs),
(274,322,l),
(109,322,ls),
(57,322,o),
(57,247,o),
(109,247,cs),
(274,247,l),
(274,82,ls)
);
}
);
width = 622;
},
{
layerId = m002;
shapes = (
{
closed = 1;
nodes = (
(274,17,o),
(369,17,o),
(369,82,cs),
(369,237,l),
(525,237,ls),
(588,237,o),
(588,332,o),
(525,332,cs),
(369,332,l),
(369,488,ls),
(369,551,o),
(274,551,o),
(274,488,cs),
(274,332,l),
(119,332,ls),
(54,332,o),
(54,237,o),
(119,237,cs),
(274,237,l),
(274,82,ls)
);
}
);
width = 642;
}
);
note = plus;
unicode = 43;
},
{
glyphname = comma;
lastChange = "2024-12-17 00:52:19 +0000";
layers = (
{
layerId = m01;
shapes = (
{
closed = 1;
nodes = (
(192,60,ls),
(207,110,o),
(126,134,o),
(114,81,cs),
(72,-94,ls),
(59,-147,o),
(125,-165,o),
(141,-110,cs)
);
}
);
width = 264;
},
{
layerId = m002;
shapes = (
{
closed = 1;
nodes = (
(212,57,ls),
(230,120,o),
(129,150,o),
(114,83,cs),
(72,-92,ls),
(56,-157,o),
(141,-180,o),
(161,-113,cs)
);
}
);
width = 284;
}
);
note = comma;
unicode = 44;
},
{
glyphname = hyphen;
lastChange = "2024-12-17 00:52:19 +0000";
layers = (
{
layerId = m01;
shapes = (
{
closed = 1;
nodes = (
(109,270,ls),
(57,270,o),
(56,195,o),
(109,195,cs),
(339,195,ls),
(394,195,o),
(394,270,o),
(338,270,cs)
);
}
);
width = 450;
},
{
layerId = m002;
shapes = (
{
closed = 1;
nodes = (
(119,280,ls),
(54,280,o),
(53,185,o),
(119,185,cs),
(349,185,ls),
(417,185,o),
(417,280,o),
(348,280,cs)
);
}
);
width = 470;
}
);
note = hyphen;
unicode = 45;
},
{
glyphname = period;
lastChange = "2024-12-17 00:52:19 +0000";
layers = (
{
layerId = m01;
shapes = (
{
closed = 1;
nodes = (
(94,106,o),
(70,82,o),
(70,53,cs),
(70,24,o),
(95,0,o),
(124,0,cs),
(152,0,o),
(176,24,o),
(176,53,cs),
(176,80,o),
(155,106,o),
(124,106,cs)
);
}
);
width = 246;
},
{
layerId = m002;
shapes = (
{
closed = 1;
nodes = (
(99,126,o),
(70,97,o),
(70,63,cs),
(70,29,o),
(100,0,o),
(134,0,cs),
(167,0,o),
(196,29,o),
(196,63,cs),
(196,95,o),
(171,126,o),
(134,126,cs)
);
}
);
width = 266;
}
);
note = period;
unicode = 46;
},
{
glyphname = slash;
lastChange = "2024-12-17 00:52:19 +0000";
layers = (
{
layerId = m01;
shapes = (
{
closed = 1;
nodes = (
(57,-182,o),
(132,-182,o),
(146,-127,cs),
(358,663,ls),
(372,716,o),
(297,715,o),
(283,663,cs),
(72,-126,ls)
);
}
);
width = 430;
},
{
layerId = m002;
shapes = (
{
closed = 1;
nodes = (
(54,-192,o),
(148,-198,o),
(166,-130,cs),
(378,660,ls),
(395,727,o),
(301,730,o),
(283,666,cs),
(72,-123,ls)
);
}
);
width = 450;
}
);
note = slash;
unicode = 47;
},
{
glyphname = zero;
lastChange = "2024-12-17 00:52:19 +0000";
layers = (
{
layerId = m01;
shapes = (
{
closed = 1;
nodes = (
(421,251,o),
(394,76,o),
(288,76,cs),
(206,76,o),
(145,136,o),
(145,353,cs),
(145,572,o),
(205,624,o),
(288,624,cs),
(396,624,o),
(421,457,o),
(421,353,cs)
);
},
{
closed = 1;
nodes = (
(496,534,o),
(448,698,o),
(288,698,cs),
(118,698,o),
(70,532,o),
(70,358,cs),
(70,181,o),
(117,3,o),
(288,3,cs),
(457,3,o),
(496,181,o),
(496,358,cs)
);
}
);
width = 566;
},
{
layerId = m002;
shapes = (
{
closed = 1;
nodes = (
(421,262,o),
(395,96,o),
(298,96,cs),
(220,96,o),
(165,150,o),
(165,353,cs),
(165,557,o),
(219,604,o),
(298,604,cs),
(397,604,o),
(421,446,o),
(421,353,cs)
);
},
{
closed = 1;
nodes = (
(516,526,o),
(466,698,o),
(298,698,cs),
(120,698,o),
(70,524,o),
(70,358,cs),
(70,189,o),
(118,3,o),
(298,3,cs),
(476,3,o),
(516,189,o),
(516,358,cs)
);
}
);
width = 586;
}
);
note = zero;
unicode = 48;
},
{
glyphname = one;
lastChange = "2024-12-17 00:52:19 +0000";
layers = (
{
layerId = m01;
shapes = (
{
closed = 1;
nodes = (
(463,0,ls),
(509,0,o),
(508,74,o),
(463,74,cs),
(338,74,l),
(338,678,ls),
(338,708,o),
(277,700,o),
(255,686,cs),
(97,585,ls),
(59,561,o),
(59,495,o),
(115,515,c),
(256,594,l),
(256,74,l),
(123,74,ls),
(78,74,o),
(77,0,o),
(123,0,cs)
);
}
);
width = 567;
},
{
layerId = m002;
shapes = (
{
closed = 1;
nodes = (
(472,0,ls),
(531,0,o),
(530,94,o),
(472,94,cs),
(357,94,l),
(357,678,ls),
(357,720,o),
(285,711,o),
(259,694,cs),
(101,593,ls),
(53,562,o),
(60,481,o),
(128,506,c),
(255,577,l),
(255,94,l),
(132,94,ls),
(74,94,o),
(73,0,o),
(132,0,cs)
);
}
);
width = 586;
}
);
note = one;
unicode = 49;
},
{
glyphname = two;
lastChange = "2024-12-17 00:52:19 +0000";
layers = (
{
layerId = m01;
shapes = (
{
closed = 1;
nodes = (
(518,0,o),
(517,77,o),
(459,77,cs),
(182,77,l),
(291,191,ls),
(383,288,o),
(477,377,o),
(469,512,cs),
(454,768,o),
(176,713,o),
(97,634,cs),
(78,615,o),
(82,534,o),
(101,553,cs),
(206,662,o),
(413,644,o),
(393,487,cs),
(385,425,o),
(352,372,o),
(226,239,cs),
(92,97,ls),
(65,68,o),
(57,0,o),
(101,0,cs),
(459,0,ls)
);
}
);
width = 573;
},
{
layerId = m002;
shapes = (
{
closed = 1;
nodes = (
(541,0,o),
(540,97,o),
(469,97,cs),
(215,97,l),
(308,194,ls),
(400,291,o),
(497,373,o),
(489,513,cs),
(473,780,o),
(183,724,o),
(100,641,cs),
(71,612,o),
(85,513,o),
(118,546,cs),
(220,652,o),
(412,635,o),
(393,488,cs),
(385,428,o),
(354,388,o),
(229,256,cs),
(95,114,ls),
(62,79,o),
(56,0,o),
(111,0,cs),
(469,0,ls)
);
}
);
width = 593;
}
);
note = two;
unicode = 50;
},
{
glyphname = three;
lastChange = "2024-12-17 00:52:19 +0000";
layers = (
{
layerId = m01;
shapes = (
{
closed = 1;
nodes = (
(191,-44,o),
(499,-33,o),
(499,196,cs),
(499,289,o),
(425,358,o),
(338,363,c),
(338,364,l),
(420,380,o),
(467,447,o),
(467,532,cs),
(467,754,o),
(183,737,o),
(101,645,cs),
(84,626,o),
(89,556,o),
(100,568,cs),
(184,656,o),
(390,666,o),
(390,520,cs),
(390,441,o),
(312,392,o),
(219,392,cs),
(160,392,ls),
(130,392,o),
(131,319,o),
(161,319,cs),
(225,319,ls),
(334,319,o),
(413,269,o),
(417,192,cs),
(425,39,o),
(169,38,o),
(83,122,cs),
(65,140,o),
(65,54,o),
(83,41,cs)
);
}
);
width = 569;
},
{
layerId = m002;
shapes = (
{
closed = 1;
nodes = (
(192,-44,o),
(520,-33,o),
(520,196,cs),
(520,289,o),
(446,358,o),
(359,363,c),
(359,364,l),
(441,380,o),
(488,447,o),
(488,532,cs),
(488,754,o),
(184,737,o),
(102,645,cs),
(85,626,o),
(89,548,o),
(101,558,cs),
(185,626,o),
(391,646,o),
(391,520,cs),
(391,441,o),
(313,402,o),
(220,402,cs),
(161,402,ls),
(131,402,o),
(132,309,o),
(162,309,cs),
(226,309,ls),
(335,309,o),
(413,269,o),
(418,192,cs),
(426,59,o),
(170,68,o),
(84,132,cs),
(64,147,o),
(66,54,o),
(84,41,cs)
);
}
);
width = 590;
}
);
note = three;
unicode = 51;
},
{
glyphname = four;
lastChange = "2024-12-17 00:52:19 +0000";
layers = (
{
layerId = m01;
shapes = (
{
closed = 1;
nodes = (
(386,-13,o),
(466,-13,o),
(466,40,cs),
(466,170,l),
(563,170,ls),
(615,170,o),
(615,245,o),
(563,245,cs),
(466,245,l),
(466,664,ls),
(466,712,o),
(346,711,o),
(336,666,c),
(92,274,l),
(65,238,o),
(58,170,o),
(100,170,cs),
(386,170,l),
(386,40,ls)
);
},
{
closed = 1;
nodes = (
(385,604,l),
(386,604,l),
(386,245,l),
(161,245,l)
);
}
);
width = 672;
},
{
layerId = m002;
shapes = (
{
closed = 1;
nodes = (
(416,-13,o),
(516,-13,o),
(516,40,cs),
(516,160,l),
(613,160,ls),
(665,160,o),
(665,255,o),
(613,255,cs),
(516,255,l),
(516,664,ls),
(516,712,o),
(356,711,o),
(346,666,c),
(92,274,l),
(65,238,o),
(58,160,o),
(100,160,cs),
(416,160,l),
(416,40,ls)
);
},
{
closed = 1;
nodes = (
(415,604,l),
(416,604,l),
(416,255,l),
(191,255,l)
);
}
);
width = 722;
}
);
note = four;
unicode = 52;
},
{
glyphname = five;
lastChange = "2024-12-17 00:52:19 +0000";
layers = (
{
layerId = m01;
shapes = (
{
closed = 1;
nodes = (
(558,0,o),
(598,428,o),
(264,428,cs),
(234,428,o),
(212,428,o),
(189,425,c),
(189,621,l),
(410,621,ls),
(458,621,o),
(458,700,o),
(410,700,cs),
(109,700,l),
(109,383,ls),
(109,356,o),
(118,349,o),
(137,349,cs),
(162,349,o),
(200,356,o),
(239,356,cs),
(495,356,o),
(460,75,o),
(240,75,cs),
(146,75,o),
(106,115,o),
(86,115,cs),
(66,115,o),
(65,50,o),
(83,35,cs),
(102,18,o),
(174,0,o),
(242,0,cs)
);
}
);
width = 567;
},
{
layerId = m002;
shapes = (
{
closed = 1;
nodes = (
(558,0,o),
(598,428,o),
(264,428,cs),
(234,428,o),
(222,428,o),
(199,425,c),
(199,611,l),
(410,611,ls),
(468,611,o),
(468,700,o),
(410,700,cs),
(109,700,l),
(109,373,ls),
(109,346,o),
(118,339,o),
(137,339,cs),
(162,339,o),
(200,346,o),
(239,346,cs),
(485,346,o),
(450,85,o),
(240,85,cs),
(146,85,o),
(106,125,o),
(86,125,cs),
(66,125,o),
(65,50,o),
(83,35,cs),
(102,18,o),
(174,0,o),
(242,0,cs)
);
}
);
width = 567;
}
);
note = five;
unicode = 53;
},
{
glyphname = six;
lastChange = "2024-12-17 00:52:19 +0000";
layers = (
{
layerId = m01;
shapes = (
{
closed = 1;
nodes = (
(70,158,o),
(132,0,o),
(321,1,cs),
(434,2,o),
(542,100,o),
(538,235,cs),
(531,461,o),
(239,477,o),
(142,351,c),
(141,410,o),
(151,469,o),
(171,517,cs),
(236,671,o),
(424,640,o),
(452,552,cs),
(469,498,o),
(542,513,o),
(510,596,cs),
(461,725,o),
(182,776,o),
(98,526,cs),
(79,470,o),
(70,403,o),
(70,329,cs)
);
},
{
closed = 1;
nodes = (
(205,387,o),
(454,395,o),
(464,235,cs),
(469,137,o),
(392,77,o),
(313,74,cs),
(194,70,o),
(146,174,o),
(146,285,c)
);
}
);
width = 608;
},
{
layerId = m002;
shapes = (
{
closed = 1;
nodes = (
(70,155,o),
(134,-10,o),
(331,-9,cs),
(450,-8,o),
(562,95,o),
(558,235,cs),
(551,459,o),
(278,487,o),
(162,377,c),
(164,426,o),
(174,473,o),
(190,513,cs),
(252,660,o),
(426,631,o),
(452,549,cs),
(473,483,o),
(567,503,o),
(529,600,cs),
(477,737,o),
(186,789,o),
(99,529,cs),
(79,472,o),
(70,404,o),
(70,329,cs)
);
},
{
closed = 1;
nodes = (
(225,377,o),
(455,384,o),
(464,234,cs),
(469,142,o),
(398,87,o),
(323,84,cs),
(211,80,o),
(167,175,o),
(166,282,c)
);
}
);
width = 628;
}
);
note = six;
unicode = 54;
},
{
glyphname = seven;
lastChange = "2024-12-17 00:52:19 +0000";
layers = (
{
layerId = m01;
shapes = (
{
closed = 1;
nodes = (
(533,691,o),
(526,700,o),
(505,700,cs),
(106,700,ls),
(60,700,o),
(57,625,o),
(106,625,cs),
(452,625,l),
(193,36,ls),
(171,-13,o),
(260,-11,o),
(275,29,c),
(521,600,ls),
(529,618,o),
(533,633,o),
(533,660,cs)
);
}
);
width = 603;
},
{
layerId = m002;
shapes = (
{
closed = 1;
nodes = (
(578,691,o),
(571,700,o),
(550,700,cs),
(121,700,ls),
(55,700,o),
(52,606,o),
(121,606,cs),
(469,606,l),
(210,36,ls),
(188,-13,o),
(305,-11,o),
(320,29,c),
(566,600,ls),
(574,618,o),
(578,633,o),
(578,660,cs)
);
}
);
width = 648;
}
);
note = seven;
unicode = 55;
},
{
glyphname = eight;
lastChange = "2024-12-17 00:52:19 +0000";
layers = (
{
layerId = m01;
shapes = (
{
closed = 1;
nodes = (
(545,0,o),
(569,289,o),
(392,369,c),
(565,454,o),
(502,708,o),
(288,708,cs),
(71,708,o),
(14,454,o),
(182,370,c),
(7,288,o),
(32,0,o),
(288,0,cs)
);
},
{
closed = 1;
nodes = (
(94,72,o),
(101,333,o),
(287,333,cs),
(473,333,o),
(484,72,o),
(288,72,cs)
);
},
{
closed = 1;
nodes = (
(124,406,o),
(112,635,o),
(288,635,cs),
(464,635,o),
(451,406,o),
(288,406,cs)
);
}
);
width = 576;
},
{
layerId = m002;
shapes = (
{
closed = 1;
nodes = (
(558,0,o),
(590,275,o),
(423,369,c),
(584,467,o),
(515,698,o),
(298,698,cs),
(78,698,o),
(14,467,o),
(171,370,c),
(6,274,o),
(39,0,o),
(298,0,cs)
);
},
{
closed = 1;
nodes = (
(114,92,o),
(121,323,o),
(297,323,cs),
(473,323,o),
(484,92,o),
(298,92,cs)
);
},
{
closed = 1;
nodes = (
(143,416,o),
(133,605,o),
(298,605,cs),
(463,605,o),
(452,416,o),
(298,416,cs)
);
}
);
width = 596;
}
);
note = eight;
unicode = 56;
},
{
glyphname = nine;
lastChange = "2024-12-17 00:52:19 +0000";
layers = (
{
layerId = m01;
shapes = (
{
closed = 1;
nodes = (
(538,545,o),
(476,703,o),
(287,702,cs),
(174,701,o),
(66,603,o),
(70,468,cs),
(77,242,o),
(369,226,o),
(466,352,c),
(467,293,o),
(457,234,o),
(437,186,cs),
(372,32,o),
(207,49,o),
(146,161,cs),
(116,215,o),
(45,186,o),
(91,107,cs),
(164,-19,o),
(426,-73,o),
(510,177,cs),
(529,233,o),
(538,300,o),
(538,374,cs)
);
},
{
closed = 1;
nodes = (
(403,316,o),
(154,308,o),
(144,468,cs),
(139,566,o),
(216,626,o),
(295,629,cs),
(414,633,o),
(462,529,o),
(462,418,c)
);
}
);
width = 608;
},
{
layerId = m002;
shapes = (
{
closed = 1;
nodes = (
(558,548,o),
(494,713,o),
(297,712,cs),
(178,711,o),
(66,608,o),
(70,468,cs),
(77,244,o),
(350,216,o),
(466,326,c),
(464,277,o),
(454,230,o),
(438,190,cs),
(376,43,o),
(223,58,o),
(165,166,cs),
(129,231,o),
(39,193,o),
(92,102,cs),
(169,-31,o),
(442,-85,o),
(529,174,cs),
(549,231,o),
(558,299,o),
(558,374,cs)
);
},
{
closed = 1;
nodes = (
(403,326,o),
(173,319,o),
(164,469,cs),
(159,561,o),
(230,616,o),
(305,619,cs),
(417,623,o),
(461,528,o),
(462,421,c)
);
}
);
width = 628;
}
);
note = nine;
unicode = 57;
},
{
glyphname = colon;
lastChange = "2024-12-17 00:52:19 +0000";
layers = (
{
layerId = m01;
shapes = (
{
closed = 1;
nodes = (
(94,106,o),
(70,82,o),
(70,53,cs),
(70,24,o),
(95,0,o),
(124,0,cs),
(152,0,o),
(176,24,o),
(176,53,cs),
(176,80,o),
(155,106,o),
(124,106,cs)
);
},
{
closed = 1;
nodes = (
(94,456,o),
(70,432,o),
(70,403,cs),
(70,374,o),
(95,350,o),
(124,350,cs),
(152,350,o),
(176,374,o),
(176,403,cs),
(176,430,o),
(155,456,o),
(124,456,cs)
);
}
);
width = 246;
},
{
layerId = m002;
shapes = (
{
closed = 1;
nodes = (
(99,126,o),
(70,97,o),
(70,63,cs),
(70,29,o),
(100,0,o),
(134,0,cs),
(167,0,o),
(196,29,o),
(196,63,cs),
(196,95,o),
(171,126,o),
(134,126,cs)
);
},
{
closed = 1;
nodes = (
(99,476,o),
(70,447,o),
(70,413,cs),
(70,379,o),
(100,350,o),
(134,350,cs),
(167,350,o),
(196,379,o),
(196,413,cs),
(196,445,o),
(171,476,o),
(134,476,cs)
);
}
);
width = 266;
}
);
note = colon;
unicode = 58;
},
{
glyphname = semicolon;
lastChange = "2024-12-17 00:52:19 +0000";
layers = (
{
layerId = m01;
shapes = (
{
closed = 1;
nodes = (
(133,456,o),
(109,432,o),
(109,403,cs),
(109,374,o),
(134,350,o),
(163,350,cs),
(191,350,o),
(215,374,o),
(215,403,cs),
(215,430,o),
(194,456,o),
(163,456,cs)
);
},
{
closed = 1;
nodes = (
(192,60,ls),
(207,110,o),
(126,134,o),
(114,81,cs),
(72,-94,ls),
(59,-147,o),
(125,-165,o),
(141,-110,cs)
);
}
);
width = 285;
},
{
layerId = m002;
shapes = (
{
closed = 1;
nodes = (
(138,466,o),
(109,437,o),
(109,403,cs),
(109,369,o),
(139,340,o),
(173,340,cs),
(206,340,o),
(235,369,o),
(235,403,cs),
(235,435,o),
(210,466,o),
(173,466,cs)
);
},
{
closed = 1;
nodes = (
(212,57,ls),
(230,120,o),
(129,150,o),
(114,83,cs),
(72,-92,ls),
(56,-157,o),
(141,-180,o),
(161,-113,cs)
);
}
);
width = 305;
}
);
note = semicolon;
unicode = 59;
},
{
glyphname = less;
lastChange = "2024-12-17 00:52:19 +0000";
layers = (
{
layerId = m01;
shapes = (
{
closed = 1;
nodes = (
(596,414,o),
(564,495,o),
(521,478,cs),
(109,313,ls),
(54,291,o),
(60,220,o),
(109,200,c),
(521,28,ls),
(559,12,o),
(597,86,o),
(528,113,cs),
(160,255,l),
(531,397,l)
);
}
);
width = 638;
},
{
layerId = m002;
shapes = (
{
closed = 1;
nodes = (
(622,408,o),
(583,509,o),
(527,487,cs),
(115,322,ls),
(51,297,o),
(59,214,o),
(115,191,cs),
(527,19,ls),
(577,-2,o),
(623,90,o),
(542,122,cs),
(198,255,l),
(544,387,l)
);
}
);
width = 658;
}
);
note = less;
unicode = 60;
},
{
glyphname = equal;
lastChange = "2024-12-17 00:52:19 +0000";
layers = (
{
layerId = m01;
shapes = (
{
closed = 1;
nodes = (
(109,420,ls),
(57,420,o),
(56,345,o),
(109,345,cs),
(469,345,ls),
(524,345,o),
(524,420,o),
(468,420,cs)
);
},
{
closed = 1;
nodes = (
(109,230,ls),
(57,230,o),
(56,155,o),
(109,155,cs),
(469,155,ls),
(524,155,o),
(524,230,o),
(468,230,cs)
);
}
);
width = 580;
},
{
layerId = m002;
shapes = (
{
closed = 1;
nodes = (
(119,430,ls),
(54,430,o),
(53,335,o),
(119,335,cs),
(479,335,ls),
(547,335,o),
(547,430,o),
(478,430,cs)
);
},
{
closed = 1;
nodes = (
(119,240,ls),
(54,240,o),
(53,145,o),
(119,145,cs),
(479,145,ls),
(547,145,o),
(547,240,o),
(478,240,cs)
);
}
);
width = 600;
}
);
note = equal;
unicode = 61;
},
{
glyphname = greater;
lastChange = "2024-12-17 00:52:19 +0000";
layers = (
{
layerId = m01;
shapes = (
{
closed = 1;
nodes = (
(478,255,l),
(110,113,ls),
(41,86,o),
(79,12,o),
(117,28,cs),
(529,200,l),
(578,220,o),
(584,291,o),
(529,313,cs),
(117,478,ls),
(74,495,o),
(42,414,o),
(107,397,c)
);
}
);
width = 638;
},
{
layerId = m002;
shapes = (
{
closed = 1;
nodes = (
(460,255,l),
(116,122,ls),
(35,90,o),
(81,-2,o),
(131,19,cs),
(543,191,ls),
(599,214,o),
(607,297,o),
(543,322,cs),
(131,487,ls),
(75,509,o),
(36,408,o),
(114,387,c)
);
}
);
width = 658;
}
);
note = greater;
unicode = 62;
},
{
glyphname = question;
lastChange = "2024-12-17 00:52:19 +0000";
layers = (
{
layerId = m01;
shapes = (
{
closed = 1;
nodes = (
(250,282,o),
(265,319,o),
(282,338,c),
(351,384,ls),
(498,482,o),
(431,698,o),
(248,698,cs),
(143,698,o),
(70,636,o),
(70,543,cs),
(70,526,ls),
(70,470,o),
(150,470,o),
(150,526,cs),
(150,542,ls),
(150,595,o),
(189,629,o),
(248,629,cs),
(351,629,o),
(377,496,o),
(305,443,cs),
(226,384,ls),
(182,351,o),
(168,303,o),
(171,249,cs),
(174,191,o),
(252,191,o),
(251,246,cs)
);
},
{
closed = 1;
nodes = (
(250,19,o),
(274,43,o),
(274,72,cs),
(274,101,o),
(249,125,o),
(220,125,cs),
(192,125,o),
(168,101,o),
(168,72,cs),
(168,45,o),
(189,19,o),
(220,19,cs)
);
}
);
width = 491;
},
{
layerId = m002;
shapes = (
{
closed = 1;
nodes = (
(270,280,o),
(283,312,o),
(299,330,c),
(367,376,ls),
(522,479,o),
(451,708,o),
(258,708,cs),
(148,708,o),
(70,642,o),
(70,543,cs),
(70,526,ls),
(70,457,o),
(170,457,o),
(170,526,cs),
(170,542,ls),
(170,590,o),
(203,619,o),
(258,619,cs),
(353,619,o),
(376,500,o),
(309,451,cs),
(230,392,ls),
(183,357,o),
(168,305,o),
(171,248,cs),
(175,178,o),
(272,178,o),
(271,246,cs)
);
},
{
closed = 1;
nodes = (
(265,9,o),
(294,38,o),
(294,72,cs),
(294,106,o),
(264,135,o),
(230,135,cs),
(197,135,o),
(168,106,o),
(168,72,cs),
(168,40,o),
(193,9,o),
(230,9,cs)
);
}
);
width = 522;
}
);
note = question;
unicode = 63;
},
{
glyphname = at;
lastChange = "2024-12-17 00:52:19 +0000";
layers = (
{
layerId = m01;
shapes = (
{
closed = 1;
nodes = (
(458,251,o),
(437,215,o),
(380,215,cs),
(271,215,o),
(263,479,o),
(421,479,cs),
(436,479,o),
(450,477,o),
(458,474,c),
(458,282,l)
);
},
{
closed = 1;
nodes = (
(717,848,o),
(70,852,o),
(70,346,cs),
(70,-59,o),
(421,-53,o),
(548,5,c),
(548,76,l),
(377,27,o),
(141,34,o),
(141,346,cs),
(141,767,o),
(644,747,o),
(644,402,cs),
(644,281,o),
(630,182,o),
(573,182,cs),
(549,182,o),
(536,202,o),
(536,222,cs),
(536,531,l),
(505,539,o),
(465,546,o),
(434,546,cs),
(160,546,o),
(180,145,o),
(359,145,cs),
(415,145,o),
(458,164,o),
(477,192,c),
(488,132,o),
(538,117,o),
(572,117,cs),
(699,117,o),
(717,246,o),
(717,402,cs)
);
}
);
width = 787;
},
{
layerId = m002;
shapes = (
{
closed = 1;
nodes = (
(458,254,o),
(441,225,o),
(390,225,cs),
(291,225,o),
(283,469,o),
(431,469,cs),
(442,469,o),
(451,468,o),
(458,466,c),
(458,282,ls)
);
},
{
closed = 1;
nodes = (
(737,821,o),
(70,835,o),
(70,356,cs),
(70,-66,o),
(444,-53,o),
(568,9,c),
(568,99,l),
(397,47,o),
(161,46,o),
(161,356,cs),
(161,727,o),
(644,697,o),
(644,402,cs),
(644,282,o),
(631,192,o),
(583,192,cs),
(564,192,o),
(556,205,o),
(556,222,cs),
(556,539,l),
(524,548,o),
(478,556,o),
(444,556,cs),
(157,556,o),
(177,135,o),
(369,135,cs),
(418,135,o),
(458,149,o),
(482,171,c),
(501,120,o),
(549,107,o),
(582,107,cs),
(718,107,o),
(737,245,o),
(737,402,cs)
);
}
);
width = 807;
}
);
note = at;
unicode = 64;
},
{
glyphname = bracketleft;
lastChange = "2024-12-17 00:52:19 +0000";
layers = (
{
layerId = m01;
shapes = (
{
closed = 1;
nodes = (
(251,-138,ls),
(306,-138,o),
(306,-65,o),
(251,-65,cs),
(149,-65,l),
(149,627,l),
(251,627,ls),
(306,627,o),
(306,700,o),
(251,700,cs),
(90,700,ls),
(79,700,o),
(70,691,o),
(70,680,cs),
(70,-118,ls),
(70,-129,o),
(79,-138,o),
(90,-138,cs)
);
}
);
width = 292;
},
{
layerId = m002;
shapes = (
{
closed = 1;
nodes = (
(281,-148,ls),
(349,-148,o),
(349,-55,o),
(281,-55,cs),
(169,-55,l),
(169,607,l),
(281,607,ls),
(349,607,o),
(349,700,o),
(281,700,cs),
(101,700,ls),
(84,700,o),
(70,686,o),
(70,669,cs),
(70,-117,ls),
(70,-134,o),
(84,-148,o),
(101,-148,cs)
);
}
);
width = 332;
}
);
note = bracketleft;
unicode = 91;
},
{
glyphname = backslash;
lastChange = "2024-12-17 00:52:19 +0000";
layers = (
{
layerId = m01;
shapes = (
{
closed = 1;
nodes = (
(147,663,ls),
(133,715,o),
(58,716,o),
(72,663,cs),
(284,-127,ls),
(298,-182,o),
(373,-182,o),
(358,-126,cs)
);
}
);
width = 430;
},
{
layerId = m002;
shapes = (
{
closed = 1;
nodes = (
(167,666,ls),
(149,730,o),
(55,727,o),
(72,660,cs),
(284,-130,ls),
(302,-198,o),
(396,-192,o),
(378,-123,cs)
);
}
);
width = 450;
}
);
note = backslash;
unicode = 92;
},
{
glyphname = bracketright;
lastChange = "2024-12-17 00:52:19 +0000";
layers = (
{
layerId = m01;
shapes = (
{
closed = 1;
nodes = (
(202,-138,ls),
(213,-138,o),
(222,-129,o),
(222,-118,cs),
(222,680,ls),
(222,691,o),
(213,700,o),
(202,700,cs),
(41,700,ls),
(-14,700,o),
(-14,627,o),
(41,627,cs),
(143,627,l),
(143,-65,l),
(41,-65,ls),
(-14,-65,o),
(-14,-138,o),
(41,-138,cs)
);
}
);
width = 292;
},
{
layerId = m002;
shapes = (
{
closed = 1;
nodes = (
(231,-148,ls),
(248,-148,o),
(262,-134,o),
(262,-117,cs),
(262,669,ls),
(262,686,o),
(248,700,o),
(231,700,cs),
(51,700,ls),
(-17,700,o),
(-17,607,o),
(51,607,cs),
(163,607,l),
(163,-55,l),
(51,-55,ls),
(-17,-55,o),
(-17,-148,o),
(51,-148,cs)
);
}
);
width = 332;
}
);
note = bracketright;
unicode = 93;
},
{
glyphname = asciicircum;
lastChange = "2024-12-17 00:52:19 +0000";
layers = (
{
layerId = m01;
shapes = (
{
closed = 1;
nodes = (
(389,385,o),
(485,381,o),
(463,420,cs),
(328,662,ls),
(309,696,o),
(235,691,o),
(215,662,c),
(73,420,ls),
(53,385,o),
(151,382,o),
(168,413,cs),
(270,601,l),
(372,410,l)
);
}
);
width = 536;
},
{
layerId = m002;
shapes = (
{
closed = 1;
nodes = (
(396,372,o),
(516,366,o),
(483,425,cs),
(348,667,ls),
(325,708,o),
(242,702,o),
(218,667,c),
(75,425,ls),
(45,372,o),
(166,368,o),
(188,408,cs),
(281,580,l),
(374,405,l)
);
}
);
width = 559;
}
);
note = asciicircum;
unicode = 94;
},
{
glyphname = underscore;
lastChange = "2024-12-17 00:52:19 +0000";
layers = (
{
layerId = m01;
shapes = (
{
closed = 1;
nodes = (
(109,-80,ls),
(57,-80,o),
(56,-155,o),
(109,-155,cs),
(469,-155,ls),
(524,-155,o),
(524,-80,o),
(468,-80,cs)
);
}
);
width = 580;
},
{
layerId = m002;
shapes = (
{
closed = 1;
nodes = (
(119,-70,ls),
(54,-70,o),
(53,-165,o),
(119,-165,cs),
(479,-165,ls),
(547,-165,o),
(547,-70,o),
(478,-70,cs)
);
}
);
width = 600;
}
);
note = underscore;
unicode = 95;
},
{
glyphname = grave;
lastChange = "2024-12-17 00:52:19 +0000";
layers = (
{
layerId = m01;
shapes = (
{
closed = 1;
nodes = (
(140,788,ls),
(106,828,o),
(43,766,o),
(83,731,cs),
(189,639,ls),
(230,603,o),
(268,640,o),
(232,683,cs)
);
}
);
width = 316;
},
{
layerId = m002;
shapes = (
{
closed = 1;
nodes = (
(158,795,ls),
(114,845,o),
(36,768,o),
(86,723,cs),
(192,631,ls),
(242,588,o),
(294,636,o),
(250,690,cs)
);
}
);
width = 337;
}
);
note = grave;
unicode = 96;
},
{
glyphname = braceleft;
lastChange = "2024-12-17 00:52:19 +0000";
layers = (
{
layerId = m01;
shapes = (
{
closed = 1;
nodes = (
(295,-49,o),
(260,-5,o),
(260,83,cs),
(260,152,ls),
(260,225,o),
(233,276,o),
(180,305,c),
(233,334,o),
(260,364,o),
(260,437,cs),
(260,504,ls),
(260,594,o),
(293,640,o),
(360,661,c),
(342,717,l),
(227,684,o),
(171,623,o),
(171,506,cs),
(171,436,ls),
(171,359,o),
(137,340,o),
(70,340,c),
(70,271,l),
(137,271,o),
(171,232,o),
(171,154,cs),
(171,89,ls),
(171,-32,o),
(229,-94,o),
(342,-126,c),
(360,-70,l)
);
}
);
width = 360;
},
{
layerId = m002;
shapes = (
{
closed = 1;
nodes = (
(314,-64,o),
(280,-26,o),
(280,63,cs),
(280,132,ls),
(280,201,o),
(256,253,o),
(210,285,c),
(255,313,o),
(280,347,o),
(280,417,cs),
(280,484,ls),
(280,575,o),
(312,615,o),
(383,634,c),
(359,709,l),
(234,676,o),
(171,611,o),
(171,486,cs),
(171,416,ls),
(171,341,o),
(142,329,o),
(70,330,c),
(70,241,l),
(139,244,o),
(171,212,o),
(171,134,cs),
(171,69,ls),
(171,-60,o),
(236,-126,o),
(359,-158,c),
(383,-83,l)
);
}
);
width = 383;
}
);
note = braceleft;
unicode = 123;
},
{
glyphname = bar;
lastChange = "2024-12-17 00:52:19 +0000";
layers = (
{
layerId = m01;
shapes = (
{
closed = 1;
nodes = (
(145,673,ls),
(145,725,o),
(70,726,o),
(70,673,cs),
(70,-117,ls),
(70,-172,o),
(145,-172,o),
(145,-116,cs)
);
}
);
width = 215;
},
{
layerId = m002;
shapes = (
{
closed = 1;
nodes = (
(165,663,ls),
(165,728,o),
(70,729,o),
(70,663,cs),
(70,-127,ls),
(70,-195,o),
(165,-195,o),
(165,-126,cs)
);
}
);
width = 235;
}
);
note = bar;
unicode = 124;
},
{
glyphname = braceright;
lastChange = "2024-12-17 00:52:19 +0000";
layers = (
{
layerId = m01;
shapes = (
{
closed = 1;
nodes = (
(18,-126,l),
(131,-94,o),
(189,-32,o),
(189,89,cs),
(189,154,ls),
(189,232,o),
(223,271,o),
(290,271,c),
(290,340,l),
(223,340,o),
(189,359,o),
(189,436,cs),
(189,506,ls),
(189,623,o),
(133,684,o),
(18,717,c),
(0,661,l),
(67,640,o),
(100,594,o),
(100,504,cs),
(100,437,ls),
(100,364,o),
(127,334,o),
(180,305,c),
(127,276,o),
(100,225,o),
(100,152,cs),
(100,83,ls),
(100,-5,o),
(65,-49,o),
(0,-70,c)
);
}
);
width = 360;
},
{
layerId = m002;
shapes = (
{
closed = 1;
nodes = (
(24,-158,l),
(147,-126,o),
(212,-60,o),
(212,69,cs),
(212,134,ls),
(212,212,o),
(244,244,o),
(313,241,c),
(313,330,l),
(241,329,o),
(212,341,o),
(212,416,cs),
(212,486,ls),
(212,611,o),
(149,676,o),
(24,709,c),
(0,634,l),
(71,615,o),
(103,575,o),
(103,484,cs),
(103,417,ls),
(103,347,o),
(128,313,o),
(173,285,c),
(127,253,o),
(103,201,o),
(103,132,cs),
(103,63,ls),
(103,-26,o),
(69,-64,o),
(0,-83,c)
);
}
);
width = 383;
}
);
note = braceright;
unicode = 125;
},
{
glyphname = asciitilde;
lastChange = "2024-12-17 00:52:19 +0000";
layers = (
{
layerId = m01;
shapes = (
{
closed = 1;
nodes = (
(516,274,o),
(485,245,o),
(438,245,cs),
(406,245,o),
(382,273,o),
(356,298,cs),
(302,346,o),
(263,373,o),
(217,373,cs),
(132,373,o),
(70,314,o),
(70,216,cs),
(70,165,o),
(144,165,o),
(144,217,cs),
(144,274,o),
(169,299,o),
(217,299,cs),
(253,299,o),
(283,262,o),
(309,239,cs),
(360,194,o),
(395,171,o),
(438,171,cs),
(522,171,o),
(586,236,o),
(586,332,cs),
(586,378,o),
(516,384,o),
(516,332,cs)
);
}
);
width = 656;
},
{
layerId = m002;
shapes = (
{
closed = 1;
nodes = (
(516,278,o),
(491,255,o),
(448,255,cs),
(421,255,o),
(399,280,o),
(373,305,cs),
(318,354,o),
(276,383,o),
(227,383,cs),
(137,383,o),
(70,319,o),
(70,216,cs),
(70,152,o),
(164,152,o),
(164,217,cs),
(164,270,o),
(183,289,o),
(227,289,cs),
(252,289,o),
(307,236,o),
(312,232,cs),
(364,186,o),
(402,161,o),
(448,161,cs),
(537,161,o),
(606,231,o),
(606,332,cs),
(606,391,o),
(516,397,o),
(516,332,cs)
);
}
);
width = 676;
}
);
note = asciitilde;
unicode = 126;
},
{
glyphname = guillemotleft;
lastChange = "2024-12-17 00:52:19 +0000";
layers = (
{
layerId = m01;
shapes = (
{
closed = 1;
nodes = (
(157,286,l),
(218,483,l),
(155,483,l),
(70,286,l),
(155,88,l),
(218,88,l)
);
},
{
closed = 1;
nodes = (
(310,286,l),
(371,483,l),
(308,483,l),
(223,286,l),
(308,88,l),
(371,88,l)
);
}
);
width = 441;
},
{
layerId = m002;
shapes = (
{
closed = 1;
nodes = (
(178,286,l),
(243,493,l),
(159,493,l),
(70,286,l),
(159,78,l),
(243,78,l)
);
},
{
closed = 1;
nodes = (
(351,286,l),
(416,493,l),
(332,493,l),
(243,286,l),
(332,78,l),
(416,78,l)
);
}
);
width = 486;
}
);
note = guillemotleft;
unicode = 171;
},
{
glyphname = guillemotright;
lastChange = "2024-12-17 00:52:19 +0000";
layers = (
{
layerId = m01;
shapes = (
{
closed = 1;
nodes = (
(371,286,l),
(286,483,l),
(223,483,l),
(283,286,l),
(223,88,l),
(286,88,l)
);
},
{
closed = 1;
nodes = (
(218,286,l),
(133,483,l),
(70,483,l),
(130,286,l),
(70,88,l),
(133,88,l)
);
}
);
width = 441;
},
{
layerId = m002;
shapes = (
{
closed = 1;
nodes = (
(415,286,l),
(326,493,l),
(243,493,l),
(306,286,l),
(243,78,l),
(326,78,l)
);
},
{
closed = 1;
nodes = (
(242,286,l),
(153,493,l),
(70,493,l),
(133,286,l),
(70,78,l),
(153,78,l)
);
}
);
width = 485;
}
);
note = guillemotright;
unicode = 187;
},
{
glyphname = A;
lastChange = "2024-12-17 00:52:19 +0000";
layers = (
{
layerId = m01;
shapes = (
{
closed = 1;
nodes = (
(213,272,l),
(300,634,l),
(391,272,l)
);
},
{
closed = 1;
nodes = (
(354,701,l),
(249,701,l),
(70,0,l),
(145,0,l),
(193,193,l),
(410,193,l),
(455,0,l),
(530,0,l)
);
}
);
width = 600;
},
{
layerId = m002;
shapes = (
{
closed = 1;
nodes = (
(239,282,l),
(313,581,l),
(391,282,l)
);
},
{
closed = 1;
nodes = (
(166,0,l),
(214,183,l),
(415,183,l),
(460,0,l),
(556,0,l),
(375,701,l),
(254,701,l),
(70,0,l)
);
}
);
width = 626;
}
);
note = A;
unicode = 65;
},
{
glyphname = B;
lastChange = "2024-12-17 00:52:19 +0000";
layers = (
{
layerId = m01;
shapes = (
{
closed = 1;
nodes = (
(540,-35,o),
(525,316,o),
(368,373,c),
(497,481,o),
(431,736,o),
(119,700,cs),
(100,698,o),
(89,697,o),
(70,696,c),
(70,4,l),
(87,3,o),
(99,1,o),
(118,0,cs)
);
},
{
closed = 1;
nodes = (
(144,332,l),
(278,332,ls),
(432,332,o),
(473,38,o),
(144,71,c)
);
},
{
closed = 1;
nodes = (
(144,629,l),
(451,648,o),
(368,404,o),
(267,404,cs),
(144,404,l)
);
}
);
width = 539;
},
{
layerId = m002;
shapes = (
{
closed = 1;
nodes = (
(549,-35,o),
(549,300,o),
(396,376,c),
(516,495,o),
(441,736,o),
(128,700,cs),
(106,698,o),
(95,697,o),
(70,696,c),
(70,4,l),
(82,4,o),
(117,1,o),
(127,0,cs)
);
},
{
closed = 1;
nodes = (
(164,322,l),
(288,322,ls),
(432,322,o),
(471,64,o),
(164,90,c)
);
},
{
closed = 1;
nodes = (
(164,610,l),
(445,622,o),
(370,414,o),
(277,414,cs),
(164,414,l)
);
}
);
width = 559;
}
);
note = B;
unicode = 66;
},
{
glyphname = C;
lastChange = "2024-12-17 00:52:19 +0000";
layers = (
{
layerId = m01;
shapes = (
{
closed = 1;
nodes = (
(502,122,o),
(422,78,o),
(341,80,cs),
(244,82,o),
(148,175,o),
(148,356,cs),
(148,543,o),
(247,619,o),
(341,619,cs),
(424,619,o),
(502,563,o),
(515,472,c),
(589,474,l),
(575,619,o),
(462,700,o),
(341,700,cs),
(210,701,o),
(70,596,o),
(70,359,cs),
(70,120,o),
(207,-1,o),
(341,-1,cs),
(459,-1,o),
(574,72,o),
(589,226,c),
(515,228,l)
);
}
);
width = 659;
},
{
layerId = m002;
shapes = (
{
closed = 1;
nodes = (
(507,141,o),
(432,98,o),
(351,100,cs),
(258,102,o),
(168,189,o),
(168,356,cs),
(168,528,o),
(260,599,o),
(351,599,cs),
(433,599,o),
(508,544,o),
(516,452,c),
(610,454,l),
(600,612,o),
(479,700,o),
(351,700,cs),
(215,701,o),
(70,591,o),
(70,359,cs),
(70,125,o),
(211,-1,o),
(351,-1,cs),
(476,-1,o),
(599,79,o),
(610,246,c),
(516,248,l)
);
}
);
width = 680;
}
);
note = C;
unicode = 67;
},
{
glyphname = D;
lastChange = "2024-12-17 00:52:19 +0000";
layers = (
{
layerId = m01;
shapes = (
{
closed = 1;
nodes = (
(655,-46,o),
(636,747,o),
(128,705,cs),
(109,704,o),
(88,702,o),
(70,701,c),
(70,0,l),
(89,-1,o),
(110,-3,o),
(131,-4,cs)
);
},
{
closed = 1;
nodes = (
(145,629,l),
(525,655,o),
(563,50,o),
(145,71,c)
);
}
);
width = 587;
},
{
layerId = m002;
shapes = (
{
closed = 1;
nodes = (
(678,-47,o),
(659,748,o),
(137,705,cs),
(127,704,o),
(81,701,o),
(70,701,c),
(70,0,l),
(81,0,o),
(129,-3,o),
(140,-4,cs)
);
},
{
closed = 1;
nodes = (
(165,610,l),
(523,624,o),
(558,80,o),
(165,91,c)
);
}
);
width = 606;
}
);
note = D;
unicode = 68;
},
{
glyphname = E;
lastChange = "2024-12-17 00:52:19 +0000";
layers = (
{
layerId = m01;
shapes = (
{
closed = 1;
nodes = (
(396,73,l),
(145,73,l),
(145,325,l),
(371,325,l),
(371,398,l),
(145,398,l),
(145,628,l),
(396,628,l),
(396,701,l),
(70,701,l),
(70,0,l),
(396,0,l)
);
}
);
width = 466;
},
{
layerId = m002;
shapes = (
{
closed = 1;
nodes = (
(416,93,l),
(165,93,l),
(165,315,l),
(391,315,l),
(391,408,l),
(165,408,l),
(165,608,l),
(416,608,l),
(416,701,l),
(70,701,l),
(70,0,l),
(416,0,l)
);
}
);
width = 486;
}
);
note = E;
unicode = 69;
},
{
glyphname = F;
lastChange = "2024-12-17 00:52:19 +0000";
layers = (
{
layerId = m01;
shapes = (
{
closed = 1;
nodes = (
(386,701,l),
(70,701,l),
(70,0,l),
(145,0,l),
(145,315,l),
(361,315,l),
(361,389,l),
(145,389,l),
(145,628,l),
(386,628,l)
);
}
);
width = 456;
},
{
layerId = m002;
shapes = (
{
closed = 1;
nodes = (
(406,701,l),
(70,701,l),
(70,0,l),
(165,0,l),
(165,305,l),
(381,305,l),
(381,399,l),
(165,399,l),
(165,608,l),
(406,608,l)
);
}
);
width = 476;
}
);
note = F;
unicode = 70;
},
{
glyphname = G;
lastChange = "2024-12-17 00:52:19 +0000";
layers = (
{
layerId = m01;
shapes = (
{
closed = 1;
nodes = (
(309,368,l),
(309,295,l),
(398,295,l),
(398,79,l),
(371,75,o),
(342,72,o),
(319,72,cs),
(210,72,o),
(147,190,o),
(146,353,cs),
(145,503,o),
(205,626,o),
(330,626,cs),
(373,626,o),
(417,622,o),
(460,614,c),
(460,685,l),
(435,693,o),
(383,700,o),
(348,700,cs),
(156,700,o),
(69,541,o),
(70,353,cs),
(71,154,o),
(162,-1,o),
(324,-1,cs),
(379,-1,o),
(421,5,o),
(474,16,c),
(474,368,l)
);
}
);
width = 544;
},
{
layerId = m002;
shapes = (
{
closed = 1;
nodes = (
(309,378,l),
(309,285,l),
(398,285,l),
(398,98,l),
(374,94,o),
(349,92,o),
(329,92,cs),
(226,92,o),
(167,193,o),
(166,353,cs),
(165,501,o),
(221,606,o),
(340,606,cs),
(386,606,o),
(434,601,o),
(480,592,c),
(480,682,l),
(458,691,o),
(397,700,o),
(358,700,cs),
(159,700,o),
(69,545,o),
(70,353,cs),
(71,150,o),
(165,-1,o),
(334,-1,cs),
(392,-1,o),
(437,6,o),
(494,18,c),
(494,378,l)
);
}
);
width = 564;
}
);
note = G;
unicode = 71;
},
{
glyphname = H;
lastChange = "2024-12-17 00:52:19 +0000";
layers = (
{
layerId = m01;
shapes = (
{
closed = 1;
nodes = (
(426,701,l),
(351,701,l),
(351,396,l),
(145,396,l),
(145,701,l),
(70,701,l),
(70,0,l),
(145,0,l),
(145,322,l),
(351,322,l),
(351,0,l),
(426,0,l)
);
}
);
width = 496;
},
{
layerId = m002;
shapes = (
{
closed = 1;
nodes = (
(446,701,l),
(351,701,l),
(351,406,l),
(165,406,l),
(165,701,l),
(70,701,l),
(70,0,l),
(165,0,l),
(165,312,l),
(351,312,l),
(351,0,l),
(446,0,l)
);
}
);
width = 516;
}
);
note = H;
unicode = 72;
},
{
glyphname = I;
lastChange = "2024-12-17 00:52:19 +0000";
layers = (
{
layerId = m01;
shapes = (
{
closed = 1;
nodes = (
(297,73,l),
(221,73,l),
(221,628,l),
(297,628,l),
(297,701,l),
(70,701,l),
(70,628,l),
(146,628,l),
(146,73,l),
(70,73,l),
(70,0,l),
(297,0,l)
);
}
);
width = 367;
},
{
layerId = m002;
shapes = (
{
closed = 1;
nodes = (
(317,93,l),
(241,93,l),
(241,608,l),
(317,608,l),
(317,701,l),
(70,701,l),
(70,608,l),
(146,608,l),
(146,93,l),
(70,93,l),
(70,0,l),
(317,0,l)
);
}
);
width = 387;
}
);
note = I;
unicode = 73;
},
{
glyphname = J;
lastChange = "2024-12-17 00:52:19 +0000";
layers = (
{
layerId = m01;
shapes = (
{
closed = 1;
nodes = (
(356,701,l),
(108,701,l),
(108,628,l),
(281,628,l),
(281,244,ls),
(281,95,o),
(249,68,o),
(174,68,cs),
(152,68,o),
(97,73,o),
(70,77,c),
(70,3,l),
(95,-1,o),
(155,-7,o),
(177,-7,cs),
(305,-7,o),
(356,36,o),
(356,251,cs)
);
}
);
width = 426;
},
{
layerId = m002;
shapes = (
{
closed = 1;
nodes = (
(376,701,l),
(108,701,l),
(108,608,l),
(281,608,l),
(281,254,ls),
(281,110,o),
(255,88,o),
(184,88,cs),
(159,88,o),
(87,95,o),
(70,99,c),
(70,5,l),
(86,1,o),
(161,-7,o),
(187,-7,cs),
(320,-7,o),
(376,38,o),
(376,261,cs)
);
}
);
width = 446;
}
);
note = J;
unicode = 74;
},
{
glyphname = K;
lastChange = "2024-12-17 00:52:19 +0000";
layers = (
{
layerId = m01;
shapes = (
{
closed = 1;
nodes = (
(237,401,l),
(414,701,l),
(336,701,l),
(145,388,l),
(145,701,l),
(70,701,l),
(70,0,l),
(145,0,l),
(145,266,l),
(192,337,l),
(370,0,l),
(450,0,l)
);
}
);
width = 520;
},
{
layerId = m002;
shapes = (
{
closed = 1;
nodes = (
(258,401,l),
(442,701,l),
(340,701,l),
(165,424,l),
(165,701,l),
(70,701,l),
(70,0,l),
(165,0,l),
(165,263,l),
(201,317,l),
(374,0,l),
(477,0,l)
);
}
);
width = 547;
}
);
note = K;
unicode = 75;
},
{
glyphname = L;
lastChange = "2024-12-17 00:52:19 +0000";
layers = (
{
layerId = m01;
shapes = (
{
closed = 1;
nodes = (
(380,75,l),
(145,75,l),
(145,701,l),
(70,701,l),
(70,0,l),
(380,0,l)
);
}
);
width = 450;
},
{
layerId = m002;
shapes = (
{
closed = 1;
nodes = (
(400,95,l),
(165,95,l),
(165,701,l),
(70,701,l),
(70,0,l),
(400,0,l)
);
}
);
width = 470;
}
);
note = L;
unicode = 76;
},
{
glyphname = M;
lastChange = "2024-12-17 00:52:19 +0000";
layers = (
{
layerId = m01;
shapes = (
{
closed = 1;
nodes = (
(517,701,l),
(387,701,l),
(297,402,l),
(206,701,l),
(70,701,l),
(70,0,l),
(145,0,l),
(145,628,l),
(257,315,l),
(336,315,l),
(442,628,l),
(442,0,l),
(517,0,l)
);
}
);
width = 587;
},
{
layerId = m002;
shapes = (
{
closed = 1;
nodes = (
(537,701,l),
(390,701,l),
(307,428,l),
(223,701,l),
(70,701,l),
(70,0,l),
(165,0,l),
(165,562,l),
(260,295,l),
(353,295,l),
(442,559,l),
(442,0,l),
(537,0,l)
);
}
);
width = 607;
}
);
note = M;
unicode = 77;
},
{
glyphname = N;
lastChange = "2024-12-17 00:52:19 +0000";
layers = (
{
layerId = m01;
shapes = (
{
closed = 1;
nodes = (
(466,701,l),
(391,701,l),
(391,74,l),
(197,701,l),
(70,701,l),
(70,0,l),
(145,0,l),
(145,627,l),
(339,0,l),
(466,0,l)
);
}
);
width = 536;
},
{
layerId = m002;
shapes = (
{
closed = 1;
nodes = (
(486,701,l),
(391,701,l),
(391,151,l),
(214,701,l),
(70,701,l),
(70,0,l),
(165,0,l),
(165,550,l),
(342,0,l),
(486,0,l)
);
}
);
width = 556;
}
);
note = N;
unicode = 78;
},
{
glyphname = O;
lastChange = "2024-12-17 00:52:19 +0000";
layers = (
{
layerId = m01;
shapes = (
{
closed = 1;
nodes = (
(633,590,o),
(520,717,o),
(351,717,cs),
(183,717,o),
(70,584,o),
(70,380,cs),
(70,329,ls),
(70,123,o),
(190,-1,o),
(352,-1,cs),
(528,-1,o),
(633,134,o),
(633,335,cs),
(633,380,l)
);
},
{
closed = 1;
nodes = (
(555,166,o),
(472,77,o),
(352,77,cs),
(233,77,o),
(145,175,o),
(145,335,cs),
(145,387,ls),
(145,544,o),
(235,638,o),
(351,638,cs),
(471,638,o),
(558,546,o),
(558,381,cs),
(558,329,l)
);
}
);
width = 703;
},
{
layerId = m002;
shapes = (
{
closed = 1;
nodes = (
(653,595,o),
(536,697,o),
(361,697,cs),
(187,697,o),
(70,589,o),
(70,380,cs),
(70,329,ls),
(70,118,o),
(195,-1,o),
(362,-1,cs),
(544,-1,o),
(653,129,o),
(653,335,cs),
(653,380,ls)
);
},
{
closed = 1;
nodes = (
(558,170,o),
(478,97,o),
(362,97,cs),
(247,97,o),
(165,179,o),
(165,335,cs),
(165,387,ls),
(165,540,o),
(249,598,o),
(361,598,cs),
(477,598,o),
(558,542,o),
(558,381,cs),
(558,329,ls)
);
}
);
width = 723;
}
);
note = O;
unicode = 79;
},
{
glyphname = P;
lastChange = "2024-12-17 00:52:19 +0000";
layers = (
{
layerId = m01;
shapes = (
{
closed = 1;
nodes = (
(145,0,l),
(145,264,l),
(229,264,ls),
(500,264,o),
(498,708,o),
(227,708,cs),
(186,708,o),
(143,708,o),
(111,705,cs),
(92,704,o),
(87,702,o),
(70,701,c),
(70,0,l)
);
},
{
closed = 1;
nodes = (
(145,629,l),
(152,630,o),
(161,631,o),
(171,632,cs),
(188,634,o),
(211,635,o),
(239,635,cs),
(400,635,o),
(392,337,o),
(239,337,cs),
(145,337,l)
);
}
);
width = 501;
},
{
layerId = m002;
shapes = (
{
closed = 1;
nodes = (
(165,0,l),
(165,254,l),
(239,254,ls),
(523,254,o),
(521,698,o),
(237,698,cs),
(196,698,o),
(153,698,o),
(120,695,cs),
(102,694,o),
(88,691,o),
(70,691,c),
(70,0,l)
);
},
{
closed = 1;
nodes = (
(165,600,l),
(170,601,o),
(176,601,o),
(182,602,cs),
(199,604,o),
(221,605,o),
(249,605,cs),
(400,605,o),
(392,347,o),
(249,347,cs),
(165,347,l)
);
}
);
width = 521;
}
);
note = P;
unicode = 80;
},
{
glyphname = Q;
lastChange = "2024-12-17 00:52:19 +0000";
layers = (
{
layerId = m01;
shapes = (
{
closed = 1;
nodes = (
(508,0,l),
(389,23,l),
(465,74,o),
(488,190,o),
(488,358,cs),
(488,546,o),
(469,708,o),
(279,708,cs),
(89,708,o),
(70,546,o),
(70,358,cs),
(70,167,o),
(88,-7,o),
(279,-7,c),
(508,-84,l)
);
},
{
closed = 1;
nodes = (
(413,136,o),
(369,66,o),
(279,66,cs),
(189,66,o),
(145,136,o),
(145,353,cs),
(145,572,o),
(188,634,o),
(279,634,cs),
(370,634,o),
(413,572,o),
(413,353,cs)
);
}
);
width = 578;
},
{
layerId = m002;
shapes = (
{
closed = 1;
nodes = (
(528,28,l),
(422,49,l),
(488,108,o),
(508,202,o),
(508,358,cs),
(508,547,o),
(488,698,o),
(289,698,cs),
(90,698,o),
(70,547,o),
(70,358,cs),
(70,167,o),
(88,4,o),
(287,3,c),
(528,-78,l)
);
},
{
closed = 1;
nodes = (
(413,139,o),
(373,96,o),
(289,96,cs),
(205,96,o),
(165,139,o),
(165,353,cs),
(165,569,o),
(203,604,o),
(289,604,cs),
(375,604,o),
(413,569,o),
(413,353,cs)
);
}
);
width = 598;
}
);
note = Q;
unicode = 81;
},
{
glyphname = R;
lastChange = "2024-12-17 00:52:19 +0000";
layers = (
{
layerId = m01;
shapes = (
{
closed = 1;
nodes = (
(145,0,l),
(145,290,l),
(251,290,l),
(395,0,l),
(478,0,l),
(320,311,l),
(505,375,o),
(472,700,o),
(227,698,cs),
(186,698,o),
(143,698,o),
(111,695,cs),
(92,694,o),
(87,692,o),
(70,691,c),
(70,0,l)
);
},
{
closed = 1;
nodes = (
(145,624,l),
(152,625,o),
(161,626,o),
(171,627,cs),
(188,629,o),
(211,630,o),
(239,630,cs),
(395,630,o),
(422,363,o),
(239,363,cs),
(145,363,l)
);
}
);
width = 548;
},
{
layerId = m002;
shapes = (
{
closed = 1;
nodes = (
(165,0,l),
(165,280,l),
(255,280,l),
(399,0,l),
(504,0,l),
(344,306,l),
(527,382,o),
(489,700,o),
(237,698,cs),
(196,698,o),
(153,698,o),
(120,695,cs),
(102,694,o),
(88,691,o),
(70,691,c),
(70,0,l)
);
},
{
closed = 1;
nodes = (
(165,605,l),
(170,606,o),
(176,606,o),
(182,607,cs),
(199,609,o),
(221,610,o),
(249,610,cs),
(396,610,o),
(421,373,o),
(249,373,cs),
(165,373,l)
);
}
);
width = 574;
}
);
note = R;
unicode = 82;
},
{
glyphname = S;
lastChange = "2024-12-17 00:52:19 +0000";
layers = (
{
layerId = m01;
shapes = (
{
closed = 1;
nodes = (
(427,294,o),
(478,254,o),
(478,186,cs),
(478,37,o),
(146,33,o),
(146,211,c),
(70,211,l),
(70,-73,o),
(561,-67,o),
(561,186,cs),
(561,294,o),
(489,356,o),
(328,402,cs),
(212,434,o),
(158,461,o),
(158,518,cs),
(158,671,o),
(467,679,o),
(467,485,c),
(542,485,l),
(542,783,o),
(75,758,o),
(75,516,cs),
(75,420,o),
(143,375,o),
(302,330,cs)
);
}
);
width = 631;
},
{
layerId = m002;
shapes = (
{
closed = 1;
nodes = (
(432,285,o),
(478,259,o),
(478,196,cs),
(478,54,o),
(154,53,o),
(166,231,c),
(70,231,l),
(59,-76,o),
(581,-73,o),
(581,196,cs),
(581,310,o),
(505,365,o),
(341,412,cs),
(226,443,o),
(178,457,o),
(178,508,cs),
(178,654,o),
(477,659,o),
(467,475,c),
(562,475,l),
(572,787,o),
(75,764,o),
(75,506,cs),
(75,404,o),
(148,366,o),
(309,320,cs)
);
}
);
width = 651;
}
);
note = S;
unicode = 83;
},
{
glyphname = T;
lastChange = "2024-12-17 00:52:19 +0000";
layers = (
{
layerId = m01;
shapes = (
{
closed = 1;
nodes = (
(465,701,l),
(70,701,l),
(70,626,l),
(236,626,l),
(236,0,l),
(311,0,l),
(311,626,l),
(465,626,l)
);
}
);
width = 535;
},
{
layerId = m002;
shapes = (
{
closed = 1;
nodes = (
(485,701,l),
(70,701,l),
(70,606,l),
(236,606,l),
(236,0,l),
(331,0,l),
(331,606,l),
(485,606,l)
);
}
);
width = 555;
}
);
note = T;
unicode = 84;
},
{
glyphname = U;
lastChange = "2024-12-17 00:52:19 +0000";
layers = (
{
layerId = m01;
shapes = (
{
closed = 1;
nodes = (
(400,701,l),
(400,176,ls),
(400,39,o),
(145,39,o),
(145,176,cs),
(145,701,l),
(70,701,l),
(70,195,ls),
(70,-69,o),
(475,-69,o),
(475,195,cs),
(475,701,l)
);
}
);
width = 545;
},
{
layerId = m002;
shapes = (
{
closed = 1;
nodes = (
(400,701,l),
(400,186,ls),
(400,59,o),
(165,59,o),
(165,186,cs),
(165,701,l),
(70,701,l),
(70,205,ls),
(70,-72,o),
(495,-72,o),
(495,205,cs),
(495,701,l)
);
}
);
width = 565;
}
);
note = U;
unicode = 85;
},
{
glyphname = V;
lastChange = "2024-12-17 00:52:19 +0000";
layers = (
{
layerId = m01;
shapes = (
{
closed = 1;
nodes = (
(399,701,l),
(269,88,l),
(145,701,l),
(70,701,l),
(208,0,l),
(326,0,l),
(474,701,l)
);
}
);
width = 544;
},
{
layerId = m002;
shapes = (
{
closed = 1;
nodes = (
(403,701,l),
(281,148,l),
(165,701,l),
(70,701,l),
(212,0,l),
(346,0,l),
(498,701,l)
);
}
);
width = 568;
}
);
note = V;
unicode = 86;
},
{
glyphname = W;
lastChange = "2024-12-17 00:52:19 +0000";
layers = (
{
layerId = m01;
shapes = (
{
closed = 1;
nodes = (
(70,698,l),
(239,0,l),
(323,0,l),
(483,562,l),
(638,0,l),
(722,0,l),
(892,698,l),
(817,698,l),
(676,126,l),
(522,698,l),
(444,698,l),
(286,128,l),
(145,698,l)
);
}
);
width = 962;
},
{
layerId = m002;
shapes = (
{
closed = 1;
nodes = (
(70,698,l),
(244,0,l),
(344,0,l),
(496,513,l),
(643,0,l),
(743,0,l),
(918,698,l),
(822,698,l),
(689,177,l),
(543,698,l),
(449,698,l),
(299,179,l),
(166,698,l)
);
}
);
width = 988;
}
);
note = W;
unicode = 87;
},
{
glyphname = X;
lastChange = "2024-12-17 00:52:19 +0000";
layers = (
{
layerId = m01;
shapes = (
{
closed = 1;
nodes = (
(328,363,l),
(486,701,l),
(411,701,l),
(285,429,l),
(160,701,l),
(85,701,l),
(240,362,l),
(70,0,l),
(145,0,l),
(284,298,l),
(421,0,l),
(496,0,l)
);
}
);
width = 566;
},
{
layerId = m002;
shapes = (
{
closed = 1;
nodes = (
(355,363,l),
(518,701,l),
(421,701,l),
(301,453,l),
(182,701,l),
(85,701,l),
(245,362,l),
(70,0,l),
(167,0,l),
(300,274,l),
(431,0,l),
(528,0,l)
);
}
);
width = 598;
}
);
note = X;
unicode = 88;
},
{
glyphname = Y;
lastChange = "2024-12-17 00:52:19 +0000";
layers = (
{
layerId = m01;
shapes = (
{
closed = 1;
nodes = (
(446,701,l),
(296,393,l),
(145,701,l),
(70,701,l),
(257,325,l),
(257,0,l),
(331,0,l),
(331,325,l),
(521,701,l)
);
}
);
width = 591;
},
{
layerId = m002;
shapes = (
{
closed = 1;
nodes = (
(456,701,l),
(312,416,l),
(167,701,l),
(70,701,l),
(263,323,l),
(263,0,l),
(357,0,l),
(357,323,l),
(553,701,l)
);
}
);
width = 623;
}
);
note = Y;
unicode = 89;
},
{
glyphname = Z;
lastChange = "2024-12-17 00:52:19 +0000";
layers = (
{
layerId = m01;
shapes = (
{
closed = 1;
nodes = (
(416,701,l),
(93,701,l),
(93,627,l),
(338,627,l),
(70,88,l),
(70,0,l),
(406,0,l),
(406,74,l),
(149,74,l),
(416,612,l)
);
}
);
width = 486;
},
{
layerId = m002;
shapes = (
{
closed = 1;
nodes = (
(436,701,l),
(93,701,l),
(93,607,l),
(332,607,l),
(70,100,l),
(70,0,l),
(426,0,l),
(426,94,l),
(175,94,l),
(436,600,l)
);
}
);
width = 506;
}
);
note = Z;
unicode = 90;
},
{
glyphname = a;
lastChange = "2024-12-17 00:52:19 +0000";
layers = (
{
layerId = m01;
shapes = (
{
closed = 1;
nodes = (
(287,-1,o),
(343,19,o),
(382,59,c),
(385,34,o),
(389,17,o),
(394,8,c),
(471,8,l),
(460,41,o),
(454,76,o),
(454,121,cs),
(454,346,ls),
(454,443,o),
(385,503,o),
(273,503,cs),
(160,503,o),
(79,432,o),
(79,359,c),
(163,359,l),
(163,402,o),
(208,436,o),
(268,436,cs),
(336,436,o),
(381,400,o),
(381,341,cs),
(381,303,l),
(290,303,ls),
(150,303,o),
(70,244,o),
(70,143,cs),
(70,59,o),
(138,-1,o),
(234,-1,cs)
);
},
{
closed = 1;
nodes = (
(191,71,o),
(146,102,o),
(146,154,cs),
(146,214,o),
(204,244,o),
(306,244,cs),
(381,244,l),
(381,144,l),
(360,101,o),
(298,71,o),
(246,71,cs)
);
}
);
width = 541;
},
{
layerId = m002;
shapes = (
{
closed = 1;
nodes = (
(293,-1,o),
(345,16,o),
(385,49,c),
(388,28,o),
(393,14,o),
(399,8,c),
(495,8,l),
(481,45,o),
(474,81,o),
(474,131,cs),
(474,336,ls),
(474,439,o),
(400,503,o),
(283,503,cs),
(161,503,o),
(72,422,o),
(79,339,c),
(184,339,l),
(177,382,o),
(216,416,o),
(278,416,cs),
(342,416,o),
(381,385,o),
(381,331,cs),
(381,313,l),
(300,313,ls),
(155,313,o),
(70,250,o),
(70,143,cs),
(70,63,o),
(143,-1,o),
(244,-1,cs)
);
},
{
closed = 1;
nodes = (
(204,91,o),
(166,117,o),
(166,154,cs),
(166,208,o),
(216,234,o),
(316,234,cs),
(381,234,l),
(381,156,l),
(361,118,o),
(305,91,o),
(256,91,cs)
);
}
);
width = 565;
}
);
note = a;
unicode = 97;
},
{
glyphname = b;
lastChange = "2024-12-17 00:52:19 +0000";
layers = (
{
layerId = m01;
shapes = (
{
closed = 1;
nodes = (
(548,-4,o),
(556,502,o),
(285,502,cs),
(224,502,o),
(177,485,o),
(142,442,c),
(142,700,l),
(70,700,l),
(70,-1,l),
(136,-1,l),
(140,63,l),
(174,18,o),
(222,-4,o),
(285,-4,cs)
);
},
{
closed = 1;
nodes = (
(209,62,o),
(169,88,o),
(142,141,c),
(142,356,l),
(167,408,o),
(217,434,o),
(285,434,cs),
(471,434,o),
(454,62,o),
(285,62,cs)
);
}
);
width = 555;
},
{
layerId = m002;
shapes = (
{
closed = 1;
nodes = (
(571,-4,o),
(579,502,o),
(295,502,cs),
(241,502,o),
(197,489,o),
(162,457,c),
(162,700,l),
(70,700,l),
(70,-1,l),
(155,-1,l),
(158,48,l),
(193,13,o),
(239,-4,o),
(295,-4,cs)
);
},
{
closed = 1;
nodes = (
(223,82,o),
(188,104,o),
(162,153,c),
(162,344,l),
(186,391,o),
(230,414,o),
(295,414,cs),
(471,414,o),
(454,82,o),
(295,82,cs)
);
}
);
width = 575;
}
);
note = b;
unicode = 98;
},
{
glyphname = c;
lastChange = "2024-12-17 00:52:19 +0000";
layers = (
{
layerId = m01;
shapes = (
{
closed = 1;
nodes = (
(210,69,o),
(141,129,o),
(141,247,cs),
(141,373,o),
(212,434,o),
(296,434,cs),
(360,434,o),
(413,390,o),
(417,327,c),
(490,327,l),
(486,431,o),
(405,503,o),
(296,503,cs),
(166,503,o),
(70,410,o),
(70,247,cs),
(70,92,o),
(164,-1,o),
(297,-1,cs),
(407,-1,o),
(486,80,o),
(490,161,c),
(417,161,l),
(413,108,o),
(356,69,o),
(297,69,cs)
);
}
);
width = 560;
},
{
layerId = m002;
shapes = (
{
closed = 1;
nodes = (
(224,89,o),
(161,144,o),
(161,247,cs),
(161,358,o),
(226,414,o),
(306,414,cs),
(370,414,o),
(418,371,o),
(417,317,c),
(510,317,l),
(511,422,o),
(424,503,o),
(306,503,cs),
(171,503,o),
(70,405,o),
(70,247,cs),
(70,97,o),
(169,-1,o),
(307,-1,cs),
(427,-1,o),
(512,92,o),
(510,171,c),
(417,171,l),
(420,128,o),
(366,89,o),
(307,89,cs)
);
}
);
width = 580;
}
);
note = c;
unicode = 99;
},
{
glyphname = d;
lastChange = "2024-12-17 00:52:19 +0000";
layers = (
{
layerId = m01;
shapes = (
{
closed = 1;
nodes = (
(315,0,o),
(372,29,o),
(420,81,c),
(420,22,ls),
(420,-11,o),
(481,-11,o),
(481,22,c),
(481,674,l),
(481,704,o),
(411,710,o),
(411,674,c),
(411,430,l),
(367,473,o),
(318,498,o),
(265,498,cs),
(134,498,o),
(70,395,o),
(70,243,cs),
(70,109,o),
(121,0,o),
(254,0,cs)
);
},
{
closed = 1;
nodes = (
(180,71,o),
(147,141,o),
(147,251,cs),
(147,356,o),
(186,427,o),
(272,427,cs),
(319,427,o),
(364,397,o),
(411,340,c),
(411,159,l),
(357,90,o),
(313,71,o),
(269,71,cs)
);
}
);
width = 551;
},
{
layerId = m002;
shapes = (
{
closed = 1;
nodes = (
(321,0,o),
(374,24,o),
(420,67,c),
(420,32,ls),
(420,-14,o),
(501,-14,o),
(501,32,cs),
(501,664,ls),
(501,707,o),
(411,713,o),
(411,664,cs),
(411,443,l),
(370,478,o),
(324,498,o),
(275,498,cs),
(137,498,o),
(70,389,o),
(70,243,cs),
(70,116,o),
(124,0,o),
(264,0,cs)
);
},
{
closed = 1;
nodes = (
(196,91,o),
(167,153,o),
(167,251,cs),
(167,343,o),
(202,407,o),
(282,407,cs),
(325,407,o),
(366,380,o),
(411,326,c),
(411,172,l),
(360,108,o),
(320,91,o),
(279,91,cs)
);
}
);
width = 571;
}
);
unicode = 100;
},
{
glyphname = e;
lastChange = "2024-12-17 00:52:19 +0000";
layers = (
{
layerId = m01;
shapes = (
{
closed = 1;
nodes = (
(375,-1,o),
(436,30,o),
(477,93,c),
(426,135,l),
(395,96,o),
(357,69,o),
(298,69,cs),
(215,69,o),
(145,131,o),
(142,227,c),
(484,227,l),
(494,407,o),
(410,503,o),
(283,503,cs),
(148,503,o),
(70,380,o),
(70,253,cs),
(70,238,ls),
(70,93,o),
(162,-1,o),
(294,-1,cs)
);
},
{
closed = 1;
nodes = (
(354,433,o),
(412,386,o),
(412,296,c),
(144,296,l),
(156,384,o),
(216,433,o),
(283,433,cs)
);
}
);
width = 555;
},
{
layerId = m002;
shapes = (
{
closed = 1;
nodes = (
(391,-1,o),
(457,34,o),
(500,105,c),
(434,159,l),
(403,117,o),
(368,89,o),
(308,89,cs),
(232,89,o),
(170,141,o),
(163,217,c),
(503,217,l),
(517,409,o),
(428,503,o),
(293,503,cs),
(151,503,o),
(70,384,o),
(70,253,cs),
(70,238,ls),
(70,98,o),
(167,-1,o),
(304,-1,cs)
);
},
{
closed = 1;
nodes = (
(358,413,o),
(408,385,o),
(412,306,c),
(166,306,l),
(180,383,o),
(232,413,o),
(293,413,cs)
);
}
);
width = 574;
}
);
note = e;
unicode = 101;
},
{
glyphname = f;
lastChange = "2024-12-17 00:52:19 +0000";
layers = (
{
layerId = m01;
shapes = (
{
closed = 1;
nodes = (
(332,493,l),
(223,493,l),
(223,576,ls),
(223,639,o),
(277,663,o),
(362,625,c),
(362,684,l),
(265,725,o),
(148,703,o),
(148,570,cs),
(148,493,l),
(70,493,l),
(70,423,l),
(148,423,l),
(148,0,l),
(223,0,l),
(223,423,l),
(332,423,l)
);
}
);
width = 362;
},
{
layerId = m002;
shapes = (
{
closed = 1;
nodes = (
(352,493,l),
(243,493,l),
(243,566,ls),
(243,626,o),
(292,644,o),
(382,599,c),
(382,681,l),
(278,728,o),
(148,704,o),
(148,560,cs),
(148,493,l),
(70,493,l),
(70,403,l),
(148,403,l),
(148,0,l),
(243,0,l),
(243,403,l),
(352,403,l)
);
}
);
width = 382;
}
);
note = f;
unicode = 102;
},
{
glyphname = g;
lastChange = "2024-12-17 00:52:19 +0000";
layers = (
{
layerId = m01;
shapes = (
{
closed = 1;
nodes = (
(70,96,o),
(161,-3,o),
(266,-3,cs),
(323,-3,o),
(369,16,o),
(402,55,c),
(402,3,ls),
(402,-80,o),
(354,-118,o),
(273,-118,cs),
(222,-118,o),
(178,-106,o),
(142,-62,c),
(99,-112,l),
(135,-164,o),
(202,-196,o),
(273,-196,cs),
(400,-196,o),
(476,-119,o),
(476,8,cs),
(476,493,l),
(410,493,l),
(406,439,l),
(373,481,o),
(326,502,o),
(266,502,cs),
(151,502,o),
(70,405,o),
(70,253,cs)
);
},
{
closed = 1;
nodes = (
(151,368,o),
(196,421,o),
(266,421,cs),
(328,421,o),
(377,388,o),
(402,341,c),
(402,159,l),
(377,112,o),
(329,71,o),
(266,71,cs),
(196,71,o),
(151,135,o),
(151,244,cs)
);
}
);
width = 546;
},
{
layerId = m002;
shapes = (
{
closed = 1;
nodes = (
(70,102,o),
(164,-3,o),
(276,-3,cs),
(326,-3,o),
(369,11,o),
(402,41,c),
(402,13,ls),
(402,-65,o),
(361,-108,o),
(283,-108,cs),
(230,-108,o),
(188,-96,o),
(152,-46,c),
(96,-111,l),
(133,-170,o),
(206,-206,o),
(283,-206,cs),
(415,-206,o),
(496,-114,o),
(496,18,cs),
(496,493,l),
(411,493,l),
(408,453,l),
(374,486,o),
(330,502,o),
(276,502,cs),
(155,502,o),
(70,400,o),
(70,253,cs)
);
},
{
closed = 1;
nodes = (
(171,354,o),
(211,401,o),
(276,401,cs),
(334,401,o),
(378,372,o),
(402,328,c),
(402,172,l),
(378,127,o),
(334,91,o),
(276,91,cs),
(211,91,o),
(171,148,o),
(171,244,cs)
);
}
);
width = 566;
}
);
note = g;
unicode = 103;
},
{
glyphname = h;
lastChange = "2024-12-17 00:52:19 +0000";
layers = (
{
layerId = m01;
shapes = (
{
closed = 1;
nodes = (
(144,338,ls),
(144,434,o),
(362,491,o),
(362,328,cs),
(362,0,l),
(436,0,l),
(436,328,ls),
(436,556,o),
(165,517,o),
(144,449,c),
(144,690,l),
(70,690,l),
(70,0,l),
(144,0,l)
);
}
);
width = 506;
},
{
layerId = m002;
shapes = (
{
closed = 1;
nodes = (
(164,328,ls),
(164,416,o),
(362,468,o),
(362,318,cs),
(362,0,l),
(456,0,l),
(456,318,ls),
(456,528,o),
(235,526,o),
(164,469,c),
(164,700,l),
(70,700,l),
(70,0,l),
(164,0,l)
);
}
);
width = 526;
}
);
note = h;
unicode = 104;
},
{
glyphname = i;
lastChange = "2024-12-17 00:52:19 +0000";
layers = (
{
layerId = m01;
shapes = (
{
closed = 1;
nodes = (
(146,591,o),
(168,613,o),
(168,640,cs),
(168,667,o),
(146,689,o),
(119,689,cs),
(92,689,o),
(70,667,o),
(70,640,cs),
(70,613,o),
(92,591,o),
(119,591,cs)
);
},
{
closed = 1;
nodes = (
(157,463,ls),
(157,515,o),
(82,516,o),
(82,463,cs),
(82,43,ls),
(82,-12,o),
(157,-12,o),
(157,44,cs)
);
}
);
width = 238;
},
{
layerId = m002;
shapes = (
{
closed = 1;
nodes = (
(161,571,o),
(188,598,o),
(188,630,cs),
(188,662,o),
(161,689,o),
(129,689,cs),
(97,689,o),
(70,662,o),
(70,630,cs),
(70,598,o),
(97,571,o),
(129,571,cs)
);
},
{
closed = 1;
nodes = (
(180,453,ls),
(180,518,o),
(85,519,o),
(85,453,cs),
(85,51,ls),
(85,-17,o),
(180,-17,o),
(180,52,cs)
);
}
);
width = 258;
}
);
note = i;
unicode = 105;
},
{
glyphname = j;
lastChange = "2024-12-17 00:52:19 +0000";
layers = (
{
layerId = m01;
shapes = (
{
closed = 1;
nodes = (
(76,502,l),
(76,-48,ls),
(76,-121,o),
(-4,-105,o),
(-50,-99,c),
(-50,-170,l),
(68,-182,o),
(151,-174,o),
(151,-43,cs),
(151,502,l)
);
},
{
closed = 1;
nodes = (
(134,591,o),
(156,613,o),
(156,640,cs),
(156,667,o),
(134,689,o),
(107,689,cs),
(80,689,o),
(58,667,o),
(58,640,cs),
(58,613,o),
(80,591,o),
(107,591,cs)
);
}
);
width = 226;
},
{
layerId = m002;
shapes = (
{
closed = 1;
nodes = (
(76,502,l),
(76,-38,ls),
(76,-106,o),
(-6,-82,o),
(-50,-78,c),
(-50,-169,l),
(74,-182,o),
(171,-177,o),
(171,-33,cs),
(171,502,l)
);
},
{
closed = 1;
nodes = (
(149,571,o),
(176,598,o),
(176,630,cs),
(176,662,o),
(149,689,o),
(117,689,cs),
(85,689,o),
(58,662,o),
(58,630,cs),
(58,598,o),
(85,571,o),
(117,571,cs)
);
}
);
width = 246;
}
);
note = j;
unicode = 106;
},
{
glyphname = k;
lastChange = "2024-12-17 00:52:19 +0000";
layers = (
{
layerId = m01;
shapes = (
{
closed = 1;
nodes = (
(219,308,l),
(378,502,l),
(294,502,l),
(140,321,l),
(140,702,l),
(70,702,l),
(70,0,l),
(140,0,l),
(140,215,l),
(177,254,l),
(336,0,l),
(415,0,l)
);
}
);
width = 415;
},
{
layerId = m002;
shapes = (
{
closed = 1;
nodes = (
(241,307,l),
(409,502,l),
(299,502,l),
(160,348,l),
(160,702,l),
(70,702,l),
(70,0,l),
(160,0,l),
(160,211,l),
(185,238,l),
(340,0,l),
(443,0,l)
);
}
);
width = 443;
}
);
note = k;
unicode = 107;
},
{
glyphname = l;
lastChange = "2024-12-17 00:52:19 +0000";
layers = (
{
layerId = m01;
shapes = (
{
closed = 1;
nodes = (
(216,75,l),
(178,67,o),
(145,63,o),
(145,118,cs),
(145,702,l),
(70,702,l),
(70,112,ls),
(70,0,o),
(149,-8,o),
(216,5,c)
);
}
);
width = 236;
},
{
layerId = m002;
shapes = (
{
closed = 1;
nodes = (
(236,97,l),
(191,88,o),
(165,80,o),
(165,128,cs),
(165,702,l),
(70,702,l),
(70,122,ls),
(70,-4,o),
(166,-9,o),
(236,7,c)
);
}
);
width = 256;
}
);
note = l;
unicode = 108;
},
{
glyphname = m;
lastChange = "2024-12-17 00:52:19 +0000";
layers = (
{
layerId = m01;
shapes = (
{
closed = 1;
nodes = (
(145,331,ls),
(145,414,o),
(311,490,o),
(311,341,cs),
(311,0,l),
(386,0,l),
(386,341,ls),
(386,460,o),
(557,459,o),
(557,361,cs),
(557,0,l),
(632,0,l),
(632,361,ls),
(632,522,o),
(405,551,o),
(350,435,c),
(320,526,o),
(183,527,o),
(138,438,c),
(130,502,l),
(70,502,l),
(70,0,l),
(145,0,l)
);
}
);
width = 702;
},
{
layerId = m002;
shapes = (
{
closed = 1;
nodes = (
(165,321,ls),
(165,398,o),
(311,464,o),
(311,331,cs),
(311,0,l),
(406,0,l),
(406,331,ls),
(406,440,o),
(557,439,o),
(557,351,cs),
(557,0,l),
(652,0,l),
(652,351,ls),
(652,515,o),
(434,551,o),
(361,447,c),
(321,520,o),
(209,523,o),
(155,456,c),
(149,502,l),
(70,502,l),
(70,0,l),
(165,0,l)
);
}
);
width = 722;
}
);
note = m;
unicode = 109;
},
{
glyphname = n;
lastChange = "2024-12-17 00:52:19 +0000";
layers = (
{
layerId = m01;
shapes = (
{
closed = 1;
nodes = (
(442,0,l),
(442,331,ls),
(442,584,o),
(192,537,o),
(139,427,c),
(129,502,l),
(70,502,l),
(70,0,l),
(145,0,l),
(145,351,ls),
(145,445,o),
(367,496,o),
(367,341,cs),
(367,0,l)
);
}
);
width = 512;
},
{
layerId = m002;
shapes = (
{
closed = 1;
nodes = (
(462,0,l),
(462,321,ls),
(462,567,o),
(231,542,o),
(155,446,c),
(148,502,l),
(70,502,l),
(70,0,l),
(165,0,l),
(165,341,ls),
(165,422,o),
(367,472,o),
(367,331,cs),
(367,0,l)
);
}
);
width = 532;
}
);
note = n;
unicode = 110;
},
{
glyphname = o;
lastChange = "2024-12-17 00:52:19 +0000";
layers = (
{
layerId = m01;
shapes = (
{
closed = 1;
nodes = (
(70,98,o),
(160,-1,o),
(292,-1,cs),
(426,-1,o),
(513,101,o),
(513,251,cs),
(513,404,o),
(423,503,o),
(291,503,cs),
(155,503,o),
(70,395,o),
(70,250,c)
);
},
{
closed = 1;
nodes = (
(144,367,o),
(208,435,o),
(291,435,cs),
(375,435,o),
(440,363,o),
(440,256,cs),
(440,136,o),
(376,67,o),
(292,67,cs),
(208,67,o),
(144,138,o),
(144,246,cs)
);
}
);
width = 583;
},
{
layerId = m002;
shapes = (
{
closed = 1;
nodes = (
(70,103,o),
(164,-1,o),
(302,-1,cs),
(442,-1,o),
(533,106,o),
(533,251,cs),
(533,399,o),
(439,500,o),
(301,500,cs),
(159,500,o),
(70,390,o),
(70,250,cs)
);
},
{
closed = 1;
nodes = (
(164,353,o),
(222,412,o),
(301,412,cs),
(381,412,o),
(440,349,o),
(440,256,cs),
(440,150,o),
(382,87,o),
(302,87,cs),
(222,87,o),
(164,152,o),
(164,246,cs)
);
}
);
width = 603;
}
);
note = o;
unicode = 111;
},
{
glyphname = p;
lastChange = "2024-12-17 00:52:19 +0000";
layers = (
{
layerId = m01;
shapes = (
{
closed = 1;
nodes = (
(462,415,o),
(389,509,o),
(272,509,cs),
(211,509,o),
(167,488,o),
(140,446,c),
(136,500,l),
(70,500,l),
(70,-175,l),
(144,-175,l),
(144,60,l),
(171,23,o),
(214,4,o),
(273,4,cs),
(389,4,o),
(462,103,o),
(462,258,c)
);
},
{
closed = 1;
nodes = (
(388,136,o),
(328,72,o),
(248,72,cs),
(197,72,o),
(162,104,o),
(144,148,c),
(144,371,l),
(162,416,o),
(206,438,o),
(257,438,cs),
(338,438,o),
(388,391,o),
(388,260,cs)
);
}
);
width = 532;
},
{
layerId = m002;
shapes = (
{
closed = 1;
nodes = (
(482,410,o),
(405,509,o),
(282,509,cs),
(229,509,o),
(187,493,o),
(158,463,c),
(155,500,l),
(70,500,l),
(70,-185,l),
(164,-185,l),
(164,44,l),
(193,18,o),
(233,4,o),
(283,4,cs),
(405,4,o),
(482,108,o),
(482,258,cs)
);
},
{
closed = 1;
nodes = (
(388,150,o),
(334,92,o),
(258,92,cs),
(212,92,o),
(181,119,o),
(164,160,c),
(164,359,l),
(181,399,o),
(219,418,o),
(267,418,cs),
(344,418,o),
(388,377,o),
(388,260,cs)
);
}
);
width = 552;
}
);
note = p;
unicode = 112;
},
{
glyphname = q;
lastChange = "2024-12-17 00:52:19 +0000";
layers = (
{
layerId = m01;
shapes = (
{
closed = 1;
nodes = (
(70,99,o),
(146,0,o),
(263,0,cs),
(319,0,o),
(364,18,o),
(397,54,c),
(397,-179,l),
(472,-179,l),
(472,496,l),
(404,496,l),
(400,447,l),
(367,486,o),
(321,505,o),
(264,505,cs),
(145,505,o),
(70,409,o),
(70,250,c)
);
},
{
closed = 1;
nodes = (
(143,371,o),
(204,436,o),
(284,436,cs),
(333,436,o),
(370,415,o),
(397,372,c),
(397,133,l),
(371,90,o),
(333,68,o),
(263,68,cs),
(204,68,o),
(143,135,o),
(143,250,cs)
);
}
);
width = 542;
},
{
layerId = m002;
shapes = (
{
closed = 1;
nodes = (
(70,104,o),
(150,0,o),
(273,0,cs),
(322,0,o),
(364,14,o),
(397,41,c),
(397,-189,l),
(492,-189,l),
(492,496,l),
(405,496,l),
(402,460,l),
(368,490,o),
(325,505,o),
(274,505,cs),
(149,505,o),
(70,404,o),
(70,250,cs)
);
},
{
closed = 1;
nodes = (
(163,357,o),
(218,416,o),
(294,416,cs),
(339,416,o),
(372,398,o),
(397,359,c),
(397,146,l),
(372,107,o),
(339,88,o),
(273,88,cs),
(218,88,o),
(163,149,o),
(163,250,cs)
);
}
);
width = 562;
}
);
note = q;
unicode = 113;
},
{
glyphname = r;
lastChange = "2024-12-17 00:52:19 +0000";
layers = (
{
layerId = m01;
shapes = (
{
closed = 1;
nodes = (
(145,309,ls),
(145,362,o),
(166,433,o),
(233,433,cs),
(252,433,o),
(276,428,o),
(293,424,c),
(293,494,l),
(245,505,o),
(174,512,o),
(136,451,c),
(129,502,l),
(70,502,l),
(70,0,l),
(145,0,l)
);
}
);
width = 293;
},
{
layerId = m002;
shapes = (
{
closed = 1;
nodes = (
(165,299,ls),
(165,351,o),
(183,413,o),
(243,413,cs),
(266,413,o),
(297,405,o),
(313,401,c),
(313,492,l),
(270,503,o),
(199,514,o),
(153,466,c),
(148,502,l),
(70,502,l),
(70,0,l),
(165,0,l)
);
}
);
width = 313;
}
);
note = r;
unicode = 114;
},
{
glyphname = s;
lastChange = "2024-12-17 00:52:19 +0000";
layers = (
{
layerId = m01;
shapes = (
{
closed = 1;
nodes = (
(373,41,o),
(149,39,o),
(143,157,c),
(70,157,l),
(70,-48,o),
(447,-55,o),
(447,143,cs),
(447,221,o),
(389,262,o),
(270,289,cs),
(219,300,o),
(159,312,o),
(159,364,cs),
(159,462,o),
(358,459,o),
(358,351,c),
(432,351,l),
(432,553,o),
(76,551,o),
(76,361,cs),
(76,289,o),
(131,247,o),
(249,222,cs),
(333,204,o),
(373,181,o),
(373,137,cs)
);
}
);
width = 517;
},
{
layerId = m002;
shapes = (
{
closed = 1;
nodes = (
(373,58,o),
(157,59,o),
(163,177,c),
(70,177,l),
(58,-51,o),
(467,-62,o),
(467,153,cs),
(467,237,o),
(404,261,o),
(282,289,cs),
(231,300,o),
(179,310,o),
(179,354,cs),
(179,445,o),
(370,439,o),
(357,331,c),
(452,331,l),
(464,556,o),
(76,557,o),
(76,351,cs),
(76,273,o),
(136,238,o),
(257,212,cs),
(339,195,o),
(373,185,o),
(373,147,cs)
);
}
);
width = 537;
}
);
note = s;
unicode = 115;
},
{
glyphname = t;
lastChange = "2024-12-17 00:52:19 +0000";
layers = (
{
layerId = m01;
shapes = (
{
closed = 1;
nodes = (
(287,502,l),
(170,502,l),
(170,622,l),
(95,622,l),
(95,502,l),
(20,502,l),
(20,426,l),
(95,426,l),
(95,125,ls),
(95,49,o),
(120,-7,o),
(200,-7,cs),
(236,-7,o),
(272,1,o),
(287,5,c),
(287,75,l),
(271,71,o),
(251,65,o),
(220,65,cs),
(180,65,o),
(170,100,o),
(170,120,cs),
(170,426,l),
(287,426,l)
);
}
);
width = 357;
},
{
layerId = m002;
shapes = (
{
closed = 1;
nodes = (
(307,502,l),
(190,502,l),
(190,622,l),
(95,622,l),
(95,502,l),
(20,502,l),
(20,406,l),
(95,406,l),
(95,145,ls),
(95,66,o),
(123,3,o),
(210,3,cs),
(247,3,o),
(284,11,o),
(307,15,c),
(307,107,l),
(288,104,o),
(267,95,o),
(230,95,cs),
(198,95,o),
(190,121,o),
(190,140,cs),
(190,406,l),
(307,406,l)
);
}
);
width = 377;
}
);
note = t;
unicode = 116;
},
{
glyphname = u;
lastChange = "2024-12-17 00:52:19 +0000";
layers = (
{
layerId = m01;
shapes = (
{
closed = 1;
nodes = (
(425,2,l),
(425,499,l),
(350,499,l),
(350,145,l),
(307,46,o),
(145,21,o),
(145,184,cs),
(145,499,l),
(70,499,l),
(70,182,ls),
(70,-52,o),
(281,-23,o),
(353,60,c),
(355,2,l)
);
}
);
width = 495;
},
{
layerId = m002;
shapes = (
{
closed = 1;
nodes = (
(445,2,l),
(445,499,l),
(350,499,l),
(350,157,l),
(308,65,o),
(165,44,o),
(165,194,cs),
(165,499,l),
(70,499,l),
(70,192,ls),
(70,-36,o),
(265,-28,o),
(354,47,c),
(355,2,l)
);
}
);
width = 515;
}
);
note = u;
unicode = 117;
},
{
glyphname = v;
lastChange = "2024-12-17 00:52:19 +0000";
layers = (
{
layerId = m01;
shapes = (
{
closed = 1;
nodes = (
(70,500,l),
(237,-2,l),
(300,-2,l),
(475,500,l),
(400,500,l),
(269,111,l),
(145,500,l)
);
}
);
width = 545;
},
{
layerId = m002;
shapes = (
{
closed = 1;
nodes = (
(70,500,l),
(244,-2,l),
(321,-2,l),
(503,500,l),
(407,500,l),
(284,153,l),
(166,500,l)
);
}
);
width = 573;
}
);
note = v;
unicode = 118;
},
{
glyphname = w;
lastChange = "2024-12-17 00:52:19 +0000";
layers = (
{
layerId = m01;
shapes = (
{
closed = 1;
nodes = (
(399,500,l),
(273,107,l),
(145,500,l),
(70,500,l),
(234,2,l),
(303,2,l),
(421,359,l),
(542,2,l),
(611,2,l),
(776,500,l),
(701,500,l),
(575,107,l),
(447,500,l)
);
}
);
width = 846;
},
{
layerId = m002;
shapes = (
{
closed = 1;
nodes = (
(406,500,l),
(287,151,l),
(166,500,l),
(70,500,l),
(241,2,l),
(324,2,l),
(435,327,l),
(549,2,l),
(632,2,l),
(804,500,l),
(708,500,l),
(589,151,l),
(468,500,l)
);
}
);
width = 874;
}
);
note = w;
unicode = 119;
},
{
glyphname = x;
lastChange = "2024-12-17 00:52:19 +0000";
layers = (
{
layerId = m01;
shapes = (
{
closed = 1;
nodes = (
(302,259,l),
(447,502,l),
(374,502,l),
(266,319,l),
(150,502,l),
(72,502,l),
(225,259,l),
(70,0,l),
(145,0,l),
(266,206,l),
(400,0,l),
(480,0,l)
);
}
);
width = 550;
},
{
layerId = m002;
shapes = (
{
closed = 1;
nodes = (
(332,259,l),
(483,502,l),
(386,502,l),
(284,338,l),
(174,502,l),
(72,502,l),
(231,259,l),
(70,0,l),
(169,0,l),
(284,187,l),
(413,0,l),
(517,0,l)
);
}
);
width = 587;
}
);
note = x;
unicode = 120;
},
{
glyphname = y;
lastChange = "2024-12-17 00:52:19 +0000";
layers = (
{
layerId = m01;
shapes = (
{
closed = 1;
nodes = (
(410,502,l),
(301,77,l),
(145,502,l),
(70,502,l),
(248,0,l),
(268,0,l),
(252,-55,ls),
(237,-108,o),
(205,-104,o),
(160,-96,c),
(160,-169,l),
(243,-188,o),
(305,-173,o),
(341,-44,cs),
(487,502,l)
);
}
);
width = 557;
},
{
layerId = m002;
shapes = (
{
closed = 1;
nodes = (
(416,502,l),
(313,120,l),
(166,502,l),
(70,502,l),
(255,0,l),
(269,0,l),
(256,-42,ls),
(241,-90,o),
(217,-83,o),
(164,-74,c),
(164,-167,l),
(254,-189,o),
(326,-177,o),
(365,-37,cs),
(514,502,l)
);
}
);
width = 584;
}
);
note = y;
unicode = 121;
},
{
glyphname = z;
lastChange = "2024-12-17 00:52:19 +0000";
layers = (
{
layerId = m01;
shapes = (
{
closed = 1;
nodes = (
(379,502,l),
(90,502,l),
(90,427,l),
(307,427,l),
(70,80,l),
(70,0,l),
(368,0,l),
(368,75,l),
(152,75,l),
(379,412,l)
);
}
);
width = 449;
},
{
layerId = m002;
shapes = (
{
closed = 1;
nodes = (
(399,502,l),
(90,502,l),
(90,407,l),
(298,407,l),
(70,93,l),
(70,0,l),
(388,0,l),
(388,95,l),
(181,95,l),
(399,399,l)
);
}
);
width = 469;
}
);
note = z;
unicode = 122;
},
{
glyphname = uni1780;
lastChange = "2024-12-17 00:52:19 +0000";
layers = (
{
layerId = m01;
shapes = (
{
closed = 1;
nodes = (
(345,0,l),
(345,215,l),
(550,215,l),
(550,285,l),
(345,285,l),
(345,500,l),
(275,500,l),
(275,285,l),
(70,285,l),
(70,215,l),
(275,215,l),
(275,0,l)
);
}
);
width = 620;
},
{
layerId = m002;
shapes = (
{
closed = 1;
nodes = (
(365,0,l),
(365,205,l),
(570,205,l),
(570,295,l),
(365,295,l),
(365,500,l),
(275,500,l),
(275,295,l),
(70,295,l),
(70,205,l),
(275,205,l),
(275,0,l)
);
}
);
width = 640;
}
);
unicode = 6016;
},
{
glyphname = uni1781;
lastChange = "2024-12-17 00:52:19 +0000";
layers = (
{
layerId = m01;
shapes = (
{
closed = 1;
nodes = (
(140,364,l),
(174,449,o),
(298,462,o),
(347,361,c),
(347,0,l),
(418,0,l),
(418,381,l),
(340,562,o),
(96,517,o),
(70,367,c),
(70,280,l),
(140,280,l)
);
}
);
width = 488;
},
{
layerId = m002;
shapes = (
{
closed = 1;
nodes = (
(160,352,l),
(192,429,o),
(301,440,o),
(347,349,c),
(347,0,l),
(438,0,l),
(438,373,l),
(357,566,o),
(97,518,o),
(70,358,c),
(70,260,l),
(160,260,l)
);
}
);
width = 508;
}
);
note = uni1781;
unicode = 6017;
},
{
glyphname = uni1782;
lastChange = "2024-12-17 00:52:19 +0000";
layers = (
{
guides = (
{
orientation = center;
pos = (-1420,500);
}
);
layerId = m01;
shapes = (
{
closed = 1;
nodes = (
(516,0,l),
(293,500,l),
(70,0,l),
(146,0,l),
(293,327,l),
(440,0,l)
);
}
);
width = 586;
},
{
guides = (
{
orientation = center;
pos = (-3080,500);
}
);
layerId = m002;
shapes = (
{
closed = 1;
nodes = (
(606,0,l),
(338,500,l),
(70,0,l),
(167,0,l),
(338,328,l),
(509,0,l)
);
}
);
width = 676;
}
);
note = uni1782;
unicode = 6018;
},
{
glyphname = uni1783;
lastChange = "2024-12-17 00:52:19 +0000";
layers = (
{
guides = (
{
pos = (480,0);
},
{
pos = (105,500);
},
{
pos = (230,0);
}
);
layerId = m01;
shapes = (
{
closed = 1;
nodes = (
(388,136,l),
(375,103,o),
(342,81,o),
(302,73,c),
(302,300,l),
(232,300,l),
(232,72,l),
(193,80,o),
(159,101,o),
(140,139,c),
(140,500,l),
(70,500,l),
(70,119,l),
(148,-62,o),
(432,-18,o),
(458,133,c),
(458,300,l),
(388,300,l)
);
}
);
width = 528;
},
{
guides = (
{
pos = (490,0);
},
{
pos = (115,500);
},
{
pos = (240,0);
}
);
layerId = m002;
shapes = (
{
closed = 1;
nodes = (
(448,148,l),
(441,109,o),
(393,79,o),
(352,86,c),
(352,320,l),
(262,320,l),
(262,85,l),
(231,85,o),
(176,102,o),
(160,151,c),
(160,500,l),
(70,500,l),
(70,127,l),
(151,-66,o),
(511,-20,o),
(538,142,c),
(538,320,l),
(448,320,l)
);
}
);
width = 608;
}
);
note = uni1783;
unicode = 6019;
},
{
glyphname = uni1784;
lastChange = "2024-12-17 00:52:19 +0000";
layers = (
{
guides = (
{
pos = (580,0);
},
{
pos = (580,500);
},
{
pos = (80,0);
},
{
pos = (80,500);
}
);
layerId = m01;
shapes = (
{
closed = 1;
nodes = (
(140,70,l),
(140,430,l),
(490,430,l),
(490,500,l),
(70,500,l),
(70,0,l),
(490,0,l),
(490,70,l)
);
}
);
width = 560;
},
{
guides = (
{
pos = (590,0);
},
{
pos = (590,500);
},
{
pos = (90,0);
},
{
pos = (90,500);
}
);
layerId = m002;
shapes = (
{
closed = 1;
nodes = (
(160,90,l),
(160,410,l),
(510,410,l),
(510,500,l),
(70,500,l),
(70,0,l),
(510,0,l),
(510,90,l)
);
}
);
width = 580;
}
);
note = uni1784;
unicode = 6020;
},
{
glyphname = uni1785;
lastChange = "2024-12-17 00:52:19 +0000";
layers = (
{
layerId = m01;
shapes = (
{
closed = 1;
nodes = (
(371,500,l),
(301,500,l),
(301,314,l),
(5,359,o),
(-42,-56,o),
(371,8,c)
);
},
{
closed = 1;
nodes = (
(103,23,o),
(91,285,o),
(301,245,c),
(301,81,l)
);
}
);
width = 441;
},
{
layerId = m002;
shapes = (
{
closed = 1;
nodes = (
(391,500,l),
(301,500,l),
(301,335,l),
(-1,370,o),
(-41,-63,o),
(391,9,c)
);
},
{
closed = 1;
nodes = (
(125,53,o),
(114,276,o),
(301,247,c),
(301,99,l)
);
}
);
width = 461;
}
);
note = uni1785;
unicode = 6021;
},
{
glyphname = uni1786;
lastChange = "2024-12-17 00:52:19 +0000";
layers = (
{
layerId = m01;
shapes = (
{
closed = 1;
nodes = (
(-15,0,o),
(15,299,o),
(262,307,c),
(262,500,l),
(332,500,l),
(332,307,l),
(605,300,o),
(592,0,o),
(299,0,cs)
);
},
{
closed = 1;
nodes = (
(262,237,l),
(98,231,o),
(97,79,o),
(262,73,c)
);
},
{
closed = 1;
nodes = (
(482,80,o),
(513,231,o),
(332,237,c),
(332,73,l)
);
}
);
width = 598;
},
{
layerId = m002;
shapes = (
{
closed = 1;
nodes = (
(-14,0,o),
(11,311,o),
(262,327,c),
(262,500,l),
(352,500,l),
(352,327,l),
(628,312,o),
(611,0,o),
(309,0,cs)
);
},
{
closed = 1;
nodes = (
(262,236,l),
(121,226,o),
(121,104,o),
(262,94,c)
);
},
{
closed = 1;
nodes = (
(482,106,o),
(506,226,o),
(352,236,c),
(352,94,l)
);
}
);
width = 618;
}
);
note = uni1786;
unicode = 6022;
},
{
glyphname = uni1787;
lastChange = "2024-12-17 00:52:19 +0000";
layers = (
{
layerId = m01;
shapes = (
{
closed = 1;
nodes = (
(283,285,ls),
(168,285,o),
(145,315,o),
(145,363,cs),
(145,407,o),
(198,430,o),
(283,430,cs),
(410,430,l),
(410,500,l),
(233,500,ls),
(140,500,o),
(70,448,o),
(70,363,cs),
(70,317,o),
(91,277,o),
(125,250,c),
(91,224,o),
(70,184,o),
(70,138,cs),
(70,53,o),
(140,0,o),
(233,0,cs),
(410,0,l),
(410,70,l),
(283,70,ls),
(198,70,o),
(145,93,o),
(145,138,cs),
(145,183,o),
(181,215,o),
(283,215,cs),
(410,215,l),
(410,285,l)
);
}
);
width = 480;
},
{
layerId = m002;
shapes = (
{
closed = 1;
nodes = (
(293,285,ls),
(183,285,o),
(165,318,o),
(165,363,cs),
(165,400,o),
(210,410,o),
(293,410,cs),
(430,410,l),
(430,500,l),
(243,500,ls),
(145,500,o),
(70,454,o),
(70,363,cs),
(70,318,o),
(89,278,o),
(120,250,c),
(89,222,o),
(70,183,o),
(70,138,cs),
(70,47,o),
(145,0,o),
(243,0,cs),
(430,0,l),
(430,90,l),
(293,90,ls),
(210,90,o),
(165,100,o),
(165,138,cs),
(165,179,o),
(195,215,o),
(293,215,cs),
(430,215,l),
(430,285,l)
);
}
);
width = 500;
}
);
note = uni1787;
unicode = 6023;
},
{
glyphname = uni1788;
lastChange = "2024-12-17 00:52:19 +0000";
layers = (
{
layerId = m01;
shapes = (
{
closed = 1;
nodes = (
(140,242,l),
(270,167,o),
(504,250,o),
(396,500,c),
(324,500,l),
(421,278,o),
(239,252,o),
(140,330,c),
(140,500,l),
(70,500,l),
(70,0,l),
(140,0,l)
);
}
);
width = 494;
},
{
layerId = m002;
shapes = (
{
closed = 1;
nodes = (
(160,226,l),
(301,160,o),
(527,245,o),
(413,500,c),
(318,500,l),
(422,280,o),
(258,262,o),
(160,335,c),
(160,500,l),
(70,500,l),
(70,0,l),
(160,0,l)
);
}
);
width = 514;
}
);
note = uni1788;
unicode = 6024;
},
{
glyphname = uni1789;
lastChange = "2024-12-17 00:52:19 +0000";
layers = (
{
layerId = m01;
shapes = (
{
closed = 1;
nodes = (
(70,500,l),
(70,430,l),
(163,430,l),
(163,0,l),
(233,0,l),
(233,274,l),
(353,358,o),
(456,226,o),
(394,96,c),
(462,82,l),
(533,236,o),
(409,431,o),
(233,350,c),
(233,500,l)
);
}
);
width = 552;
},
{
layerId = m002;
shapes = (
{
closed = 1;
nodes = (
(70,500,l),
(70,410,l),
(163,410,l),
(163,0,l),
(253,0,l),
(253,269,l),
(367,344,o),
(459,216,o),
(389,89,c),
(478,71,l),
(557,229,o),
(433,435,o),
(253,365,c),
(253,500,l)
);
}
);
width = 572;
}
);
note = uni1789;
unicode = 6025;
},
{
glyphname = uni178A;
lastChange = "2024-12-17 00:52:19 +0000";
layers = (
{
guides = (
{
pos = (119,250);
}
);
layerId = m01;
shapes = (
{
closed = 1;
nodes = (
(440,500,l),
(-53,566,o),
(-53,-56,o),
(440,0,c),
(440,70,l),
(36,16,o),
(36,494,o),
(440,430,c)
);
}
);
width = 510;
},
{
guides = (
{
pos = (129,250);
}
);
layerId = m002;
shapes = (
{
closed = 1;
nodes = (
(460,499,l),
(-60,576,o),
(-59,-65,o),
(460,1,c),
(460,92,l),
(52,28,o),
(52,482,o),
(460,408,c)
);
}
);
width = 530;
}
);
note = uni178A;
unicode = 6026;
},
{
glyphname = uni178B;
lastChange = "2024-12-17 00:52:19 +0000";
layers = (
{
layerId = m01;
shapes = (
{
closed = 1;
nodes = (
(630,0,o),
(630,500,o),
(310,500,cs),
(-10,500,o),
(-10,0,o),
(310,0,cs)
);
},
{
closed = 1;
nodes = (
(80,65,o),
(80,435,o),
(310,435,cs),
(540,435,o),
(540,65,o),
(310,65,cs)
);
}
);
width = 620;
},
{
layerId = m002;
shapes = (
{
closed = 1;
nodes = (
(653,0,o),
(653,500,o),
(320,500,cs),
(-13,500,o),
(-13,0,o),
(320,0,cs)
);
},
{
closed = 1;
nodes = (
(100,85,o),
(100,415,o),
(320,415,cs),
(540,415,o),
(540,85,o),
(320,85,cs)
);
}
);
width = 640;
}
);
note = uni178B;
unicode = 6027;
},
{
glyphname = uni178C;
lastChange = "2024-12-17 00:52:19 +0000";
layers = (
{
guides = (
{
pos = (115,0);
},
{
pos = (265,250);
},
{
pos = (415,500);
}
);
layerId = m01;
shapes = (
{
closed = 1;
nodes = (
(70,285,l),
(346,285,l),
(346,500,l),
(416,500,l),
(416,215,l),
(140,215,l),
(140,0,l),
(70,0,l)
);
}
);
width = 486;
},
{
guides = (
{
pos = (125,0);
},
{
pos = (275,250);
},
{
pos = (425,500);
}
);
layerId = m002;
shapes = (
{
closed = 1;
nodes = (
(70,295,l),
(346,295,l),
(346,500,l),
(436,500,l),
(436,205,l),
(160,205,l),
(160,0,l),
(70,0,l)
);
}
);
width = 506;
}
);
note = uni178C;
unicode = 6028;
},
{
glyphname = uni178D;
lastChange = "2024-12-17 00:52:19 +0000";
layers = (
{
layerId = m01;
shapes = (
{
closed = 1;
nodes = (
(273,120,l),
(265,147,o),
(288,191,o),
(323,185,cs),
(342,182,o),
(356,163,o),
(352,128,cs),
(343,45,o),
(140,35,o),
(140,182,cs),
(140,259,o),
(205,309,o),
(290,290,c),
(290,500,l),
(220,500,l),
(219,360,l),
(135,344,o),
(70,271,o),
(70,182,cs),
(70,-35,o),
(397,-59,o),
(422,121,cs),
(430,182,o),
(395,243,o),
(324,247,cs),
(272,249,o),
(199,204,o),
(253,122,c)
);
}
);
width = 493;
},
{
layerId = m002;
shapes = (
{
closed = 1;
nodes = (
(292,130,l),
(296,166,o),
(315,200,o),
(343,195,cs),
(358,193,o),
(400,190,o),
(396,139,cs),
(390,65,o),
(160,56,o),
(160,192,cs),
(160,298,o),
(263,353,o),
(350,327,c),
(350,500,l),
(260,500,l),
(259,398,l),
(165,398,o),
(70,313,o),
(70,192,cs),
(70,-37,o),
(439,-63,o),
(466,130,cs),
(475,196,o),
(421,273,o),
(344,277,cs),
(286,279,o),
(217,213,o),
(267,133,c)
);
}
);
width = 537;
}
);
note = uni178D;
unicode = 6029;
},
{
glyphname = uni178E;
lastChange = "2024-12-17 00:52:19 +0000";
layers = (
{
guides = (
{
pos = (130,0);
}
);
layerId = m01;
shapes = (
{
closed = 1;
nodes = (
(70,500,l),
(70,430,l),
(195,430,l),
(195,71,l),
(70,71,l),
(70,0,l),
(390,0,l),
(390,71,l),
(265,71,l),
(265,430,l),
(390,430,l),
(390,500,l)
);
}
);
width = 460;
},
{
guides = (
{
pos = (140,0);
}
);
layerId = m002;
shapes = (
{
closed = 1;
nodes = (
(70,500,l),
(70,410,l),
(195,410,l),
(195,91,l),
(70,91,l),
(70,0,l),
(410,0,l),
(410,91,l),
(285,91,l),
(285,410,l),
(410,410,l),
(410,500,l)
);
}
);
width = 480;
}
);
note = uni178E;
unicode = 6030;
},
{
glyphname = uni178F;
lastChange = "2024-12-17 00:52:19 +0000";
layers = (
{
layerId = m01;
shapes = (
{
closed = 1;
nodes = (
(289,202,l),
(429,0,l),
(508,0,l),
(324,272,l),
(324,500,l),
(254,500,l),
(254,272,l),
(70,0,l),
(149,0,l)
);
}
);
width = 578;
},
{
layerId = m002;
shapes = (
{
closed = 1;
nodes = (
(308,194,l),
(443,0,l),
(546,0,l),
(353,285,l),
(353,500,l),
(263,500,l),
(263,285,l),
(70,0,l),
(173,0,l)
);
}
);
width = 616;
}
);
note = uni178F;
unicode = 6031;
},
{
glyphname = uni1790;
lastChange = "2024-12-17 00:52:19 +0000";
layers = (
{
layerId = m01;
shapes = (
{
closed = 1;
nodes = (
(343,200,o),
(365,222,o),
(365,250,cs),
(365,278,o),
(343,300,o),
(315,300,cs),
(287,300,o),
(265,278,o),
(265,250,cs),
(265,222,o),
(287,200,o),
(315,200,cs)
);
},
{
closed = 1;
nodes = (
(630,0,o),
(630,500,o),
(310,500,cs),
(-10,500,o),
(-10,0,o),
(310,0,cs)
);
},
{
closed = 1;
nodes = (
(80,65,o),
(80,435,o),
(310,435,cs),
(540,435,o),
(540,65,o),
(310,65,cs)
);
}
);
width = 620;
},
{
layerId = m002;
shapes = (
{
closed = 1;
nodes = (
(358,190,o),
(385,217,o),
(385,250,cs),
(385,283,o),
(358,310,o),
(325,310,cs),
(292,310,o),
(265,283,o),
(265,250,cs),
(265,217,o),
(292,190,o),
(325,190,cs)
);
},
{
closed = 1;
nodes = (
(653,0,o),
(653,500,o),
(320,500,cs),
(-13,500,o),
(-13,0,o),
(320,0,cs)
);
},
{
closed = 1;
nodes = (
(100,85,o),
(100,415,o),
(320,415,cs),
(540,415,o),
(540,85,o),
(320,85,cs)
);
}
);
width = 640;
}
);
note = uni1790;
unicode = 6032;
},
{
glyphname = uni1791;
lastChange = "2024-12-17 00:52:19 +0000";
layers = (
{
guides = (
{
angle = 90;
pos = (117,427);
}
);
layerId = m01;
shapes = (
{
closed = 1;
nodes = (
(70,300,l),
(465,539,o),
(490,7,o),
(70,191,c),
(70,0,l),
(140,0,l),
(140,104,l),
(557,-43,o),
(543,568,o),
(140,409,c),
(140,500,l),
(70,500,l)
);
}
);
width = 518;
},
{
guides = (
{
angle = 90;
pos = (127,427);
}
);
layerId = m002;
shapes = (
{
closed = 1;
nodes = (
(70,282,l),
(470,538,o),
(495,9,o),
(70,206,c),
(70,0,l),
(160,0,l),
(160,90,l),
(576,-44,o),
(563,569,o),
(160,423,c),
(160,500,l),
(70,500,l)
);
}
);
width = 537;
}
);
note = uni1791;
unicode = 6033;
},
{
glyphname = uni1792;
lastChange = "2024-12-17 00:52:19 +0000";
layers = (
{
layerId = m01;
shapes = (
{
closed = 1;
nodes = (
(603,-70,o),
(630,567,o),
(70,500,c),
(70,0,l)
);
},
{
closed = 1;
nodes = (
(140,430,l),
(517,448,o),
(478,44,o),
(142,70,c)
);
}
);
width = 550;
},
{
layerId = m002;
shapes = (
{
closed = 1;
nodes = (
(629,-79,o),
(657,576,o),
(70,499,c),
(70,1,l)
);
},
{
closed = 1;
nodes = (
(160,410,l),
(512,421,o),
(477,72,o),
(162,89,c)
);
}
);
width = 570;
}
);
note = uni1792;
unicode = 6034;
},
{
glyphname = uni1793;
lastChange = "2024-12-17 00:52:19 +0000";
layers = (
{
layerId = m01;
shapes = (
{
closed = 1;
nodes = (
(195,500,l),
(195,71,l),
(70,71,l),
(70,0,l),
(390,0,l),
(390,71,l),
(265,71,l),
(265,500,l)
);
}
);
width = 460;
},
{
layerId = m002;
shapes = (
{
closed = 1;
nodes = (
(195,500,l),
(195,91,l),
(70,91,l),
(70,0,l),
(410,0,l),
(410,91,l),
(285,91,l),
(285,500,l)
);
}
);
width = 480;
}
);
note = uni1793;
unicode = 6035;
},
{
glyphname = uni1794;
lastChange = "2024-12-17 00:52:19 +0000";
layers = (
{
layerId = m01;
shapes = (
{
closed = 1;
nodes = (
(348,136,l),
(314,51,o),
(189,38,o),
(140,139,c),
(140,500,l),
(70,500,l),
(70,119,l),
(148,-62,o),
(392,-17,o),
(418,133,c),
(418,220,l),
(348,220,l)
);
}
);
width = 488;
},
{
layerId = m002;
shapes = (
{
closed = 1;
nodes = (
(348,148,l),
(316,71,o),
(206,60,o),
(160,151,c),
(160,500,l),
(70,500,l),
(70,127,l),
(151,-66,o),
(411,-18,o),
(438,142,c),
(438,240,l),
(348,240,l)
);
}
);
width = 508;
}
);
note = uni1794;
unicode = 6036;
},
{
glyphname = uni1795;
lastChange = "2024-12-17 00:52:19 +0000";
layers = (
{
layerId = m01;
shapes = (
{
closed = 1;
nodes = (
(117,-42,o),
(461,-58,o),
(462,164,cs),
(462,352,o),
(204,359,o),
(204,208,cs),
(204,145,o),
(278,102,o),
(327,133,c),
(321,168,l),
(286,158,o),
(274,191,o),
(274,208,cs),
(274,263,o),
(392,264,o),
(393,161,cs),
(394,21,o),
(152,58,o),
(140,139,c),
(140,500,l),
(70,500,l),
(70,119,l)
);
}
);
width = 532;
},
{
layerId = m002;
shapes = (
{
closed = 1;
nodes = (
(119,-45,o),
(501,-61,o),
(502,194,cs),
(503,395,o),
(224,402,o),
(224,238,cs),
(224,165,o),
(312,136,o),
(368,178,c),
(359,212,l),
(324,194,o),
(314,221,o),
(314,238,cs),
(314,283,o),
(412,284,o),
(413,191,cs),
(414,43,o),
(172,77,o),
(160,150,c),
(160,500,l),
(70,500,l),
(70,128,l)
);
}
);
width = 572;
}
);
note = uni1795;
unicode = 6037;
},
{
glyphname = uni1796;
lastChange = "2024-12-17 00:52:19 +0000";
layers = (
{
layerId = m01;
shapes = (
{
closed = 1;
nodes = (
(490,0,l),
(490,500,l),
(70,500,l),
(70,0,l)
);
},
{
closed = 1;
nodes = (
(140,430,l),
(420,430,l),
(420,70,l),
(140,70,l)
);
}
);
width = 560;
},
{
layerId = m002;
shapes = (
{
closed = 1;
nodes = (
(510,0,l),
(510,500,l),
(70,500,l),
(70,0,l)
);
},
{
closed = 1;
nodes = (
(160,410,l),
(420,410,l),
(420,90,l),
(160,90,l)
);
}
);
width = 580;
}
);
note = uni1796;
unicode = 6038;
},
{
glyphname = uni1797;
lastChange = "2024-12-17 00:52:19 +0000";
layers = (
{
layerId = m01;
shapes = (
{
closed = 1;
nodes = (
(440,283,l),
(540,283,l),
(540,500,l),
(470,500,l),
(470,353,l),
(70,353,l),
(70,0,l),
(140,0,l),
(140,283,l),
(370,283,l),
(370,0,l),
(440,0,l)
);
}
);
width = 610;
},
{
layerId = m002;
shapes = (
{
closed = 1;
nodes = (
(460,273,l),
(560,273,l),
(560,500,l),
(470,500,l),
(470,363,l),
(70,363,l),
(70,0,l),
(160,0,l),
(160,273,l),
(370,273,l),
(370,0,l),
(460,0,l)
);
}
);
width = 630;
}
);
note = uni1797;
unicode = 6039;
},
{
glyphname = uni1798;
lastChange = "2024-12-17 00:52:19 +0000";
layers = (
{
layerId = m01;
shapes = (
{
closed = 1;
nodes = (
(586,-1,o),
(625,224,o),
(465,303,c),
(536,346,o),
(582,427,o),
(579,500,c),
(509,500,l),
(513,422,o),
(441,331,o),
(325,331,cs),
(208,331,o),
(136,422,o),
(140,500,c),
(70,500,l),
(67,427,o),
(114,346,o),
(184,303,c),
(28,225,o),
(60,-1,o),
(325,-1,cs)
);
},
{
closed = 1;
nodes = (
(95,69,o),
(99,261,o),
(325,261,cs),
(551,261,o),
(551,69,o),
(325,69,cs)
);
}
);
width = 649;
},
{
layerId = m002;
shapes = (
{
closed = 1;
nodes = (
(599,-1,o),
(646,214,o),
(494,304,c),
(563,352,o),
(606,426,o),
(598,500,c),
(508,500,l),
(519,423,o),
(451,341,o),
(335,341,cs),
(218,341,o),
(150,423,o),
(161,500,c),
(71,500,l),
(63,426,o),
(107,352,o),
(175,304,c),
(27,215,o),
(67,-1,o),
(335,-1,cs)
);
},
{
closed = 1;
nodes = (
(115,89,o),
(119,251,o),
(335,251,cs),
(551,251,o),
(551,89,o),
(335,89,cs)
);
}
);
width = 669;
}
);
note = uni1798;
unicode = 6040;
},
{
glyphname = uni1799;
lastChange = "2024-12-17 00:52:19 +0000";
layers = (
{
layerId = m01;
shapes = (
{
closed = 1;
nodes = (
(298,213,ls),
(298,28,o),
(143,18,o),
(143,183,cs),
(143,220,l),
(73,220,l),
(43,-30,o),
(256,-42,o),
(333,55,c),
(403,-37,o),
(611,-40,o),
(593,220,c),
(523,220,l),
(523,183,ls),
(523,28,o),
(368,25,o),
(368,213,cs),
(368,500,l),
(298,500,l)
);
}
);
width = 664;
},
{
layerId = m002;
shapes = (
{
closed = 1;
nodes = (
(298,223,ls),
(298,47,o),
(163,39,o),
(163,193,cs),
(163,240,l),
(74,240,l),
(38,-21,o),
(254,-45,o),
(343,50,c),
(426,-41,o),
(636,-31,o),
(612,240,c),
(523,240,l),
(523,193,ls),
(523,48,o),
(388,45,o),
(388,223,cs),
(388,500,l),
(298,500,l)
);
}
);
width = 684;
}
);
note = uni1799;
unicode = 6041;
},
{
glyphname = uni179A;
lastChange = "2024-12-17 00:52:19 +0000";
layers = (
{
layerId = m01;
shapes = (
{
closed = 1;
nodes = (
(163,35,o),
(183,63,o),
(151,139,c),
(134,173,o),
(137,200,o),
(151,236,cs),
(176,293,o),
(173,325,o),
(152,386,cs),
(138,425,o),
(140,457,o),
(157,500,c),
(88,500,l),
(70,446,o),
(68,413,o),
(86,364,cs),
(103,312,o),
(105,302,o),
(87,264,cs),
(67,215,o),
(63,163,o),
(87,111,cs),
(108,57,o),
(96,35,o),
(81,0,c),
(149,0,l)
);
}
);
width = 239;
},
{
layerId = m002;
shapes = (
{
closed = 1;
nodes = (
(178,36,o),
(205,57,o),
(169,143,c),
(153,175,o),
(156,198,o),
(169,232,cs),
(195,292,o),
(192,327,o),
(170,389,cs),
(156,430,o),
(159,451,o),
(181,500,c),
(90,500,l),
(69,441,o),
(66,414,o),
(86,361,cs),
(102,309,o),
(104,303,o),
(87,268,cs),
(66,217,o),
(62,162,o),
(87,107,cs),
(108,52,o),
(93,45,o),
(75,0,c),
(165,0,l)
);
}
);
width = 258;
}
);
note = uni179A;
unicode = 6042;
},
{
glyphname = uni179B;
lastChange = "2024-12-17 00:52:19 +0000";
layers = (
{
layerId = m01;
shapes = (
{
closed = 1;
nodes = (
(280,248,l),
(70,248,l),
(70,178,l),
(166,178,l),
(166,133,l),
(192,-17,o),
(435,-62,o),
(513,119,c),
(513,500,l),
(443,500,l),
(443,139,l),
(394,38,o),
(270,51,o),
(236,136,c),
(236,178,l),
(280,178,l)
);
}
);
width = 583;
},
{
layerId = m002;
shapes = (
{
closed = 1;
nodes = (
(300,268,l),
(70,268,l),
(70,178,l),
(166,178,l),
(166,142,l),
(193,-18,o),
(452,-66,o),
(533,127,c),
(533,500,l),
(443,500,l),
(443,151,l),
(397,60,o),
(288,71,o),
(256,148,c),
(256,178,l),
(300,178,l)
);
}
);
width = 603;
}
);
note = uni179B;
unicode = 6043;
},
{
glyphname = uni179C;
lastChange = "2024-12-17 00:52:19 +0000";
layers = (
{
layerId = m01;
shapes = (
{
closed = 1;
nodes = (
(304,0,o),
(370,68,o),
(370,150,cs),
(370,219,o),
(324,278,o),
(255,296,c),
(255,500,l),
(185,500,l),
(185,296,l),
(117,278,o),
(70,219,o),
(70,150,cs),
(70,68,o),
(136,0,o),
(220,0,cs)
);
},
{
closed = 1;
nodes = (
(112,70,o),
(112,231,o),
(220,231,cs),
(328,231,o),
(328,70,o),
(220,70,cs)
);
}
);
width = 440;
},
{
layerId = m002;
shapes = (
{
closed = 1;
nodes = (
(319,0,o),
(390,73,o),
(390,160,cs),
(390,231,o),
(344,292,o),
(275,314,c),
(275,500,l),
(185,500,l),
(185,314,l),
(117,292,o),
(70,231,o),
(70,160,cs),
(70,73,o),
(141,0,o),
(230,0,cs)
);
},
{
closed = 1;
nodes = (
(132,90,o),
(132,231,o),
(230,231,cs),
(328,231,o),
(328,90,o),
(230,90,cs)
);
}
);
width = 460;
}
);
note = uni179C;
unicode = 6044;
},
{
glyphname = uni179D;
lastChange = "2024-12-17 00:52:19 +0000";
layers = (
{
layerId = m01;
shapes = (
{
closed = 1;
nodes = (
(146,0,l),
(308,294,l),
(308,0,l),
(378,0,l),
(378,294,l),
(540,0,l),
(616,0,l),
(343,500,l),
(70,0,l)
);
}
);
width = 686;
},
{
layerId = m002;
shapes = (
{
closed = 1;
nodes = (
(169,0,l),
(355,265,l),
(355,0,l),
(445,0,l),
(445,265,l),
(631,0,l),
(730,0,l),
(400,501,l),
(70,0,l)
);
}
);
width = 800;
}
);
note = uni179D;
unicode = 6045;
},
{
glyphname = uni179E;
lastChange = "2024-12-17 00:52:19 +0000";
layers = (
{
layerId = m01;
shapes = (
{
closed = 1;
nodes = (
(348,136,l),
(314,51,o),
(190,38,o),
(141,139,c),
(141,267,l),
(325,345,l),
(297,409,l),
(141,344,l),
(141,500,l),
(71,500,l),
(70,119,l),
(148,-62,o),
(392,-17,o),
(418,133,c),
(418,220,l),
(348,220,l)
);
}
);
width = 488;
},
{
layerId = m002;
shapes = (
{
closed = 1;
nodes = (
(348,148,l),
(316,71,o),
(207,60,o),
(161,151,c),
(161,260,l),
(348,340,l),
(312,412,l),
(161,349,l),
(161,500,l),
(71,500,l),
(70,127,l),
(151,-66,o),
(411,-18,o),
(438,142,c),
(438,230,l),
(348,230,l)
);
}
);
width = 508;
}
);
note = uni179E;
unicode = 6046;
},
{
glyphname = uni179F;
lastChange = "2024-12-17 00:52:19 +0000";
layers = (
{
layerId = m01;
shapes = (
{
closed = 1;
nodes = (
(575,210,l),
(575,136,l),
(541,51,o),
(415,38,o),
(368,139,c),
(368,500,l),
(298,500,l),
(297,291,l),
(210,324,o),
(70,299,o),
(70,174,cs),
(70,0,l),
(140,0,l),
(140,174,ls),
(140,268,o),
(297,234,o),
(297,212,cs),
(297,203,l),
(297,119,l),
(375,-62,o),
(619,-17,o),
(645,133,c),
(645,210,l)
);
}
);
width = 715;
},
{
layerId = m002;
shapes = (
{
closed = 1;
nodes = (
(575,230,l),
(575,148,l),
(543,71,o),
(432,60,o),
(388,151,c),
(388,500,l),
(298,500,l),
(297,315,l),
(205,342,o),
(70,311,o),
(70,184,cs),
(70,0,l),
(160,0,l),
(160,184,ls),
(160,266,o),
(297,236,o),
(297,222,cs),
(297,213,l),
(297,127,l),
(378,-66,o),
(638,-18,o),
(665,142,c),
(665,230,l)
);
}
);
width = 735;
}
);
note = uni179F;
unicode = 6047;
},
{
glyphname = uni17A0;
lastChange = "2024-12-17 00:52:19 +0000";
layers = (
{
layerId = m01;
shapes = (
{
closed = 1;
nodes = (
(347,178,l),
(347,136,l),
(313,51,o),
(189,38,o),
(140,139,c),
(140,500,l),
(70,500,l),
(70,119,l),
(148,-62,o),
(391,-17,o),
(417,133,c),
(417,178,l),
(513,178,l),
(513,248,l),
(303,248,l),
(303,178,l)
);
}
);
width = 583;
},
{
layerId = m002;
shapes = (
{
closed = 1;
nodes = (
(347,178,l),
(347,148,l),
(315,71,o),
(206,60,o),
(160,151,c),
(160,500,l),
(70,500,l),
(70,127,l),
(151,-66,o),
(410,-18,o),
(437,142,c),
(437,178,l),
(533,178,l),
(533,268,l),
(303,268,l),
(303,178,l)
);
}
);
width = 603;
}
);
note = uni17A0;
unicode = 6048;
},
{
glyphname = uni17A1;
lastChange = "2024-12-17 00:52:19 +0000";
layers = (
{
layerId = m01;
shapes = (
{
closed = 1;
nodes = (
(260,228,l),
(70,228,l),
(70,158,l),
(166,158,l),
(166,133,l),
(192,-17,o),
(436,-62,o),
(514,119,c),
(514,183,l),
(514,212,ls),
(514,250,o),
(671,278,o),
(671,174,cs),
(671,0,l),
(741,0,l),
(741,174,ls),
(741,298,o),
(598,350,o),
(514,296,c),
(513,500,l),
(443,500,l),
(443,139,l),
(396,38,o),
(270,51,o),
(236,136,c),
(236,158,l),
(260,158,l)
);
}
);
width = 811;
},
{
layerId = m002;
shapes = (
{
closed = 1;
nodes = (
(280,248,l),
(70,248,l),
(70,158,l),
(166,158,l),
(166,142,l),
(193,-18,o),
(453,-66,o),
(534,127,c),
(534,193,l),
(534,222,ls),
(534,252,o),
(671,276,o),
(671,184,cs),
(671,0,l),
(761,0,l),
(761,184,ls),
(761,310,o),
(625,366,o),
(534,323,c),
(533,500,l),
(443,500,l),
(443,151,l),
(399,60,o),
(288,71,o),
(256,148,c),
(256,158,l),
(280,158,l)
);
}
);
width = 831;
}
);
note = uni17A1;
unicode = 6049;
},
{
glyphname = uni17A2;
lastChange = "2024-12-17 00:52:19 +0000";
layers = (
{
layerId = m01;
shapes = (
{
closed = 1;
nodes = (
(103,500,l),
(49,391,o),
(84,303,o),
(182,270,c),
(69,222,o),
(45,123,o),
(95,0,c),
(165,0,l),
(102,133,o),
(203,289,o),
(340,199,c),
(340,0,l),
(410,0,l),
(410,500,l),
(340,500,l),
(340,314,l),
(293,281,o),
(81,332,o),
(183,500,c)
);
}
);
width = 480;
},
{
layerId = m002;
shapes = (
{
closed = 1;
nodes = (
(107,500,l),
(51,392,o),
(78,310,o),
(167,269,c),
(65,215,o),
(47,122,o),
(98,0,c),
(191,0,l),
(117,130,o),
(209,275,o),
(340,194,c),
(340,0,l),
(430,0,l),
(430,500,l),
(340,500,l),
(340,320,l),
(288,294,o),
(98,336,o),
(211,500,c)
);
}
);
width = 500;
}
);
note = uni17A2;
unicode = 6050;
},
{
glyphname = uni17A3;
lastChange = "2024-12-17 00:52:19 +0000";
layers = (
{
layerId = m01;
shapes = (
{
closed = 1;
nodes = (
(103,500,l),
(49,391,o),
(84,303,o),
(182,270,c),
(69,222,o),
(45,123,o),
(95,0,c),
(165,0,l),
(102,133,o),
(203,289,o),
(340,199,c),
(340,0,l),
(410,0,l),
(410,500,l),
(340,500,l),
(340,314,l),
(293,281,o),
(81,332,o),
(183,500,c)
);
}
);
width = 480;
},
{
layerId = m002;
shapes = (
{
closed = 1;
nodes = (
(107,500,l),
(51,392,o),
(78,310,o),
(167,269,c),
(65,215,o),
(47,122,o),
(98,0,c),
(191,0,l),
(117,130,o),
(209,275,o),
(340,194,c),
(340,0,l),
(430,0,l),
(430,500,l),
(340,500,l),
(340,320,l),
(288,294,o),
(98,336,o),
(211,500,c)
);
}
);
width = 500;
}
);
note = uni17A3;
unicode = 6051;
},
{
glyphname = uni17A4;
lastChange = "2024-12-17 00:52:19 +0000";
layers = (
{
layerId = m01;
shapes = (
{
closed = 1;
nodes = (
(165,0,l),
(102,133,o),
(203,289,o),
(340,199,c),
(340,0,l),
(410,0,l),
(410,500,l),
(340,500,l),
(340,314,l),
(293,281,o),
(81,332,o),
(183,500,c),
(103,500,l),
(49,391,o),
(84,303,o),
(182,270,c),
(69,222,o),
(45,123,o),
(95,0,c)
);
},
{
closed = 1;
nodes = (
(679,226,l),
(679,296,l),
(409,296,l),
(409,226,l)
);
}
);
width = 749;
},
{
layerId = m002;
shapes = (
{
closed = 1;
nodes = (
(191,0,l),
(117,130,o),
(209,275,o),
(340,194,c),
(340,0,l),
(430,0,l),
(430,500,l),
(340,500,l),
(340,320,l),
(288,294,o),
(98,336,o),
(211,500,c),
(107,500,l),
(51,392,o),
(78,310,o),
(167,269,c),
(65,215,o),
(47,122,o),
(98,0,c)
);
},
{
closed = 1;
nodes = (
(699,216,l),
(699,306,l),
(409,306,l),
(409,216,l)
);
}
);
width = 769;
}
);
note = uni17A4;
unicode = 6052;
},
{
glyphname = uni17A5;
lastChange = "2024-12-17 00:52:19 +0000";
layers = (
{
layerId = m01;
shapes = (
{
closed = 1;
nodes = (
(163,380,o),
(190,407,o),
(190,440,cs),
(190,473,o),
(163,500,o),
(130,500,cs),
(97,500,o),
(70,473,o),
(70,440,cs),
(70,407,o),
(97,380,o),
(130,380,cs)
);
},
{
closed = 1;
nodes = (
(163,0,o),
(190,27,o),
(190,60,cs),
(190,93,o),
(163,120,o),
(130,120,cs),
(97,120,o),
(70,93,o),
(70,60,cs),
(70,27,o),
(97,0,o),
(130,0,cs)
);
},
{
closed = 1;
nodes = (
(463,190,o),
(490,217,o),
(490,250,cs),
(490,283,o),
(463,310,o),
(430,310,cs),
(397,310,o),
(370,283,o),
(370,250,cs),
(370,217,o),
(397,190,o),
(430,190,cs)
);
}
);
width = 560;
},
{
layerId = m002;
shapes = (
{
closed = 1;
nodes = (
(178,370,o),
(210,402,o),
(210,440,cs),
(210,478,o),
(178,510,o),
(140,510,cs),
(102,510,o),
(70,478,o),
(70,440,cs),
(70,402,o),
(102,370,o),
(140,370,cs)
);
},
{
closed = 1;
nodes = (
(178,-10,o),
(210,22,o),
(210,60,cs),
(210,98,o),
(178,130,o),
(140,130,cs),
(102,130,o),
(70,98,o),
(70,60,cs),
(70,22,o),
(102,-10,o),
(140,-10,cs)
);
},
{
closed = 1;
nodes = (
(478,180,o),
(510,212,o),
(510,250,cs),
(510,288,o),
(478,320,o),
(440,320,cs),
(402,320,o),
(370,288,o),
(370,250,cs),
(370,212,o),
(402,180,o),
(440,180,cs)
);
}
);
width = 580;
}
);
note = uni17A5;
unicode = 6053;
},
{
glyphname = uni17A6;
lastChange = "2024-12-17 00:52:19 +0000";
layers = (
{
layerId = m01;
shapes = (
{
closed = 1;
nodes = (
(315,0,l),
(315,500,l),
(245,500,l),
(245,0,l)
);
},
{
closed = 1;
nodes = (
(163,190,o),
(190,217,o),
(190,250,cs),
(190,283,o),
(163,310,o),
(130,310,cs),
(97,310,o),
(70,283,o),
(70,250,cs),
(70,217,o),
(97,190,o),
(130,190,cs)
);
},
{
closed = 1;
nodes = (
(463,190,o),
(490,217,o),
(490,250,cs),
(490,283,o),
(463,310,o),
(430,310,cs),
(397,310,o),
(370,283,o),
(370,250,cs),
(370,217,o),
(397,190,o),
(430,190,cs)
);
}
);
width = 560;
},
{
layerId = m002;
shapes = (
{
closed = 1;
nodes = (
(375,0,l),
(375,500,l),
(285,500,l),
(285,0,l)
);
},
{
closed = 1;
nodes = (
(178,180,o),
(210,212,o),
(210,250,cs),
(210,288,o),
(178,320,o),
(140,320,cs),
(102,320,o),
(70,288,o),
(70,250,cs),
(70,212,o),
(102,180,o),
(140,180,cs)
);
},
{
closed = 1;
nodes = (
(558,180,o),
(590,212,o),
(590,250,cs),
(590,288,o),
(558,320,o),
(520,320,cs),
(482,320,o),
(450,288,o),
(450,250,cs),
(450,212,o),
(482,180,o),
(520,180,cs)
);
}
);
width = 660;
}
);
note = uni17A6;
unicode = 6054;
},
{
glyphname = uni17A7;
lastChange = "2024-12-17 00:52:19 +0000";
layers = (
{
layerId = m01;
shapes = (
{
closed = 1;
nodes = (
(355,0,l),
(355,70,l),
(140,70,l),
(140,500,l),
(70,500,l),
(70,0,l)
);
}
);
width = 425;
},
{
layerId = m002;
shapes = (
{
closed = 1;
nodes = (
(375,0,l),
(375,90,l),
(160,90,l),
(160,500,l),
(70,500,l),
(70,0,l)
);
}
);
width = 445;
}
);
note = uni17A7;
unicode = 6055;
},
{
glyphname = uni17A8;
lastChange = "2024-12-17 00:52:19 +0000";
layers = (
{
layerId = m01;
shapes = (
{
closed = 1;
nodes = (
(570,0,l),
(570,70,l),
(355,70,l),
(355,500,l),
(70,500,l),
(70,430,l),
(285,430,l),
(285,0,l)
);
},
{
closed = 1;
nodes = (
(427,767,o),
(197,759,o),
(150,594,c),
(216,572,l),
(246,683,o),
(379,688,o),
(411,572,c),
(477,594,l)
);
}
);
width = 640;
},
{
layerId = m002;
shapes = (
{
closed = 1;
nodes = (
(590,0,l),
(590,90,l),
(375,90,l),
(375,500,l),
(70,500,l),
(70,410,l),
(285,410,l),
(285,0,l)
);
},
{
closed = 1;
nodes = (
(451,813,o),
(192,804,o),
(148,617,c),
(233,589,l),
(257,706,o),
(388,712,o),
(414,589,c),
(499,617,l)
);
}
);
width = 660;
}
);
note = uni17A8;
unicode = 6056;
},
{
glyphname = uni17A9;
lastChange = "2024-12-17 00:52:19 +0000";
layers = (
{
layerId = m01;
shapes = (
{
closed = 1;
nodes = (
(355,0,l),
(355,70,l),
(140,70,l),
(140,165,l),
(322,165,l),
(322,235,l),
(140,235,l),
(140,500,l),
(70,500,l),
(70,0,l)
);
}
);
width = 425;
},
{
layerId = m002;
shapes = (
{
closed = 1;
nodes = (
(375,0,l),
(375,90,l),
(160,90,l),
(160,195,l),
(342,195,l),
(342,285,l),
(160,285,l),
(160,500,l),
(70,500,l),
(70,0,l)
);
}
);
width = 445;
}
);
note = uni17A9;
unicode = 6057;
},
{
glyphname = uni17AA;
lastChange = "2024-12-17 00:52:19 +0000";
layers = (
{
layerId = m01;
shapes = (
{
closed = 1;
nodes = (
(570,0,l),
(570,70,l),
(355,70,l),
(355,500,l),
(70,500,l),
(70,430,l),
(285,430,l),
(285,0,l)
);
},
{
closed = 1;
nodes = (
(298,601,l),
(266,623,o),
(255,645,o),
(273,668,cs),
(286,684,o),
(301,687,o),
(317,682,cs),
(358,669,o),
(410,612,o),
(463,606,cs),
(583,591,o),
(590,736,o),
(497,800,c),
(425,800,l),
(507,753,o),
(511,700,o),
(495,675,cs),
(462,622,o),
(394,740,o),
(314,744,cs),
(282,746,o),
(249,735,o),
(217,701,cs),
(188,671,o),
(199,593,o),
(249,556,c)
);
}
);
width = 640;
},
{
layerId = m002;
shapes = (
{
closed = 1;
nodes = (
(590,0,l),
(590,90,l),
(375,90,l),
(375,500,l),
(70,500,l),
(70,410,l),
(285,410,l),
(285,0,l)
);
},
{
closed = 1;
nodes = (
(314,582,l),
(276,607,o),
(275,642,o),
(291,662,cs),
(301,675,o),
(310,677,o),
(324,672,cs),
(379,655,o),
(414,603,o),
(472,596,cs),
(604,580,o),
(614,741,o),
(510,810,c),
(435,810,l),
(507,747,o),
(511,703,o),
(497,680,cs),
(476,647,o),
(372,752,o),
(325,754,cs),
(290,756,o),
(254,744,o),
(220,708,cs),
(185,672,o),
(199,581,o),
(260,543,c)
);
}
);
width = 660;
}
);
note = uni17AA;
unicode = 6058;
},
{
glyphname = uni17AB;
lastChange = "2024-12-17 00:52:19 +0000";
layers = (
{
layerId = m01;
shapes = (
{
closed = 1;
nodes = (
(448,0,l),
(302,253,l),
(450,500,l),
(369,500,l),
(261,324,l),
(157,500,l),
(76,500,l),
(220,253,l),
(70,0,l),
(151,0,l),
(261,182,l),
(368,0,l)
);
}
);
width = 520;
},
{
layerId = m002;
shapes = (
{
closed = 1;
nodes = (
(483,0,l),
(332,253,l),
(486,500,l),
(381,500,l),
(279,343,l),
(181,500,l),
(77,500,l),
(226,253,l),
(70,0,l),
(175,0,l),
(279,162,l),
(380,0,l)
);
}
);
width = 556;
}
);
note = uni17AB;
unicode = 6059;
},
{
glyphname = uni17AC;
lastChange = "2024-12-17 00:52:19 +0000";
layers = (
{
layerId = m01;
shapes = (
{
closed = 1;
nodes = (
(406,0,ls),
(436,0,o),
(480,54,o),
(491,66,cs),
(604,196,l),
(523,196,l),
(473,141,ls),
(410,71,o),
(414,73,o),
(363,155,cs),
(302,253,l),
(450,500,l),
(369,500,l),
(261,324,l),
(157,500,l),
(76,500,l),
(220,253,l),
(70,0,l),
(151,0,l),
(261,182,l),
(347,37,ls),
(364,8,o),
(382,0,o),
(403,0,cs)
);
}
);
width = 674;
},
{
layerId = m002;
shapes = (
{
closed = 1;
nodes = (
(424,0,ls),
(459,0,o),
(505,57,o),
(516,69,cs),
(644,216,l),
(537,216,l),
(484,158,ls),
(432,102,o),
(435,103,o),
(389,170,cs),
(332,253,l),
(486,500,l),
(381,500,l),
(279,343,l),
(181,500,l),
(77,500,l),
(226,253,l),
(70,0,l),
(175,0,l),
(279,173,l),
(356,42,ls),
(375,10,o),
(397,0,o),
(421,0,cs)
);
}
);
width = 714;
}
);
note = uni17AC;
unicode = 6060;
},
{
glyphname = uni17AD;
lastChange = "2024-12-17 00:52:19 +0000";
layers = (
{
guides = (
{
pos = (25,217);
}
);
layerId = m01;
shapes = (
{
closed = 1;
nodes = (
(75,311,l),
(105,395,o),
(207,469,o),
(253,414,cs),
(303,353,o),
(228,283,o),
(167,215,cs),
(-25,0,o),
(334,-116,o),
(361,164,c),
(301,164,l),
(308,8,o),
(78,32,o),
(241,197,c),
(255,219,o),
(394,354,o),
(318,445,cs),
(254,522,o),
(141,522,o),
(70,417,c)
);
}
);
width = 431;
},
{
guides = (
{
pos = (35,217);
}
);
layerId = m002;
shapes = (
{
closed = 1;
nodes = (
(75,301,l),
(123,379,o),
(235,445,o),
(275,398,cs),
(319,344,o),
(232,289,o),
(170,222,cs),
(-37,1,o),
(412,-128,o),
(432,184,c),
(350,184,l),
(367,28,o),
(105,46,o),
(259,191,c),
(269,209,o),
(439,342,o),
(356,441,cs),
(287,524,o),
(145,523,o),
(70,410,c)
);
}
);
width = 502;
}
);
note = uni17AD;
unicode = 6061;
},
{
glyphname = uni17AE;
lastChange = "2024-12-17 00:52:19 +0000";
layers = (
{
layerId = m01;
shapes = (
{
closed = 1;
nodes = (
(308,8,o),
(78,32,o),
(241,197,c),
(255,219,o),
(394,354,o),
(318,445,cs),
(254,522,o),
(141,522,o),
(70,417,c),
(75,311,l),
(105,395,o),
(207,469,o),
(253,414,cs),
(303,353,o),
(228,283,o),
(167,215,cs),
(-25,0,o),
(334,-116,o),
(361,164,c),
(301,164,l)
);
},
{
closed = 1;
nodes = (
(400,269,l),
(318,323,l),
(280,264,l),
(361,210,l)
);
}
);
width = 470;
},
{
layerId = m002;
shapes = (
{
closed = 1;
nodes = (
(367,28,o),
(105,46,o),
(259,191,c),
(269,209,o),
(439,342,o),
(356,441,cs),
(287,524,o),
(145,523,o),
(70,410,c),
(75,301,l),
(123,379,o),
(235,445,o),
(275,398,cs),
(319,344,o),
(232,289,o),
(170,222,cs),
(-37,1,o),
(412,-128,o),
(432,174,c),
(350,174,l)
);
},
{
closed = 1;
nodes = (
(444,282,l),
(345,347,l),
(306,291,l),
(404,226,l)
);
}
);
width = 514;
}
);
note = uni17AE;
unicode = 6062;
},
{
glyphname = uni17AF;
lastChange = "2024-12-17 00:52:19 +0000";
layers = (
{
layerId = m01;
shapes = (
{
closed = 1;
nodes = (
(70,1,l),
(541,1,l),
(306,500,l)
);
},
{
closed = 1;
nodes = (
(438,69,l),
(173,69,l),
(306,332,l)
);
}
);
width = 611;
},
{
layerId = m002;
shapes = (
{
closed = 1;
nodes = (
(70,1,l),
(633,1,l),
(352,503,l)
);
},
{
closed = 1;
nodes = (
(498,89,l),
(215,89,l),
(352,330,l)
);
}
);
width = 703;
}
);
note = uni17AF;
unicode = 6063;
},
{
glyphname = uni17B0;
lastChange = "2024-12-17 00:52:19 +0000";
layers = (
{
layerId = m01;
shapes = (
{
closed = 1;
nodes = (
(574,1,l),
(339,500,l),
(103,1,l)
);
},
{
closed = 1;
nodes = (
(339,332,l),
(471,69,l),
(206,69,l)
);
},
{
closed = 1;
nodes = (
(340,430,l),
(340,500,l),
(70,500,l),
(70,430,l)
);
}
);
width = 644;
},
{
layerId = m002;
shapes = (
{
closed = 1;
nodes = (
(637,1,l),
(356,503,l),
(74,1,l)
);
},
{
closed = 1;
nodes = (
(356,330,l),
(502,89,l),
(219,89,l)
);
},
{
closed = 1;
nodes = (
(360,410,l),
(360,500,l),
(70,500,l),
(70,410,l)
);
}
);
width = 707;
}
);
note = uni17B0;
unicode = 6064;
},
{
glyphname = uni17B1;
lastChange = "2024-12-17 00:52:19 +0000";
layers = (
{
layerId = m01;
shapes = (
{
closed = 1;
nodes = (
(570,0,l),
(570,70,l),
(355,70,l),
(355,500,l),
(70,500,l),
(70,430,l),
(285,430,l),
(285,0,l)
);
}
);
width = 640;
},
{
layerId = m002;
shapes = (
{
closed = 1;
nodes = (
(590,0,l),
(590,90,l),
(375,90,l),
(375,500,l),
(70,500,l),
(70,410,l),
(285,410,l),
(285,0,l)
);
}
);
width = 660;
}
);
note = uni17B1;
unicode = 6065;
},
{
glyphname = uni17B2;
lastChange = "2024-12-17 00:52:19 +0000";
layers = (
{
layerId = m01;
shapes = (
{
closed = 1;
nodes = (
(570,0,l),
(570,70,l),
(355,70,l),
(355,500,l),
(70,500,l),
(70,430,l),
(285,430,l),
(285,0,l)
);
},
{
closed = 1;
nodes = (
(230,604,o),
(262,645,o),
(312,647,cs),
(331,648,o),
(360,633,o),
(372,604,c),
(422,617,l),
(421,695,o),
(356,725,o),
(314,725,cs),
(247,725,o),
(148,669,o),
(194,516,c),
(244,516,l)
);
}
);
width = 640;
},
{
layerId = m002;
shapes = (
{
closed = 1;
nodes = (
(590,0,l),
(590,90,l),
(375,90,l),
(375,500,l),
(70,500,l),
(70,410,l),
(285,410,l),
(285,0,l)
);
},
{
closed = 1;
nodes = (
(248,588,o),
(275,625,o),
(322,627,cs),
(340,628,o),
(367,613,o),
(376,582,c),
(442,599,l),
(445,690,o),
(371,725,o),
(324,725,cs),
(251,725,o),
(143,662,o),
(197,496,c),
(266,496,l)
);
}
);
width = 660;
}
);
note = uni17B2;
unicode = 6066;
},
{
glyphname = uni17B3;
lastChange = "2024-12-17 00:52:19 +0000";
layers = (
{
layerId = m01;
shapes = (
{
closed = 1;
nodes = (
(570,0,l),
(570,70,l),
(355,70,l),
(355,126,l),
(536,126,l),
(536,196,l),
(355,196,l),
(355,500,l),
(70,500,l),
(70,430,l),
(285,430,l),
(285,0,l)
);
}
);
width = 640;
},
{
layerId = m002;
shapes = (
{
closed = 1;
nodes = (
(590,0,l),
(590,90,l),
(375,90,l),
(375,176,l),
(556,176,l),
(556,266,l),
(375,266,l),
(375,500,l),
(70,500,l),
(70,410,l),
(285,410,l),
(285,0,l)
);
}
);
width = 660;
}
);
note = uni17B3;
unicode = 6067;
},
{
glyphname = k.empty.1;
lastChange = "2024-12-17 00:52:19 +0000";
layers = (
{
layerId = m01;
shapes = (
{
closed = 1;
nodes = (
(429,628,l),
(471,636,o),
(515,636,o),
(559,629,c),
(566,673,l),
(515,680,o),
(467,680,o),
(422,672,c)
);
},
{
closed = 1;
nodes = (
(843,502,l),
(816,541,o),
(781,574,o),
(742,602,c),
(718,565,l),
(754,540,o),
(782,511,o),
(808,477,c)
);
},
{
closed = 1;
nodes = (
(921,187,l),
(928,235,o),
(928,282,o),
(921,326,c),
(877,320,l),
(882,279,o),
(884,238,o),
(879,194,c)
);
},
{
closed = 1;
nodes = (
(755,-92,l),
(794,-63,o),
(827,-26,o),
(854,8,c),
(816,33,l),
(794,-4,o),
(766,-31,o),
(732,-56,c)
);
},
{
closed = 1;
nodes = (
(181,469,l),
(207,504,o),
(235,535,o),
(271,560,c),
(246,596,l),
(207,568,o),
(173,533,o),
(146,492,c)
);
},
{
closed = 1;
nodes = (
(440,-177,l),
(491,-180,o),
(537,-180,o),
(584,-168,c),
(576,-126,l),
(534,-134,o),
(491,-136,o),
(449,-131,c)
);
},
{
closed = 1;
nodes = (
(159,-9,l),
(185,-46,o),
(222,-82,o),
(263,-107,c),
(285,-72,l),
(247,-46,o),
(217,-19,o),
(191,16,c)
);
},
{
closed = 1;
nodes = (
(75,311,l),
(66,264,o),
(70,215,o),
(78,165,c),
(120,177,l),
(112,218,o),
(112,260,o),
(117,308,c)
);
}
);
width = 996;
},
{
layerId = m002;
shapes = (
{
closed = 1;
nodes = (
(429,628,l),
(471,636,o),
(515,636,o),
(559,629,c),
(566,673,l),
(515,680,o),
(467,680,o),
(422,672,c)
);
},
{
closed = 1;
nodes = (
(843,502,l),
(816,541,o),
(781,574,o),
(742,602,c),
(718,565,l),
(754,540,o),
(782,511,o),
(808,477,c)
);
},
{
closed = 1;
nodes = (
(921,187,l),
(928,235,o),
(928,282,o),
(921,326,c),
(877,320,l),
(882,279,o),
(884,238,o),
(879,194,c)
);
},
{
closed = 1;
nodes = (
(755,-92,l),
(794,-63,o),
(827,-26,o),
(854,8,c),
(816,33,l),
(794,-4,o),
(766,-31,o),
(732,-56,c)
);
},
{
closed = 1;
nodes = (
(181,469,l),
(207,504,o),
(235,535,o),
(271,560,c),
(246,596,l),
(207,568,o),
(173,533,o),
(146,492,c)
);
},
{
closed = 1;
nodes = (
(440,-177,l),
(491,-180,o),
(537,-180,o),
(584,-168,c),
(576,-126,l),
(534,-134,o),
(491,-136,o),
(449,-131,c)
);
},
{
closed = 1;
nodes = (
(159,-9,l),
(185,-46,o),
(222,-82,o),
(263,-107,c),
(285,-72,l),
(247,-46,o),
(217,-19,o),
(191,16,c)
);
},
{
closed = 1;
nodes = (
(75,311,l),
(66,264,o),
(70,215,o),
(78,165,c),
(120,177,l),
(112,218,o),
(112,260,o),
(117,308,c)
);
}
);
width = 996;
}
);
note = uni17C1;
},
{
glyphname = k.working;
lastChange = "2024-12-17 00:52:19 +0000";
layers = (
{
layerId = m01;
width = 646;
},
{
layerId = m002;
width = 646;
},
{
associatedMasterId = m002;
layerId = "3E1DD4E3-49CE-43E6-9EAE-9BE8CAD3DDF2";
name = Bold;
shapes = (
{
closed = 1;
nodes = (
(-281,-670,l),
(-281,-446,l),
(-351,-446,l),
(-351,-670,l)
);
},
{
closed = 1;
nodes = (
(-151,-670,l),
(-151,-446,l),
(-221,-446,l),
(-221,-670,l)
);
}
);
width = 750;
}
);
},
{
glyphname = uni17B4;
lastChange = "2024-12-17 00:52:19 +0000";
layers = (
{
layerId = m01;
shapes = (
{
closed = 1;
nodes = (
(282,473,l),
(307,478,o),
(333,478,o),
(359,474,c),
(363,500,l),
(333,504,o),
(305,504,o),
(278,499,c)
);
},
{
closed = 1;
nodes = (
(527,399,l),
(511,422,o),
(490,441,o),
(467,458,c),
(453,436,l),
(474,421,o),
(491,404,o),
(506,384,c)
);
},
{
closed = 1;
nodes = (
(573,213,l),
(577,241,o),
(577,269,o),
(573,295,c),
(547,291,l),
(550,267,o),
(551,243,o),
(548,217,c)
);
},
{
closed = 1;
nodes = (
(475,48,l),
(498,65,o),
(517,87,o),
(533,107,c),
(511,122,l),
(498,100,o),
(481,84,o),
(461,69,c)
);
},
{
closed = 1;
nodes = (
(136,379,l),
(151,400,o),
(168,418,o),
(189,433,c),
(174,454,l),
(151,438,o),
(131,417,o),
(115,393,c)
);
},
{
closed = 1;
nodes = (
(289,-2,l),
(319,-4,o),
(346,-4,o),
(374,3,c),
(369,28,l),
(344,23,o),
(319,22,o),
(294,25,c)
);
},
{
closed = 1;
nodes = (
(123,97,l),
(138,75,o),
(160,54,o),
(184,39,c),
(197,60,l),
(175,75,o),
(157,91,o),
(142,112,c)
);
},
{
closed = 1;
nodes = (
(73,286,l),
(68,258,o),
(70,229,o),
(75,200,c),
(100,207,l),
(95,231,o),
(95,256,o),
(98,284,c)
);
}
);
width = 646;
},
{
layerId = m002;
shapes = (
{
closed = 1;
nodes = (
(282,473,l),
(307,478,o),
(333,478,o),
(359,474,c),
(363,500,l),
(333,504,o),
(305,504,o),
(278,499,c)
);
},
{
closed = 1;
nodes = (
(527,399,l),
(511,422,o),
(490,441,o),
(467,458,c),
(453,436,l),
(474,421,o),
(491,404,o),
(506,384,c)
);
},
{
closed = 1;
nodes = (
(573,213,l),
(577,241,o),
(577,269,o),
(573,295,c),
(547,291,l),
(550,267,o),
(551,243,o),
(548,217,c)
);
},
{
closed = 1;
nodes = (
(475,48,l),
(498,65,o),
(517,87,o),
(533,107,c),
(511,122,l),
(498,100,o),
(481,84,o),
(461,69,c)
);
},
{
closed = 1;
nodes = (
(136,379,l),
(151,400,o),
(168,418,o),
(189,433,c),
(174,454,l),
(151,438,o),
(131,417,o),
(115,393,c)
);
},
{
closed = 1;
nodes = (
(289,-2,l),
(319,-4,o),
(346,-4,o),
(374,3,c),
(369,28,l),
(344,23,o),
(319,22,o),
(294,25,c)
);
},
{
closed = 1;
nodes = (
(123,97,l),
(138,75,o),
(160,54,o),
(184,39,c),
(197,60,l),
(175,75,o),
(157,91,o),
(142,112,c)
);
},
{
closed = 1;
nodes = (
(73,286,l),
(68,258,o),
(70,229,o),
(75,200,c),
(100,207,l),
(95,231,o),
(95,256,o),
(98,284,c)
);
}
);
width = 646;
}
);
note = uni17B4;
unicode = 6068;
},
{
glyphname = uni17B5;
lastChange = "2024-12-17 00:52:19 +0000";
layers = (
{
layerId = m01;
shapes = (
{
closed = 1;
nodes = (
(282,473,l),
(307,478,o),
(333,478,o),
(359,474,c),
(363,500,l),
(333,504,o),
(305,504,o),
(278,499,c)
);
},
{
closed = 1;
nodes = (
(527,399,l),
(511,422,o),
(490,441,o),
(467,458,c),
(453,436,l),
(474,421,o),
(491,404,o),
(506,384,c)
);
},
{
closed = 1;
nodes = (
(573,213,l),
(577,241,o),
(577,269,o),
(573,295,c),
(547,291,l),
(550,267,o),
(551,243,o),
(548,217,c)
);
},
{
closed = 1;
nodes = (
(475,48,l),
(498,65,o),
(517,87,o),
(533,107,c),
(511,122,l),
(498,100,o),
(481,84,o),
(461,69,c)
);
},
{
closed = 1;
nodes = (
(136,379,l),
(151,400,o),
(168,418,o),
(189,433,c),
(174,454,l),
(151,438,o),
(131,417,o),
(115,393,c)
);
},
{
closed = 1;
nodes = (
(289,-2,l),
(319,-4,o),
(346,-4,o),
(374,3,c),
(369,28,l),
(344,23,o),
(319,22,o),
(294,25,c)
);
},
{
closed = 1;
nodes = (
(123,97,l),
(138,75,o),
(160,54,o),
(184,39,c),
(197,60,l),
(175,75,o),
(157,91,o),
(142,112,c)
);
},
{
closed = 1;
nodes = (
(73,286,l),
(68,258,o),
(70,229,o),
(75,200,c),
(100,207,l),
(95,231,o),
(95,256,o),
(98,284,c)
);
}
);
width = 646;
},
{
layerId = m002;
shapes = (
{
closed = 1;
nodes = (
(282,473,l),
(307,478,o),
(333,478,o),
(359,474,c),
(363,500,l),
(333,504,o),
(305,504,o),
(278,499,c)
);
},
{
closed = 1;
nodes = (
(527,399,l),
(511,422,o),
(490,441,o),
(467,458,c),
(453,436,l),
(474,421,o),
(491,404,o),
(506,384,c)
);
},
{
closed = 1;
nodes = (
(573,213,l),
(577,241,o),
(577,269,o),
(573,295,c),
(547,291,l),
(550,267,o),
(551,243,o),
(548,217,c)
);
},
{
closed = 1;
nodes = (
(475,48,l),
(498,65,o),
(517,87,o),
(533,107,c),
(511,122,l),
(498,100,o),
(481,84,o),
(461,69,c)
);
},
{
closed = 1;
nodes = (
(136,379,l),
(151,400,o),
(168,418,o),
(189,433,c),
(174,454,l),
(151,438,o),
(131,417,o),
(115,393,c)
);
},
{
closed = 1;
nodes = (
(289,-2,l),
(319,-4,o),
(346,-4,o),
(374,3,c),
(369,28,l),
(344,23,o),
(319,22,o),
(294,25,c)
);
},
{
closed = 1;
nodes = (
(123,97,l),
(138,75,o),
(160,54,o),
(184,39,c),
(197,60,l),
(175,75,o),
(157,91,o),
(142,112,c)
);
},
{
closed = 1;
nodes = (
(73,286,l),
(68,258,o),
(70,229,o),
(75,200,c),
(100,207,l),
(95,231,o),
(95,256,o),
(98,284,c)
);
}
);
width = 646;
}
);
note = uni17B5;
unicode = 6069;
},
{
glyphname = uni17B6;
lastChange = "2024-12-17 01:22:24 +0000";
layers = (
{
layerId = m01;
shapes = (
{
closed = 1;
nodes = (
(-120,636,l),
(-120,566,l),
(150,566,l),
(150,636,l)
);
}
);
width = 220;
},
{
layerId = m002;
shapes = (
{
closed = 1;
nodes = (
(-120,646,l),
(-120,566,l),
(160,566,l),
(160,646,l)
);
}
);
width = 230;
}
);
unicode = 6070;
},
{
glyphname = uni17B7;
lastChange = "2024-12-17 01:22:24 +0000";
layers = (
{
layerId = m01;
shapes = (
{
closed = 1;
nodes = (
(140,790,l),
(70,790,l),
(70,636,l),
(-190,636,l),
(-190,566,l),
(140,566,l)
);
}
);
width = 210;
},
{
layerId = m002;
shapes = (
{
closed = 1;
nodes = (
(140,800,l),
(60,800,l),
(60,646,l),
(-200,646,l),
(-200,566,l),
(140,566,l)
);
}
);
width = 210;
}
);
note = uni17B7;
unicode = 6071;
},
{
glyphname = uni17B8;
lastChange = "2024-12-17 01:22:24 +0000";
layers = (
{
layerId = m01;
shapes = (
{
closed = 1;
nodes = (
(140,790,l),
(70,790,l),
(70,636,l),
(-20,636,l),
(-20,790,l),
(-90,790,l),
(-90,636,l),
(-270,636,l),
(-270,566,l),
(140,566,l)
);
}
);
width = 210;
},
{
layerId = m002;
shapes = (
{
closed = 1;
nodes = (
(140,800,l),
(60,800,l),
(60,646,l),
(-20,646,l),
(-20,800,l),
(-100,800,l),
(-100,646,l),
(-280,646,l),
(-280,566,l),
(140,566,l)
);
}
);
width = 210;
}
);
note = uni17B8;
unicode = 6072;
},
{
glyphname = uni17B9;
lastChange = "2024-12-17 01:22:24 +0000";
layers = (
{
layerId = m01;
shapes = (
{
closed = 1;
nodes = (
(139,567,ls),
(214,567,o),
(284,605,o),
(284,682,cs),
(284,746,o),
(231,799,o),
(166,799,cs),
(100,799,o),
(49,746,o),
(49,682,cs),
(49,666,o),
(52,651,o),
(58,637,c),
(-160,637,l),
(-160,567,l)
);
},
{
closed = 1;
nodes = (
(104,637,o),
(109,727,o),
(166,727,cs),
(226,727,o),
(228,637,o),
(166,637,cs)
);
}
);
width = 284;
},
{
layerId = m002;
shapes = (
{
closed = 1;
nodes = (
(139,562,ls),
(216,562,o),
(289,602,o),
(289,682,cs),
(289,749,o),
(234,804,o),
(166,804,cs),
(97,804,o),
(44,749,o),
(44,682,cs),
(44,668,o),
(46,655,o),
(51,642,c),
(-165,642,l),
(-165,562,l)
);
},
{
closed = 1;
nodes = (
(109,642,o),
(114,722,o),
(166,722,cs),
(221,722,o),
(223,642,o),
(166,642,cs)
);
}
);
width = 289;
}
);
note = uni17B9;
unicode = 6073;
},
{
glyphname = uni17BA;
lastChange = "2024-12-17 01:22:24 +0000";
layers = (
{
layerId = m01;
shapes = (
{
closed = 1;
nodes = (
(290,566,l),
(290,790,l),
(220,790,l),
(220,636,l),
(143,636,l),
(149,650,o),
(152,666,o),
(152,682,cs),
(152,746,o),
(99,799,o),
(34,799,cs),
(-32,799,o),
(-83,746,o),
(-83,682,cs),
(-83,666,o),
(-80,650,o),
(-74,636,c),
(-160,636,l),
(-160,566,l)
);
},
{
closed = 1;
nodes = (
(-26,636,o),
(-26,727,o),
(34,727,cs),
(94,727,o),
(94,636,o),
(34,636,cs)
);
}
);
width = 290;
},
{
layerId = m002;
shapes = (
{
closed = 1;
nodes = (
(295,561,l),
(295,795,l),
(215,795,l),
(215,641,l),
(150,641,l),
(155,654,o),
(157,668,o),
(157,682,cs),
(157,749,o),
(102,804,o),
(34,804,cs),
(-35,804,o),
(-88,749,o),
(-88,682,cs),
(-88,668,o),
(-86,654,o),
(-81,641,c),
(-165,641,l),
(-165,561,l)
);
},
{
closed = 1;
nodes = (
(-21,641,o),
(-21,722,o),
(34,722,cs),
(89,722,o),
(89,641,o),
(34,641,cs)
);
}
);
width = 295;
}
);
note = uni17BA;
unicode = 6074;
},
{
glyphname = uni17BB;
lastChange = "2024-12-17 01:22:35 +0000";
layers = (
{
layerId = m01;
shapes = (
{
closed = 1;
nodes = (
(224,-86,l),
(224,-16,l),
(-60,-16,l),
(-60,-86,l)
);
}
);
width = 224;
},
{
layerId = m002;
shapes = (
{
closed = 1;
nodes = (
(229,-91,l),
(229,-11,l),
(-65,-11,l),
(-65,-91,l)
);
}
);
width = 229;
}
);
note = uni17BB;
unicode = 6075;
},
{
glyphname = uni17BC;
lastChange = "2024-12-17 01:22:35 +0000";
layers = (
{
layerId = m01;
shapes = (
{
closed = 1;
nodes = (
(224,-86,l),
(224,-16,l),
(-60,-16,l),
(-60,-86,l)
);
},
{
closed = 1;
nodes = (
(224,-216,l),
(224,-146,l),
(-60,-146,l),
(-60,-216,l)
);
}
);
width = 224;
},
{
layerId = m002;
shapes = (
{
closed = 1;
nodes = (
(229,-91,l),
(229,-11,l),
(-65,-11,l),
(-65,-91,l)
);
},
{
closed = 1;
nodes = (
(229,-221,l),
(229,-141,l),
(-65,-141,l),
(-65,-221,l)
);
}
);
width = 229;
}
);
note = uni17BC;
unicode = 6076;
},
{
glyphname = uni17BD;
lastChange = "2024-12-17 01:22:35 +0000";
layers = (
{
layerId = m01;
shapes = (
{
closed = 1;
nodes = (
(-193,-394,o),
(-137,-334,o),
(-137,-266,cs),
(-137,-210,o),
(-171,-162,o),
(-230,-142,c),
(-237,-31,l),
(-303,-31,l),
(-310,-142,l),
(-369,-162,o),
(-403,-210,o),
(-403,-266,cs),
(-403,-334,o),
(-347,-394,o),
(-270,-394,cs)
);
},
{
closed = 1;
nodes = (
(-363,-337,o),
(-363,-192,o),
(-270,-192,cs),
(-177,-192,o),
(-177,-337,o),
(-270,-337,cs)
);
}
);
width = 0;
},
{
layerId = m002;
shapes = (
{
closed = 1;
nodes = (
(-190,-399,o),
(-132,-337,o),
(-132,-266,cs),
(-132,-209,o),
(-166,-160,o),
(-225,-138,c),
(-232,-26,l),
(-308,-26,l),
(-315,-138,l),
(-374,-160,o),
(-408,-209,o),
(-408,-266,cs),
(-408,-337,o),
(-350,-399,o),
(-270,-399,cs)
);
},
{
closed = 1;
nodes = (
(-358,-332,o),
(-358,-197,o),
(-270,-197,cs),
(-182,-197,o),
(-182,-332,o),
(-270,-332,cs)
);
}
);
width = 0;
}
);
note = uni17BD;
unicode = 6077;
},
{
glyphname = uni17BE;
lastChange = "2024-12-17 01:22:54 +0000";
layers = (
{
layerId = m01;
shapes = (
{
closed = 1;
nodes = (
(140,516,l),
(140,740,l),
(70,740,l),
(70,586,l),
(-20,586,l),
(-20,740,l),
(-90,740,l),
(-90,586,l),
(-270,586,l),
(-270,516,l)
);
},
{
closed = 1;
nodes = (
(-370,516,l),
(-370,586,l),
(-640,586,l),
(-640,516,l)
);
}
);
width = 210;
},
{
layerId = m002;
shapes = (
{
closed = 1;
nodes = (
(235,516,l),
(235,750,l),
(155,750,l),
(155,596,l),
(75,596,l),
(75,750,l),
(-5,750,l),
(-5,596,l),
(-185,596,l),
(-185,516,l)
);
},
{
closed = 1;
nodes = (
(-310,516,l),
(-310,596,l),
(-590,596,l),
(-590,516,l)
);
}
);
width = 305;
}
);
note = uni17BE;
unicode = 6078;
},
{
glyphname = uni17BF;
lastChange = "2024-12-17 01:22:54 +0000";
layers = (
{
layerId = m01;
shapes = (
{
closed = 1;
nodes = (
(-78,-214,ls),
(47,-214,o),
(141,-120,o),
(141,5,cs),
(141,518,ls),
(141,643,o),
(47,737,o),
(-78,737,cs),
(-97,737,l),
(-97,891,l),
(-167,891,l),
(-167,737,l),
(-217,737,l),
(-217,891,l),
(-287,891,l),
(-287,737,l),
(-507,737,l),
(-507,667,l),
(-78,667,ls),
(14,667,o),
(71,610,o),
(71,518,cs),
(71,5,ls),
(71,-87,o),
(14,-144,o),
(-78,-144,cs),
(-145,-144,ls),
(-250,-144,o),
(-309,-91,o),
(-362,-14,c),
(-381,-130,o),
(-278,-214,o),
(-145,-214,cs)
);
},
{
closed = 1;
nodes = (
(-450,516,l),
(-450,586,l),
(-720,586,l),
(-720,516,l)
);
}
);
width = 211;
},
{
layerId = m002;
shapes = (
{
closed = 1;
nodes = (
(-68,-239,ls),
(60,-239,o),
(156,-143,o),
(156,-15,cs),
(156,498,ls),
(156,626,o),
(60,722,o),
(-68,722,cs),
(-82,722,l),
(-82,876,l),
(-162,876,l),
(-162,722,l),
(-232,722,l),
(-232,876,l),
(-312,876,l),
(-312,722,l),
(-502,722,l),
(-502,642,l),
(-68,642,ls),
(22,642,o),
(76,588,o),
(76,498,cs),
(76,-15,ls),
(76,-105,o),
(22,-159,o),
(-68,-159,cs),
(-135,-159,ls),
(-242,-159,o),
(-300,-103,o),
(-355,-21,c),
(-383,-147,o),
(-275,-239,o),
(-135,-239,cs)
);
},
{
closed = 1;
nodes = (
(-440,511,l),
(-440,591,l),
(-720,591,l),
(-720,511,l)
);
}
);
width = 226;
}
);
note = uni17BF;
unicode = 6079;
},
{
glyphname = uni17C0;
lastChange = "2024-12-17 01:22:54 +0000";
layers = (
{
layerId = m01;
shapes = (
{
closed = 1;
nodes = (
(-320,-235,ls),
(-320,-352,o),
(-402,-337,o),
(-402,-254,cs),
(-402,-225,l),
(-467,-225,l),
(-491,-394,o),
(-347,-407,o),
(-287,-350,c),
(-232,-405,o),
(-93,-400,o),
(-107,-225,c),
(-173,-225,l),
(-173,-254,ls),
(-173,-331,o),
(-254,-353,o),
(-254,-235,cs),
(-254,-41,l),
(-320,-41,l)
);
}
);
width = 0;
},
{
layerId = m002;
shapes = (
{
closed = 1;
nodes = (
(-325,-235,ls),
(-325,-346,o),
(-397,-333,o),
(-397,-254,cs),
(-397,-220,l),
(-471,-220,l),
(-499,-395,o),
(-353,-413,o),
(-287,-357,c),
(-227,-411,o),
(-85,-401,o),
(-102,-220,c),
(-178,-220,l),
(-178,-254,ls),
(-178,-327,o),
(-249,-346,o),
(-249,-235,cs),
(-249,-36,l),
(-325,-36,l)
);
}
);
width = 0;
}
);
note = uni17C0;
unicode = 6080;
},
{
glyphname = uni17C1;
lastChange = "2024-12-17 01:23:36 +0000";
layers = (
{
layerId = m01;
shapes = (
{
closed = 1;
nodes = (
(340,516,l),
(340,586,l),
(70,586,l),
(70,516,l)
);
}
);
width = 280;
},
{
layerId = m002;
shapes = (
{
closed = 1;
nodes = (
(350,511,l),
(350,591,l),
(70,591,l),
(70,511,l)
);
}
);
width = 285;
}
);
note = uni17C0;
unicode = 6081;
},
{
glyphname = uni17C2;
lastChange = "2024-12-17 01:23:36 +0000";
layers = (
{
layerId = m01;
shapes = (
{
closed = 1;
nodes = (
(140,586,l),
(140,800,l),
(70,800,l),
(70,516,l),
(370,516,l),
(370,586,l)
);
}
);
width = 310;
},
{
layerId = m002;
shapes = (
{
closed = 1;
nodes = (
(150,591,l),
(150,805,l),
(70,805,l),
(70,511,l),
(380,511,l),
(380,591,l)
);
}
);
width = 315;
}
);
note = uni17C2;
unicode = 6082;
},
{
glyphname = uni17C3;
lastChange = "2024-12-17 01:23:36 +0000";
layers = (
{
layerId = m01;
shapes = (
{
closed = 1;
nodes = (
(340,700,l),
(340,770,l),
(70,770,l),
(70,700,l)
);
},
{
closed = 1;
nodes = (
(340,516,l),
(340,586,l),
(70,586,l),
(70,516,l)
);
}
);
width = 280;
},
{
layerId = m002;
shapes = (
{
closed = 1;
nodes = (
(350,695,l),
(350,775,l),
(70,775,l),
(70,695,l)
);
},
{
closed = 1;
nodes = (
(350,511,l),
(350,591,l),
(70,591,l),
(70,511,l)
);
}
);
width = 285;
}
);
note = uni17C3;
unicode = 6083;
},
{
glyphname = uni17C4;
lastChange = "2024-12-17 01:23:36 +0000";
layers = (
{
layerId = m01;
shapes = (
{
closed = 1;
nodes = (
(-120,586,l),
(-120,516,l),
(150,516,l),
(150,586,l)
);
},
{
closed = 1;
nodes = (
(-720,586,l),
(-720,516,l),
(-450,516,l),
(-450,586,l)
);
}
);
width = 220;
},
{
layerId = m002;
shapes = (
{
closed = 1;
nodes = (
(-125,591,l),
(-125,511,l),
(155,511,l),
(155,591,l)
);
},
{
closed = 1;
nodes = (
(-725,591,l),
(-725,511,l),
(-445,511,l),
(-445,591,l)
);
}
);
width = 225;
}
);
note = uni17C4;
unicode = 6084;
},
{
glyphname = uni17C5;
lastChange = "2024-12-17 01:23:36 +0000";
layers = (
{
layerId = m01;
shapes = (
{
closed = 1;
nodes = (
(-120,586,l),
(-120,516,l),
(150,516,l),
(150,586,l)
);
},
{
closed = 1;
nodes = (
(-720,586,l),
(-720,516,l),
(-450,516,l),
(-450,586,l)
);
},
{
closed = 1;
nodes = (
(-450,700,l),
(-450,770,l),
(-720,770,l),
(-720,700,l)
);
}
);
width = 220;
},
{
layerId = m002;
shapes = (
{
closed = 1;
nodes = (
(-125,591,l),
(-125,511,l),
(155,511,l),
(155,591,l)
);
},
{
closed = 1;
nodes = (
(-725,591,l),
(-725,511,l),
(-445,511,l),
(-445,591,l)
);
},
{
closed = 1;
nodes = (
(-445,695,l),
(-445,775,l),
(-725,775,l),
(-725,695,l)
);
}
);
width = 225;
}
);
note = uni17C5;
unicode = 6085;
},
{
glyphname = uni17C6;
lastChange = "2024-12-17 01:23:36 +0000";
layers = (
{
layerId = m01;
shapes = (
{
closed = 1;
nodes = (
(-335,636,o),
(-337,638,o),
(-337,655,cs),
(-337,673,o),
(-335,675,o),
(-317,675,cs),
(-299,675,o),
(-297,673,o),
(-297,655,cs),
(-297,638,o),
(-299,636,o),
(-317,636,cs)
);
},
{
closed = 1;
nodes = (
(-280,588,o),
(-249,618,o),
(-249,655,cs),
(-249,692,o),
(-280,724,o),
(-317,724,cs),
(-354,724,o),
(-385,692,o),
(-385,655,cs),
(-385,618,o),
(-354,588,o),
(-317,588,cs)
);
}
);
width = 0;
},
{
layerId = m002;
shapes = (
{
closed = 1;
nodes = (
(-332,641,o),
(-332,641,o),
(-332,655,cs),
(-332,670,o),
(-332,670,o),
(-317,670,cs),
(-302,670,o),
(-302,670,o),
(-302,655,cs),
(-302,641,o),
(-302,641,o),
(-317,641,cs)
);
},
{
closed = 1;
nodes = (
(-277,583,o),
(-244,615,o),
(-244,655,cs),
(-244,695,o),
(-277,729,o),
(-317,729,cs),
(-357,729,o),
(-390,695,o),
(-390,655,cs),
(-390,615,o),
(-357,583,o),
(-317,583,cs)
);
}
);
width = 0;
}
);
note = uni17C6;
unicode = 6086;
},
{
glyphname = uni17C7;
lastChange = "2024-12-17 01:23:36 +0000";
layers = (
{
layerId = m01;
shapes = (
{
closed = 1;
nodes = (
(120,366,o),
(118,368,o),
(118,385,cs),
(118,403,o),
(120,405,o),
(138,405,cs),
(156,405,o),
(158,403,o),
(158,385,cs),
(158,368,o),
(156,366,o),
(138,366,cs)
);
},
{
closed = 1;
nodes = (
(175,318,o),
(206,348,o),
(206,385,cs),
(206,422,o),
(175,454,o),
(138,454,cs),
(101,454,o),
(70,422,o),
(70,385,cs),
(70,348,o),
(101,318,o),
(138,318,cs)
);
},
{
closed = 1;
nodes = (
(120,106,o),
(118,108,o),
(118,125,cs),
(118,143,o),
(120,145,o),
(138,145,cs),
(156,145,o),
(158,143,o),
(158,125,cs),
(158,108,o),
(156,106,o),
(138,106,cs)
);
},
{
closed = 1;
nodes = (
(175,58,o),
(206,88,o),
(206,125,cs),
(206,162,o),
(175,194,o),
(138,194,cs),
(101,194,o),
(70,162,o),
(70,125,cs),
(70,88,o),
(101,58,o),
(138,58,cs)
);
}
);
width = 276;
},
{
layerId = m002;
shapes = (
{
closed = 1;
nodes = (
(128,371,o),
(128,371,o),
(128,385,cs),
(128,400,o),
(128,400,o),
(143,400,cs),
(158,400,o),
(158,400,o),
(158,385,cs),
(158,371,o),
(158,371,o),
(143,371,cs)
);
},
{
closed = 1;
nodes = (
(183,313,o),
(216,345,o),
(216,385,cs),
(216,425,o),
(183,459,o),
(143,459,cs),
(103,459,o),
(70,425,o),
(70,385,cs),
(70,345,o),
(103,313,o),
(143,313,cs)
);
},
{
closed = 1;
nodes = (
(128,111,o),
(128,111,o),
(128,125,cs),
(128,140,o),
(128,140,o),
(143,140,cs),
(158,140,o),
(158,140,o),
(158,125,cs),
(158,111,o),
(158,111,o),
(143,111,cs)
);
},
{
closed = 1;
nodes = (
(183,53,o),
(216,85,o),
(216,125,cs),
(216,165,o),
(183,199,o),
(143,199,cs),
(103,199,o),
(70,165,o),
(70,125,cs),
(70,85,o),
(103,53,o),
(143,53,cs)
);
}
);
width = 286;
}
);
note = uni17C7;
unicode = 6087;
},
{
glyphname = uni17C8;
lastChange = "2024-12-17 01:23:36 +0000";
layers = (
{
layerId = m01;
shapes = (
{
closed = 1;
nodes = (
(99,475,o),
(70,446,o),
(70,410,cs),
(70,375,o),
(95,345,o),
(134,345,cs),
(172,345,o),
(200,373,o),
(200,410,cs),
(200,447,o),
(170,475,o),
(134,475,cs)
);
},
{
closed = 1;
nodes = (
(99,158,o),
(70,128,o),
(70,92,cs),
(70,59,o),
(95,26,o),
(134,26,cs),
(171,26,o),
(200,56,o),
(200,92,cs),
(200,128,o),
(170,158,o),
(134,158,cs)
);
}
);
width = 270;
},
{
layerId = m002;
shapes = (
{
closed = 1;
nodes = (
(101,480,o),
(70,449,o),
(70,410,cs),
(70,373,o),
(97,340,o),
(139,340,cs),
(180,340,o),
(210,370,o),
(210,410,cs),
(210,450,o),
(178,480,o),
(139,480,cs)
);
},
{
closed = 1;
nodes = (
(101,163,o),
(70,131,o),
(70,92,cs),
(70,57,o),
(97,21,o),
(139,21,cs),
(179,21,o),
(210,53,o),
(210,92,cs),
(210,131,o),
(178,163,o),
(139,163,cs)
);
}
);
width = 280;
}
);
note = uni17C8;
unicode = 6088;
},
{
glyphname = uni17C9;
lastChange = "2024-12-17 00:52:19 +0000";
layers = (
{
layerId = m01;
shapes = (
{
closed = 1;
nodes = (
(-246,727,l),
(-316,727,l),
(-316,662,l),
(-302,547,l),
(-262,547,l),
(-246,662,l)
);
},
{
closed = 1;
nodes = (
(-114,727,l),
(-184,727,l),
(-184,662,l),
(-169,547,l),
(-129,547,l),
(-114,662,l)
);
}
);
width = 0;
},
{
layerId = m002;
shapes = (
{
closed = 1;
nodes = (
(-241,732,l),
(-321,732,l),
(-321,662,l),
(-306,542,l),
(-258,542,l),
(-241,662,l)
);
},
{
closed = 1;
nodes = (
(-109,732,l),
(-189,732,l),
(-189,662,l),
(-173,542,l),
(-125,542,l),
(-109,662,l)
);
}
);
width = 0;
}
);
note = uni17C9;
unicode = 6089;
},
{
glyphname = uni17CA;
lastChange = "2024-12-17 00:52:19 +0000";
layers = (
{
layerId = m01;
shapes = (
{
closed = 1;
nodes = (
(-506,576,o),
(-466,595,o),
(-420,634,c),
(-317,585,l),
(-228,640,l),
(-194,611,o),
(-153,585,o),
(-139,585,cs),
(-122,585,o),
(-93,601,o),
(-82,634,c),
(-137,638,o),
(-219,705,o),
(-225,705,cs),
(-233,705,o),
(-264,682,o),
(-317,656,c),
(-382,682,o),
(-418,705,o),
(-427,705,cs),
(-434,704,o),
(-520,635,o),
(-575,625,c),
(-564,592,o),
(-535,576,o),
(-518,576,cs)
);
}
);
width = 0;
},
{
layerId = m002;
shapes = (
{
closed = 1;
nodes = (
(-505,571,o),
(-465,590,o),
(-419,628,c),
(-317,579,l),
(-228,634,l),
(-195,605,o),
(-154,580,o),
(-139,580,cs),
(-119,580,o),
(-85,599,o),
(-75,639,c),
(-119,638,o),
(-197,710,o),
(-225,710,cs),
(-230,710,o),
(-291,674,o),
(-317,661,c),
(-351,675,o),
(-422,710,o),
(-427,710,cs),
(-431,710,o),
(-534,627,o),
(-581,629,c),
(-571,590,o),
(-538,571,o),
(-518,571,cs)
);
}
);
width = 0;
}
);
note = uni17CA;
unicode = 6090;
},
{
glyphname = uni17CB;
lastChange = "2024-12-17 00:52:19 +0000";
layers = (
{
layerId = m01;
shapes = (
{
closed = 1;
nodes = (
(-204,727,l),
(-274,727,l),
(-274,662,l),
(-259,547,l),
(-219,547,l),
(-204,662,l)
);
}
);
width = 0;
},
{
layerId = m002;
shapes = (
{
closed = 1;
nodes = (
(-199,732,l),
(-279,732,l),
(-279,662,l),
(-263,542,l),
(-215,542,l),
(-199,662,l)
);
}
);
width = 0;
}
);
note = uni17CB;
unicode = 6091;
},
{
glyphname = uni17CC;
lastChange = "2024-12-17 00:52:19 +0000";
layers = (
{
layerId = m01;
shapes = (
{
closed = 1;
nodes = (
(-84,720,l),
(-84,820,o),
(-143,873,o),
(-185,879,cs),
(-253,889,o),
(-321,816,o),
(-280,722,cs),
(-265,688,o),
(-261,680,o),
(-244,632,cs),
(-224,574,o),
(-300,553,o),
(-322,619,c),
(-342,598,l),
(-311,483,o),
(-161,510,o),
(-178,624,cs),
(-185,670,o),
(-203,684,o),
(-216,722,cs),
(-240,789,o),
(-212,826,o),
(-175,825,cs),
(-148,824,o),
(-94,785,o),
(-93,719,c)
);
}
);
width = 0;
},
{
layerId = m002;
shapes = (
{
closed = 1;
nodes = (
(-79,716,l),
(-77,821,o),
(-140,878,o),
(-184,884,cs),
(-256,894,o),
(-327,818,o),
(-285,720,cs),
(-270,686,o),
(-266,678,o),
(-249,630,cs),
(-230,575,o),
(-302,558,o),
(-320,629,c),
(-348,599,l),
(-317,475,o),
(-155,503,o),
(-173,625,cs),
(-180,671,o),
(-196,679,o),
(-211,724,cs),
(-234,788,o),
(-210,821,o),
(-175,820,cs),
(-149,819,o),
(-96,780,o),
(-98,713,c)
);
}
);
width = 0;
}
);
note = uni17CC;
unicode = 6092;
},
{
glyphname = uni17CD;
lastChange = "2024-12-17 00:52:19 +0000";
layers = (
{
layerId = m01;
shapes = (
{
closed = 1;
nodes = (
(-147,570,o),
(-156,660,o),
(-201,660,c),
(-242,655,l),
(-225,644,o),
(-239,626,o),
(-254,626,cs),
(-329,626,o),
(-331,732,o),
(-236,732,cs),
(-218,732,o),
(-198,713,o),
(-176,694,c),
(-142,694,o),
(-13,761,o),
(-5,856,c),
(-34,875,l),
(-55,798,o),
(-123,769,o),
(-172,756,c),
(-187,773,o),
(-212,791,o),
(-249,791,cs),
(-398,791,o),
(-423,570,o),
(-252,570,cs)
);
}
);
width = 65;
},
{
layerId = m002;
shapes = (
{
closed = 1;
nodes = (
(-140,565,o),
(-150,665,o),
(-201,665,c),
(-243,660,l),
(-232,643,o),
(-241,631,o),
(-254,631,cs),
(-324,631,o),
(-326,727,o),
(-236,727,cs),
(-220,727,o),
(-201,709,o),
(-178,689,c),
(-145,686,o),
(-6,757,o),
(0,859,c),
(-37,883,l),
(-55,805,o),
(-121,775,o),
(-170,762,c),
(-186,778,o),
(-212,796,o),
(-249,796,cs),
(-404,796,o),
(-430,565,o),
(-252,565,cs)
);
}
);
width = 70;
}
);
note = uni17CD;
unicode = 6093;
},
{
glyphname = uni17CE;
lastChange = "2024-12-17 00:52:19 +0000";
layers = (
{
layerId = m01;
shapes = (
{
closed = 1;
nodes = (
(-178,599,l),
(-178,666,l),
(-111,666,l),
(-111,733,l),
(-178,733,l),
(-178,799,l),
(-245,799,l),
(-245,733,l),
(-311,733,l),
(-311,666,l),
(-245,666,l),
(-245,599,l)
);
}
);
width = 0;
},
{
layerId = m002;
shapes = (
{
closed = 1;
nodes = (
(-173,594,l),
(-173,661,l),
(-106,661,l),
(-106,738,l),
(-173,738,l),
(-173,804,l),
(-250,804,l),
(-250,738,l),
(-316,738,l),
(-316,661,l),
(-250,661,l),
(-250,594,l)
);
}
);
width = 0;
}
);
note = uni17CE;
unicode = 6094;
},
{
glyphname = uni17CF;
lastChange = "2024-12-17 00:52:19 +0000";
layers = (
{
layerId = m01;
shapes = (
{
closed = 1;
nodes = (
(-129,795,o),
(-196,809,o),
(-256,809,cs),
(-415,809,o),
(-440,569,o),
(-291,569,cs),
(-267,569,o),
(-245,583,o),
(-226,610,c),
(-207,583,o),
(-184,569,o),
(-157,569,cs),
(-92,569,o),
(-68,605,o),
(-69,640,cs),
(-71,719,o),
(-168,736,o),
(-168,671,c),
(-145,682,o),
(-125,662,o),
(-127,643,cs),
(-128,631,o),
(-142,620,o),
(-159,620,cs),
(-183,620,o),
(-205,641,o),
(-226,678,c),
(-243,637,o),
(-268,622,o),
(-289,622,cs),
(-340,622,o),
(-369,755,o),
(-221,755,cs),
(-112,755,o),
(-58,821,o),
(-121,869,c)
);
}
);
width = 1;
},
{
layerId = m002;
shapes = (
{
closed = 1;
nodes = (
(-129,800,o),
(-193,814,o),
(-256,814,cs),
(-421,814,o),
(-447,564,o),
(-291,564,cs),
(-267,564,o),
(-245,577,o),
(-226,602,c),
(-207,577,o),
(-184,564,o),
(-157,564,cs),
(-89,564,o),
(-63,603,o),
(-64,640,cs),
(-66,729,o),
(-181,744,o),
(-173,662,c),
(-150,679,o),
(-130,662,o),
(-132,643,cs),
(-133,634,o),
(-144,625,o),
(-159,625,cs),
(-183,625,o),
(-204,647,o),
(-227,690,c),
(-243,643,o),
(-268,627,o),
(-289,627,cs),
(-336,627,o),
(-363,750,o),
(-221,750,cs),
(-103,750,o),
(-47,827,o),
(-125,878,c)
);
}
);
width = 6;
}
);
note = uni17CF;
unicode = 6095;
},
{
glyphname = uni17D0;
lastChange = "2024-12-17 00:52:19 +0000";
layers = (
{
layerId = m01;
shapes = (
{
closed = 1;
nodes = (
(-29,554,o),
(52,766,o),
(-126,846,c),
(-188,846,l),
(-29,790,o),
(-77,611,o),
(-224,611,cs),
(-310,611,o),
(-341,651,o),
(-341,683,cs),
(-341,707,o),
(-321,718,o),
(-301,718,cs),
(-259,718,o),
(-268,674,o),
(-293,682,c),
(-293,666,l),
(-193,657,o),
(-209,782,o),
(-311,779,cs),
(-374,777,o),
(-404,729,o),
(-403,683,cs),
(-402,605,o),
(-318,548,o),
(-224,550,cs)
);
}
);
width = 43;
},
{
layerId = m002;
shapes = (
{
closed = 1;
nodes = (
(-23,549,o),
(60,769,o),
(-125,851,c),
(-188,851,l),
(-35,787,o),
(-81,616,o),
(-224,616,cs),
(-308,616,o),
(-336,653,o),
(-336,683,cs),
(-336,704,o),
(-320,713,o),
(-301,713,cs),
(-261,713,o),
(-274,673,o),
(-298,690,c),
(-298,662,l),
(-186,648,o),
(-201,787,o),
(-311,784,cs),
(-377,782,o),
(-409,731,o),
(-408,683,cs),
(-407,602,o),
(-320,543,o),
(-224,545,cs)
);
}
);
width = 48;
}
);
note = uni17D0;
unicode = 6096;
},
{
glyphname = uni17D1;
lastChange = "2024-12-17 00:52:19 +0000";
layers = (
{
layerId = m01;
shapes = (
{
closed = 1;
nodes = (
(-482,629,l),
(-80,629,l),
(-80,696,l),
(-482,696,l)
);
}
);
width = 0;
},
{
layerId = m002;
shapes = (
{
closed = 1;
nodes = (
(-487,624,l),
(-75,624,l),
(-75,701,l),
(-487,701,l)
);
}
);
width = 0;
}
);
note = uni17D1;
unicode = 6097;
},
{
glyphname = uni17D2;
lastChange = "2024-12-17 00:52:19 +0000";
layers = (
{
layerId = m01;
shapes = (
{
closed = 1;
nodes = (
(359,-151,l),
(359,-83,l),
(293,-83,l),
(293,-151,l),
(225,-151,l),
(225,-217,l),
(293,-217,l),
(293,-285,l),
(359,-285,l),
(359,-217,l),
(427,-217,l),
(427,-151,l)
);
},
{
closed = 1;
nodes = (
(282,473,l),
(307,478,o),
(333,478,o),
(359,474,c),
(363,500,l),
(333,504,o),
(305,504,o),
(278,499,c)
);
},
{
closed = 1;
nodes = (
(527,399,l),
(511,422,o),
(490,441,o),
(467,458,c),
(453,436,l),
(474,421,o),
(491,404,o),
(506,384,c)
);
},
{
closed = 1;
nodes = (
(573,213,l),
(577,241,o),
(577,269,o),
(573,295,c),
(547,291,l),
(550,267,o),
(551,243,o),
(548,217,c)
);
},
{
closed = 1;
nodes = (
(475,48,l),
(498,65,o),
(517,87,o),
(533,107,c),
(511,122,l),
(498,100,o),
(481,84,o),
(461,69,c)
);
},
{
closed = 1;
nodes = (
(136,379,l),
(151,400,o),
(168,418,o),
(189,433,c),
(174,454,l),
(151,438,o),
(131,417,o),
(115,393,c)
);
},
{
closed = 1;
nodes = (
(289,-2,l),
(319,-4,o),
(346,-4,o),
(374,3,c),
(369,28,l),
(344,23,o),
(319,22,o),
(294,25,c)
);
},
{
closed = 1;
nodes = (
(123,97,l),
(138,75,o),
(160,54,o),
(184,39,c),
(197,60,l),
(175,75,o),
(157,91,o),
(142,112,c)
);
},
{
closed = 1;
nodes = (
(73,286,l),
(68,258,o),
(70,229,o),
(75,200,c),
(100,207,l),
(95,231,o),
(95,256,o),
(98,284,c)
);
}
);
width = 646;
},
{
layerId = m002;
shapes = (
{
closed = 1;
nodes = (
(359,-151,l),
(359,-83,l),
(293,-83,l),
(293,-151,l),
(225,-151,l),
(225,-217,l),
(293,-217,l),
(293,-285,l),
(359,-285,l),
(359,-217,l),
(427,-217,l),
(427,-151,l)
);
},
{
closed = 1;
nodes = (
(282,473,l),
(307,478,o),
(333,478,o),
(359,474,c),
(363,500,l),
(333,504,o),
(305,504,o),
(278,499,c)
);
},
{
closed = 1;
nodes = (
(527,399,l),
(511,422,o),
(490,441,o),
(467,458,c),
(453,436,l),
(474,421,o),
(491,404,o),
(506,384,c)
);
},
{
closed = 1;
nodes = (
(573,213,l),
(577,241,o),
(577,269,o),
(573,295,c),
(547,291,l),
(550,267,o),
(551,243,o),
(548,217,c)
);
},
{
closed = 1;
nodes = (
(475,48,l),
(498,65,o),
(517,87,o),
(533,107,c),
(511,122,l),
(498,100,o),
(481,84,o),
(461,69,c)
);
},
{
closed = 1;
nodes = (
(136,379,l),
(151,400,o),
(168,418,o),
(189,433,c),
(174,454,l),
(151,438,o),
(131,417,o),
(115,393,c)
);
},
{
closed = 1;
nodes = (
(289,-2,l),
(319,-4,o),
(346,-4,o),
(374,3,c),
(369,28,l),
(344,23,o),
(319,22,o),
(294,25,c)
);
},
{
closed = 1;
nodes = (
(123,97,l),
(138,75,o),
(160,54,o),
(184,39,c),
(197,60,l),
(175,75,o),
(157,91,o),
(142,112,c)
);
},
{
closed = 1;
nodes = (
(73,286,l),
(68,258,o),
(70,229,o),
(75,200,c),
(100,207,l),
(95,231,o),
(95,256,o),
(98,284,c)
);
}
);
width = 646;
}
);
note = uni17D2;
unicode = 6098;
},
{
glyphname = uni17D2.1;
lastChange = "2024-12-17 00:52:19 +0000";
layers = (
{
layerId = m01;
shapes = (
{
closed = 1;
nodes = (
(214,863,o),
(213,623,o),
(359,618,cs),
(469,615,o),
(486,762,o),
(373,762,cs),
(318,762,o),
(302,700,o),
(336,683,c),
(364,694,l),
(329,698,o),
(345,730,o),
(371,730,cs),
(442,730,o),
(425,647,o),
(359,652,cs),
(250,661,o),
(268,831,o),
(403,824,cs),
(465,820,o),
(526,779,o),
(527,690,cs),
(527,620,o),
(485,555,o),
(398,555,cs),
(352,555,o),
(296,567,o),
(273,589,c),
(236,589,l),
(259,546,o),
(338,522,o),
(398,522,cs),
(507,522,o),
(559,604,o),
(559,690,cs),
(558,802,o),
(480,854,o),
(403,857,cs)
);
},
{
closed = 1;
nodes = (
(349,-111,l),
(349,-43,l),
(303,-43,l),
(303,-111,l),
(235,-111,l),
(235,-157,l),
(303,-157,l),
(303,-225,l),
(349,-225,l),
(349,-157,l),
(417,-157,l),
(417,-111,l)
);
},
{
closed = 1;
nodes = (
(282,473,l),
(307,478,o),
(333,478,o),
(359,474,c),
(363,500,l),
(333,504,o),
(305,504,o),
(278,499,c)
);
},
{
closed = 1;
nodes = (
(527,399,l),
(511,422,o),
(490,441,o),
(467,458,c),
(453,436,l),
(474,421,o),
(491,404,o),
(506,384,c)
);
},
{
closed = 1;
nodes = (
(573,213,l),
(577,241,o),
(577,269,o),
(573,295,c),
(547,291,l),
(550,267,o),
(551,243,o),
(548,217,c)
);
},
{
closed = 1;
nodes = (
(475,48,l),
(498,65,o),
(517,87,o),
(533,107,c),
(511,122,l),
(498,100,o),
(481,84,o),
(461,69,c)
);
},
{
closed = 1;
nodes = (
(136,379,l),
(151,400,o),
(168,418,o),
(189,433,c),
(174,454,l),
(151,438,o),
(131,417,o),
(115,393,c)
);
},
{
closed = 1;
nodes = (
(289,-2,l),
(319,-4,o),
(346,-4,o),
(374,3,c),
(369,28,l),
(344,23,o),
(319,22,o),
(294,25,c)
);
},
{
closed = 1;
nodes = (
(123,97,l),
(138,75,o),
(160,54,o),
(184,39,c),
(197,60,l),
(175,75,o),
(157,91,o),
(142,112,c)
);
},
{
closed = 1;
nodes = (
(73,286,l),
(68,258,o),
(70,229,o),
(75,200,c),
(100,207,l),
(95,231,o),
(95,256,o),
(98,284,c)
);
}
);
width = 646;
},
{
layerId = m002;
shapes = (
{
closed = 1;
nodes = (
(214,863,o),
(213,623,o),
(359,618,cs),
(469,615,o),
(486,762,o),
(373,762,cs),
(318,762,o),
(302,700,o),
(336,683,c),
(364,694,l),
(329,698,o),
(345,730,o),
(371,730,cs),
(442,730,o),
(425,647,o),
(359,652,cs),
(250,661,o),
(268,831,o),
(403,824,cs),
(465,820,o),
(526,779,o),
(527,690,cs),
(527,620,o),
(485,555,o),
(398,555,cs),
(352,555,o),
(296,567,o),
(273,589,c),
(236,589,l),
(259,546,o),
(338,522,o),
(398,522,cs),
(507,522,o),
(559,604,o),
(559,690,cs),
(558,802,o),
(480,854,o),
(403,857,cs)
);
},
{
closed = 1;
nodes = (
(349,-111,l),
(349,-43,l),
(303,-43,l),
(303,-111,l),
(235,-111,l),
(235,-157,l),
(303,-157,l),
(303,-225,l),
(349,-225,l),
(349,-157,l),
(417,-157,l),
(417,-111,l)
);
},
{
closed = 1;
nodes = (
(282,473,l),
(307,478,o),
(333,478,o),
(359,474,c),
(363,500,l),
(333,504,o),
(305,504,o),
(278,499,c)
);
},
{
closed = 1;
nodes = (
(527,399,l),
(511,422,o),
(490,441,o),
(467,458,c),
(453,436,l),
(474,421,o),
(491,404,o),
(506,384,c)
);
},
{
closed = 1;
nodes = (
(573,213,l),
(577,241,o),
(577,269,o),
(573,295,c),
(547,291,l),
(550,267,o),
(551,243,o),
(548,217,c)
);
},
{
closed = 1;
nodes = (
(475,48,l),
(498,65,o),
(517,87,o),
(533,107,c),
(511,122,l),
(498,100,o),
(481,84,o),
(461,69,c)
);
},
{
closed = 1;
nodes = (
(136,379,l),
(151,400,o),
(168,418,o),
(189,433,c),
(174,454,l),
(151,438,o),
(131,417,o),
(115,393,c)
);
},
{
closed = 1;
nodes = (
(289,-2,l),
(319,-4,o),
(346,-4,o),
(374,3,c),
(369,28,l),
(344,23,o),
(319,22,o),
(294,25,c)
);
},
{
closed = 1;
nodes = (
(123,97,l),
(138,75,o),
(160,54,o),
(184,39,c),
(197,60,l),
(175,75,o),
(157,91,o),
(142,112,c)
);
},
{
closed = 1;
nodes = (
(73,286,l),
(68,258,o),
(70,229,o),
(75,200,c),
(100,207,l),
(95,231,o),
(95,256,o),
(98,284,c)
);
}
);
width = 646;
}
);
note = uni17D2;
},
{
glyphname = uni17D2.2;
lastChange = "2024-12-17 00:52:19 +0000";
layers = (
{
layerId = m01;
shapes = (
{
closed = 1;
nodes = (
(143,845,l),
(186,817,o),
(204,713,o),
(217,674,cs),
(258,556,o),
(306,520,o),
(461,520,cs),
(723,521,o),
(692,816,o),
(565,822,cs),
(536,823,o),
(506,807,o),
(484,767,c),
(468,799,o),
(439,821,o),
(387,821,cs),
(322,821,o),
(292,772,o),
(293,726,cs),
(294,659,o),
(339,628,o),
(381,628,cs),
(417,628,o),
(456,652,o),
(456,695,cs),
(456,767,o),
(348,763,o),
(358,693,c),
(371,693,l),
(367,724,o),
(424,730,o),
(427,694,cs),
(428,672,o),
(404,658,o),
(381,659,cs),
(351,660,o),
(321,678,o),
(322,726,cs),
(322,760,o),
(342,791,o),
(387,791,cs),
(428,791,o),
(452,774,o),
(469,735,cs),
(484,701,l),
(497,730,ls),
(516,774,o),
(542,792,o),
(565,792,cs),
(652,789,o),
(688,554,o),
(461,550,cs),
(313,547,o),
(276,600,o),
(245,690,cs),
(233,726,o),
(217,826,o),
(174,854,c)
);
},
{
closed = 1;
nodes = (
(349,-111,l),
(349,-43,l),
(303,-43,l),
(303,-111,l),
(235,-111,l),
(235,-157,l),
(303,-157,l),
(303,-225,l),
(349,-225,l),
(349,-157,l),
(417,-157,l),
(417,-111,l)
);
},
{
closed = 1;
nodes = (
(282,473,l),
(307,478,o),
(333,478,o),
(359,474,c),
(363,500,l),
(333,504,o),
(305,504,o),
(278,499,c)
);
},
{
closed = 1;
nodes = (
(527,399,l),
(511,422,o),
(490,441,o),
(467,458,c),
(453,436,l),
(474,421,o),
(491,404,o),
(506,384,c)
);
},
{
closed = 1;
nodes = (
(573,213,l),
(577,241,o),
(577,269,o),
(573,295,c),
(547,291,l),
(550,267,o),
(551,243,o),
(548,217,c)
);
},
{
closed = 1;
nodes = (
(475,48,l),
(498,65,o),
(517,87,o),
(533,107,c),
(511,122,l),
(498,100,o),
(481,84,o),
(461,69,c)
);
},
{
closed = 1;
nodes = (
(136,379,l),
(151,400,o),
(168,418,o),
(189,433,c),
(174,454,l),
(151,438,o),
(131,417,o),
(115,393,c)
);
},
{
closed = 1;
nodes = (
(289,-2,l),
(319,-4,o),
(346,-4,o),
(374,3,c),
(369,28,l),
(344,23,o),
(319,22,o),
(294,25,c)
);
},
{
closed = 1;
nodes = (
(123,97,l),
(138,75,o),
(160,54,o),
(184,39,c),
(197,60,l),
(175,75,o),
(157,91,o),
(142,112,c)
);
},
{
closed = 1;
nodes = (
(73,286,l),
(68,258,o),
(70,229,o),
(75,200,c),
(100,207,l),
(95,231,o),
(95,256,o),
(98,284,c)
);
}
);
width = 730;
},
{
layerId = m002;
shapes = (
{
closed = 1;
nodes = (
(143,845,l),
(186,817,o),
(204,713,o),
(217,674,cs),
(258,556,o),
(306,520,o),
(461,520,cs),
(723,521,o),
(692,816,o),
(565,822,cs),
(536,823,o),
(506,807,o),
(484,767,c),
(468,799,o),
(439,821,o),
(387,821,cs),
(322,821,o),
(292,772,o),
(293,726,cs),
(294,659,o),
(339,628,o),
(381,628,cs),
(417,628,o),
(456,652,o),
(456,695,cs),
(456,767,o),
(348,763,o),
(358,693,c),
(371,693,l),
(367,724,o),
(424,730,o),
(427,694,cs),
(428,672,o),
(404,658,o),
(381,659,cs),
(351,660,o),
(321,678,o),
(322,726,cs),
(322,760,o),
(342,791,o),
(387,791,cs),
(428,791,o),
(452,774,o),
(469,735,cs),
(484,701,l),
(497,730,ls),
(516,774,o),
(542,792,o),
(565,792,cs),
(652,789,o),
(688,554,o),
(461,550,cs),
(313,547,o),
(276,600,o),
(245,690,cs),
(233,726,o),
(217,826,o),
(174,854,c)
);
},
{
closed = 1;
nodes = (
(349,-111,l),
(349,-43,l),
(303,-43,l),
(303,-111,l),
(235,-111,l),
(235,-157,l),
(303,-157,l),
(303,-225,l),
(349,-225,l),
(349,-157,l),
(417,-157,l),
(417,-111,l)
);
},
{
closed = 1;
nodes = (
(282,473,l),
(307,478,o),
(333,478,o),
(359,474,c),
(363,500,l),
(333,504,o),
(305,504,o),
(278,499,c)
);
},
{
closed = 1;
nodes = (
(527,399,l),
(511,422,o),
(490,441,o),
(467,458,c),
(453,436,l),
(474,421,o),
(491,404,o),
(506,384,c)
);
},
{
closed = 1;
nodes = (
(573,213,l),
(577,241,o),
(577,269,o),
(573,295,c),
(547,291,l),
(550,267,o),
(551,243,o),
(548,217,c)
);
},
{
closed = 1;
nodes = (
(475,48,l),
(498,65,o),
(517,87,o),
(533,107,c),
(511,122,l),
(498,100,o),
(481,84,o),
(461,69,c)
);
},
{
closed = 1;
nodes = (
(136,379,l),
(151,400,o),
(168,418,o),
(189,433,c),
(174,454,l),
(151,438,o),
(131,417,o),
(115,393,c)
);
},
{
closed = 1;
nodes = (
(289,-2,l),
(319,-4,o),
(346,-4,o),
(374,3,c),
(369,28,l),
(344,23,o),
(319,22,o),
(294,25,c)
);
},
{
closed = 1;
nodes = (
(123,97,l),
(138,75,o),
(160,54,o),
(184,39,c),
(197,60,l),
(175,75,o),
(157,91,o),
(142,112,c)
);
},
{
closed = 1;
nodes = (
(73,286,l),
(68,258,o),
(70,229,o),
(75,200,c),
(100,207,l),
(95,231,o),
(95,256,o),
(98,284,c)
);
}
);
width = 730;
}
);
note = uni17D2;
},
{
glyphname = uni17D2.3;
lastChange = "2024-12-17 00:52:19 +0000";
layers = (
{
layerId = m01;
shapes = (
{
closed = 1;
nodes = (
(152,748,o),
(156,656,cs),
(159,587,o),
(202,520,o),
(269,518,cs),
(323,516,o),
(354,558,o),
(353,597,cs),
(349,676,o),
(222,671,o),
(231,602,cs),
(231,592,o),
(237,582,o),
(248,576,c),
(274,586,l),
(258,589,o),
(254,596,o),
(254,603,cs),
(255,633,o),
(316,638,o),
(320,598,cs),
(321,574,o),
(303,546,o),
(268,548,cs),
(220,552,o),
(190,603,o),
(188,657,cs),
(186,729,o),
(223,791,o),
(291,790,cs),
(336,789,o),
(390,754,o),
(390,659,cs),
(391,518,l),
(420,518,l),
(421,659,ls),
(421,743,o),
(448,786,o),
(487,788,cs),
(525,790,o),
(618,738,o),
(552,518,c),
(582,518,l),
(650,758,o),
(539,821,o),
(487,818,cs),
(450,817,o),
(418,792,o),
(407,743,c),
(386,797,o),
(332,817,o),
(291,818,cs),
(203,819,o)
);
},
{
closed = 1;
nodes = (
(349,-111,l),
(349,-43,l),
(303,-43,l),
(303,-111,l),
(235,-111,l),
(235,-157,l),
(303,-157,l),
(303,-225,l),
(349,-225,l),
(349,-157,l),
(417,-157,l),
(417,-111,l)
);
},
{
closed = 1;
nodes = (
(282,473,l),
(307,478,o),
(333,478,o),
(359,474,c),
(363,500,l),
(333,504,o),
(305,504,o),
(278,499,c)
);
},
{
closed = 1;
nodes = (
(527,399,l),
(511,422,o),
(490,441,o),
(467,458,c),
(453,436,l),
(474,421,o),
(491,404,o),
(506,384,c)
);
},
{
closed = 1;
nodes = (
(573,213,l),
(577,241,o),
(577,269,o),
(573,295,c),
(547,291,l),
(550,267,o),
(551,243,o),
(548,217,c)
);
},
{
closed = 1;
nodes = (
(475,48,l),
(498,65,o),
(517,87,o),
(533,107,c),
(511,122,l),
(498,100,o),
(481,84,o),
(461,69,c)
);
},
{
closed = 1;
nodes = (
(136,379,l),
(151,400,o),
(168,418,o),
(189,433,c),
(174,454,l),
(151,438,o),
(131,417,o),
(115,393,c)
);
},
{
closed = 1;
nodes = (
(289,-2,l),
(319,-4,o),
(346,-4,o),
(374,3,c),
(369,28,l),
(344,23,o),
(319,22,o),
(294,25,c)
);
},
{
closed = 1;
nodes = (
(123,97,l),
(138,75,o),
(160,54,o),
(184,39,c),
(197,60,l),
(175,75,o),
(157,91,o),
(142,112,c)
);
},
{
closed = 1;
nodes = (
(73,286,l),
(68,258,o),
(70,229,o),
(75,200,c),
(100,207,l),
(95,231,o),
(95,256,o),
(98,284,c)
);
}
);
width = 673;
},
{
layerId = m002;
shapes = (
{
closed = 1;
nodes = (
(152,748,o),
(156,656,cs),
(159,587,o),
(202,520,o),
(269,518,cs),
(323,516,o),
(354,558,o),
(353,597,cs),
(349,676,o),
(222,671,o),
(231,602,cs),
(231,592,o),
(237,582,o),
(248,576,c),
(274,586,l),
(258,589,o),
(254,596,o),
(254,603,cs),
(255,633,o),
(316,638,o),
(320,598,cs),
(321,574,o),
(303,546,o),
(268,548,cs),
(220,552,o),
(190,603,o),
(188,657,cs),
(186,729,o),
(223,791,o),
(291,790,cs),
(336,789,o),
(390,754,o),
(390,659,cs),
(391,518,l),
(420,518,l),
(421,659,ls),
(421,743,o),
(448,786,o),
(487,788,cs),
(525,790,o),
(618,738,o),
(552,518,c),
(582,518,l),
(650,758,o),
(539,821,o),
(487,818,cs),
(450,817,o),
(418,792,o),
(407,743,c),
(386,797,o),
(332,817,o),
(291,818,cs),
(203,819,o)
);
},
{
closed = 1;
nodes = (
(349,-111,l),
(349,-43,l),
(303,-43,l),
(303,-111,l),
(235,-111,l),
(235,-157,l),
(303,-157,l),
(303,-225,l),
(349,-225,l),
(349,-157,l),
(417,-157,l),
(417,-111,l)
);
},
{
closed = 1;
nodes = (
(282,473,l),
(307,478,o),
(333,478,o),
(359,474,c),
(363,500,l),
(333,504,o),
(305,504,o),
(278,499,c)
);
},
{
closed = 1;
nodes = (
(527,399,l),
(511,422,o),
(490,441,o),
(467,458,c),
(453,436,l),
(474,421,o),
(491,404,o),
(506,384,c)
);
},
{
closed = 1;
nodes = (
(573,213,l),
(577,241,o),
(577,269,o),
(573,295,c),
(547,291,l),
(550,267,o),
(551,243,o),
(548,217,c)
);
},
{
closed = 1;
nodes = (
(475,48,l),
(498,65,o),
(517,87,o),
(533,107,c),
(511,122,l),
(498,100,o),
(481,84,o),
(461,69,c)
);
},
{
closed = 1;
nodes = (
(136,379,l),
(151,400,o),
(168,418,o),
(189,433,c),
(174,454,l),
(151,438,o),
(131,417,o),
(115,393,c)
);
},
{
closed = 1;
nodes = (
(289,-2,l),
(319,-4,o),
(346,-4,o),
(374,3,c),
(369,28,l),
(344,23,o),
(319,22,o),
(294,25,c)
);
},
{
closed = 1;
nodes = (
(123,97,l),
(138,75,o),
(160,54,o),
(184,39,c),
(197,60,l),
(175,75,o),
(157,91,o),
(142,112,c)
);
},
{
closed = 1;
nodes = (
(73,286,l),
(68,258,o),
(70,229,o),
(75,200,c),
(100,207,l),
(95,231,o),
(95,256,o),
(98,284,c)
);
}
);
width = 673;
}
);
note = uni17D2;
},
{
glyphname = uni17D3;
lastChange = "2024-12-17 00:52:19 +0000";
layers = (
{
layerId = m01;
shapes = (
{
closed = 1;
nodes = (
(124,727,o),
(163,736,o),
(204,736,cs),
(245,736,o),
(284,727,o),
(284,686,cs),
(284,645,o),
(245,636,o),
(204,636,cs),
(163,636,o),
(124,645,o),
(124,686,cs)
);
},
{
closed = 1;
nodes = (
(338,761,o),
(279,786,o),
(204,786,cs),
(129,786,o),
(70,761,o),
(70,686,cs),
(70,611,o),
(129,585,o),
(204,585,cs),
(279,585,o),
(338,611,o),
(338,686,cs)
);
}
);
width = 408;
},
{
layerId = m002;
shapes = (
{
closed = 1;
nodes = (
(124,727,o),
(163,736,o),
(204,736,cs),
(245,736,o),
(284,727,o),
(284,686,cs),
(284,645,o),
(245,636,o),
(204,636,cs),
(163,636,o),
(124,645,o),
(124,686,cs)
);
},
{
closed = 1;
nodes = (
(338,761,o),
(279,786,o),
(204,786,cs),
(129,786,o),
(70,761,o),
(70,686,cs),
(70,611,o),
(129,585,o),
(204,585,cs),
(279,585,o),
(338,611,o),
(338,686,cs)
);
}
);
width = 408;
}
);
note = uni17D3;
unicode = 6099;
},
{
glyphname = uni17D4;
lastChange = "2024-12-17 00:52:19 +0000";
layers = (
{
layerId = m01;
shapes = (
{
closed = 1;
nodes = (
(169,166,o),
(135,200,o),
(135,250,c),
(135,300,o),
(169,334,o),
(219,334,c),
(270,334,o),
(303,301,o),
(303,250,c),
(303,200,o),
(269,166,o),
(219,166,c)
);
},
{
closed = 1;
nodes = (
(302,101,o),
(368,168,o),
(368,250,c),
(368,333,o),
(302,399,o),
(219,399,c),
(137,399,o),
(70,333,o),
(70,250,c),
(70,168,o),
(137,101,o),
(219,101,c)
);
}
);
width = 438;
},
{
layerId = m002;
shapes = (
{
closed = 1;
nodes = (
(183,176,o),
(155,204,o),
(155,250,cs),
(155,296,o),
(183,324,o),
(229,324,cs),
(276,324,o),
(303,297,o),
(303,250,cs),
(303,204,o),
(275,176,o),
(229,176,cs)
);
},
{
closed = 1;
nodes = (
(317,91,o),
(388,163,o),
(388,250,cs),
(388,338,o),
(317,409,o),
(229,409,cs),
(142,409,o),
(70,338,o),
(70,250,cs),
(70,163,o),
(142,91,o),
(229,91,cs)
);
}
);
width = 458;
}
);
note = uni17D4;
unicode = 6100;
},
{
glyphname = uni17D5;
lastChange = "2024-12-17 00:52:19 +0000";
layers = (
{
layerId = m01;
shapes = (
{
closed = 1;
nodes = (
(169,166,o),
(135,200,o),
(135,250,c),
(135,300,o),
(169,334,o),
(219,334,c),
(270,334,o),
(303,301,o),
(303,250,c),
(303,200,o),
(269,166,o),
(219,166,c)
);
},
{
closed = 1;
nodes = (
(302,101,o),
(368,168,o),
(368,250,c),
(368,333,o),
(302,399,o),
(219,399,c),
(137,399,o),
(70,333,o),
(70,250,c),
(70,168,o),
(137,101,o),
(219,101,c)
);
}
);
width = 438;
},
{
layerId = m002;
shapes = (
{
closed = 1;
nodes = (
(183,176,o),
(155,204,o),
(155,250,cs),
(155,296,o),
(183,324,o),
(229,324,cs),
(276,324,o),
(303,297,o),
(303,250,cs),
(303,204,o),
(275,176,o),
(229,176,cs)
);
},
{
closed = 1;
nodes = (
(317,91,o),
(388,163,o),
(388,250,cs),
(388,338,o),
(317,409,o),
(229,409,cs),
(142,409,o),
(70,338,o),
(70,250,cs),
(70,163,o),
(142,91,o),
(229,91,cs)
);
}
);
width = 458;
}
);
note = uni17D5;
unicode = 6101;
},
{
glyphname = uni17D6;
lastChange = "2024-12-17 00:52:19 +0000";
layers = (
{
layerId = m01;
shapes = (
{
closed = 1;
nodes = (
(70,222,l),
(312,222,l),
(312,278,l),
(70,278,l)
);
},
{
closed = 1;
nodes = (
(156,115,o),
(166,134,o),
(190,134,cs),
(212,134,o),
(224,119,o),
(224,99,cs),
(224,83,o),
(212,66,o),
(190,66,cs),
(167,66,o),
(156,83,o),
(156,99,cs)
);
},
{
closed = 1;
nodes = (
(275,148,o),
(248,184,o),
(191,184,cs),
(134,184,o),
(107,148,o),
(107,100,cs),
(107,61,o),
(134,17,o),
(191,17,cs),
(248,17,o),
(275,52,o),
(275,100,cs)
);
},
{
closed = 1;
nodes = (
(156,415,o),
(166,434,o),
(190,434,cs),
(212,434,o),
(224,419,o),
(224,399,cs),
(224,383,o),
(212,366,o),
(190,366,cs),
(167,366,o),
(156,383,o),
(156,399,cs)
);
},
{
closed = 1;
nodes = (
(275,448,o),
(248,484,o),
(191,484,cs),
(134,484,o),
(107,448,o),
(107,400,cs),
(107,361,o),
(134,317,o),
(191,317,cs),
(248,317,o),
(275,352,o),
(275,400,cs)
);
}
);
width = 382;
},
{
layerId = m002;
shapes = (
{
closed = 1;
nodes = (
(70,222,l),
(332,222,l),
(332,278,l),
(70,278,l)
);
},
{
closed = 1;
nodes = (
(167,117,o),
(175,133,o),
(200,133,cs),
(224,133,o),
(233,121,o),
(233,99,cs),
(233,81,o),
(223,67,o),
(200,67,cs),
(176,67,o),
(167,81,o),
(167,99,cs)
);
},
{
closed = 1;
nodes = (
(295,153,o),
(264,194,o),
(201,194,cs),
(138,194,o),
(107,153,o),
(107,100,cs),
(107,57,o),
(137,7,o),
(201,7,cs),
(264,7,o),
(295,47,o),
(295,100,cs)
);
},
{
closed = 1;
nodes = (
(163,419,o),
(173,437,o),
(200,437,cs),
(226,437,o),
(237,424,o),
(237,398,cs),
(237,379,o),
(226,363,o),
(200,363,cs),
(173,363,o),
(163,379,o),
(163,398,cs)
);
},
{
closed = 1;
nodes = (
(295,453,o),
(264,494,o),
(201,494,cs),
(138,494,o),
(107,453,o),
(107,400,cs),
(107,357,o),
(137,307,o),
(201,307,cs),
(264,307,o),
(295,347,o),
(295,400,cs)
);
}
);
width = 402;
}
);
note = uni17D6;
unicode = 6102;
},
{
glyphname = uni17D7;
lastChange = "2024-12-17 00:52:19 +0000";
layers = (
{
layerId = m01;
shapes = (
{
closed = 1;
nodes = (
(300,273,o),
(313,378,o),
(222,388,c),
(257,366,o),
(234,331,o),
(213,331,cs),
(175,331,o),
(164,366,o),
(182,388,c),
(227,425,l),
(312,366,l),
(401,425,l),
(401,-46,ls),
(401,-102,o),
(345,-133,o),
(272,-133,cs),
(135,-133,o),
(105,-66,o),
(123,-26,c),
(36,-26,o),
(37,-200,o),
(272,-200,cs),
(394,-200,o),
(468,-146,o),
(468,-46,cs),
(468,448,ls),
(468,471,o),
(448,500,o),
(408,500,c),
(312,432,l),
(221,502,l),
(116,398,l),
(101,338,o),
(144,273,o),
(213,273,cs)
);
}
);
width = 538;
},
{
layerId = m002;
shapes = (
{
closed = 1;
nodes = (
(323,223,o),
(336,337,o),
(233,348,c),
(265,318,o),
(239,301,o),
(223,301,cs),
(193,301,o),
(172,343,o),
(199,371,c),
(238,402,l),
(322,344,l),
(401,396,l),
(401,-46,ls),
(401,-96,o),
(352,-123,o),
(282,-123,cs),
(135,-123,o),
(121,-51,o),
(150,-18,c),
(34,5,o),
(18,-210,o),
(282,-210,cs),
(408,-210,o),
(488,-152,o),
(488,-46,cs),
(488,438,ls),
(488,466,o),
(463,502,o),
(415,500,c),
(322,434,l),
(230,505,l),
(117,393,l),
(88,310,o),
(146,223,o),
(223,223,cs)
);
}
);
width = 558;
}
);
note = uni17D7;
unicode = 6103;
},
{
glyphname = uni17D8;
lastChange = "2024-12-17 00:52:19 +0000";
layers = (
{
layerId = m01;
shapes = (
{
closed = 1;
nodes = (
(748,-62,o),
(992,-17,o),
(1018,133,c),
(1018,220,l),
(948,220,l),
(948,136,l),
(914,51,o),
(789,38,o),
(740,139,c),
(740,500,l),
(670,500,l),
(670,119,l)
);
},
{
closed = 1;
nodes = (
(279,116,o),
(338,176,o),
(338,250,c),
(338,325,o),
(279,384,o),
(204,384,c),
(130,384,o),
(70,325,o),
(70,250,c),
(70,176,o),
(130,116,o),
(204,116,c)
);
},
{
closed = 1;
nodes = (
(164,182,o),
(136,210,o),
(136,250,c),
(136,291,o),
(164,318,o),
(204,318,c),
(245,318,o),
(272,291,o),
(272,250,c),
(272,210,o),
(245,182,o),
(204,182,c)
);
},
{
closed = 1;
nodes = (
(670,430,l),
(670,500,l),
(400,500,l),
(400,430,l)
);
},
{
closed = 1;
nodes = (
(1299,116,o),
(1358,176,o),
(1358,250,c),
(1358,325,o),
(1299,384,o),
(1224,384,c),
(1150,384,o),
(1090,325,o),
(1090,250,c),
(1090,176,o),
(1150,116,o),
(1224,116,c)
);
},
{
closed = 1;
nodes = (
(1184,182,o),
(1156,210,o),
(1156,250,c),
(1156,291,o),
(1184,318,o),
(1224,318,c),
(1265,318,o),
(1292,291,o),
(1292,250,c),
(1292,210,o),
(1265,182,o),
(1224,182,c)
);
}
);
width = 1428;
},
{
layerId = m002;
shapes = (
{
closed = 1;
nodes = (
(721,-66,o),
(981,-18,o),
(1008,142,c),
(1008,240,l),
(918,240,l),
(918,148,l),
(886,71,o),
(776,60,o),
(730,151,c),
(730,500,l),
(640,500,l),
(640,127,l)
);
},
{
closed = 1;
nodes = (
(294,106,o),
(358,171,o),
(358,250,cs),
(358,330,o),
(294,394,o),
(214,394,cs),
(135,394,o),
(70,330,o),
(70,250,cs),
(70,171,o),
(135,106,o),
(214,106,cs)
);
},
{
closed = 1;
nodes = (
(178,192,o),
(156,214,o),
(156,250,cs),
(156,287,o),
(178,308,o),
(214,308,cs),
(251,308,o),
(272,287,o),
(272,250,cs),
(272,214,o),
(251,192,o),
(214,192,cs)
);
},
{
closed = 1;
nodes = (
(640,420,l),
(640,500,l),
(360,500,l),
(360,420,l)
);
},
{
closed = 1;
nodes = (
(1314,106,o),
(1378,171,o),
(1378,250,cs),
(1378,330,o),
(1314,394,o),
(1234,394,cs),
(1155,394,o),
(1090,330,o),
(1090,250,cs),
(1090,171,o),
(1155,106,o),
(1234,106,cs)
);
},
{
closed = 1;
nodes = (
(1198,192,o),
(1176,214,o),
(1176,250,cs),
(1176,287,o),
(1198,308,o),
(1234,308,cs),
(1271,308,o),
(1292,287,o),
(1292,250,cs),
(1292,214,o),
(1271,192,o),
(1234,192,cs)
);
}
);
width = 1448;
}
);
note = uni17D8;
unicode = 6104;
},
{
glyphname = uni17D9;
lastChange = "2024-12-17 00:52:19 +0000";
layers = (
{
layerId = m01;
shapes = (
{
closed = 1;
nodes = (
(366,145,o),
(406,193,o),
(406,254,cs),
(406,311,o),
(361,363,o),
(297,363,cs),
(233,363,o),
(188,311,o),
(188,254,cs),
(188,196,o),
(234,145,o),
(297,145,cs)
);
},
{
closed = 1;
nodes = (
(332,309,o),
(352,284,o),
(352,254,cs),
(352,225,o),
(332,200,o),
(297,200,cs),
(261,200,o),
(242,224,o),
(242,254,cs),
(242,284,o),
(260,309,o),
(297,309,cs)
);
},
{
closed = 1;
nodes = (
(441,27,o),
(524,127,o),
(524,254,cs),
(524,373,o),
(431,481,o),
(297,481,cs),
(163,481,o),
(70,373,o),
(70,254,cs),
(70,132,o),
(165,27,o),
(297,27,cs)
);
},
{
closed = 1;
nodes = (
(399,412,o),
(455,339,o),
(455,254,cs),
(455,171,o),
(399,98,o),
(297,98,cs),
(194,98,o),
(139,167,o),
(139,254,cs),
(139,340,o),
(192,412,o),
(297,412,cs)
);
}
);
width = 594;
},
{
layerId = m002;
shapes = (
{
closed = 1;
nodes = (
(368,158,o),
(403,201,o),
(403,254,cs),
(403,304,o),
(364,350,o),
(307,350,cs),
(250,350,o),
(211,304,o),
(211,254,cs),
(211,203,o),
(251,158,o),
(307,158,cs)
);
},
{
closed = 1;
nodes = (
(332,291,o),
(344,276,o),
(344,254,cs),
(344,233,o),
(332,218,o),
(307,218,cs),
(282,218,o),
(271,233,o),
(271,254,cs),
(271,276,o),
(281,291,o),
(307,291,cs)
);
},
{
closed = 1;
nodes = (
(457,17,o),
(544,122,o),
(544,254,cs),
(544,378,o),
(447,491,o),
(307,491,cs),
(167,491,o),
(70,378,o),
(70,254,cs),
(70,127,o),
(169,17,o),
(307,17,cs)
);
},
{
closed = 1;
nodes = (
(415,418,o),
(471,345,o),
(471,254,cs),
(471,165,o),
(415,92,o),
(307,92,cs),
(198,92,o),
(143,161,o),
(143,254,cs),
(143,346,o),
(196,418,o),
(307,418,cs)
);
}
);
width = 614;
}
);
note = uni17D9;
unicode = 6105;
},
{
glyphname = uni17DA;
lastChange = "2024-12-17 00:52:19 +0000";
layers = (
{
layerId = m01;
shapes = (
{
closed = 1;
nodes = (
(455,0,o),
(548,126,o),
(587,248,c),
(614,235,o),
(631,200,o),
(634,185,c),
(563,139,o),
(595,49,o),
(665,53,cs),
(739,57,o),
(753,146,o),
(694,180,c),
(727,205,o),
(752,230,o),
(775,263,c),
(809,220,o),
(819,207,o),
(827,196,c),
(774,157,o),
(804,89,o),
(856,89,cs),
(905,89,o),
(937,158,o),
(888,196,c),
(898,210,o),
(943,245,o),
(966,253,c),
(979,235,o),
(976,242,o),
(988,223,c),
(927,180,o),
(972,116,o),
(1007,116,cs),
(1053,116,o),
(1085,167,o),
(1052,206,c),
(1067,213,o),
(1151,268,o),
(1293,207,c),
(1311,250,l),
(1295,278,l),
(1160,333,o),
(1061,261,o),
(1028,247,c),
(1023,253,o),
(1003,280,o),
(998,286,c),
(1043,310,o),
(1035,385,o),
(975,388,cs),
(920,390,o),
(905,319,o),
(943,293,c),
(937,269,o),
(891,246,o),
(860,232,c),
(838,242,o),
(817,287,o),
(806,301,c),
(865,335,o),
(843,421,o),
(783,424,cs),
(728,427,o),
(686,351,o),
(746,305,c),
(733,272,o),
(703,237,o),
(666,217,c),
(648,247,o),
(626,270,o),
(602,289,c),
(671,339,o),
(653,439,o),
(574,440,cs),
(499,440,o),
(461,336,o),
(548,286,c),
(515,170,o),
(436,60,o),
(292,60,cs),
(206,60,o),
(134,153,o),
(133,254,cs),
(131,479,o),
(393,479,o),
(384,341,cs),
(381,296,o),
(347,257,o),
(282,272,c),
(295,224,l),
(392,199,o),
(443,276,o),
(446,340,cs),
(456,550,o),
(85,581,o),
(70,257,cs),
(64,130,o),
(157,0,o),
(291,0,cs)
);
},
{
closed = 1;
nodes = (
(630,93,o),
(629,147,o),
(663,158,c),
(701,147,o),
(698,92,o),
(664,93,cs)
);
},
{
closed = 1;
nodes = (
(532,336,o),
(539,394,o),
(573,393,cs),
(607,393,o),
(612,336,o),
(572,328,c)
);
},
{
closed = 1;
nodes = (
(831,127,o),
(827,167,o),
(857,171,c),
(888,167,o),
(881,128,o),
(856,128,cs)
);
},
{
closed = 1;
nodes = (
(748,337,o),
(751,380,o),
(779,379,cs),
(807,379,o),
(809,335,o),
(778,326,c)
);
},
{
closed = 1;
nodes = (
(993,156,o),
(990,189,o),
(1014,192,c),
(1039,189,o),
(1033,157,o),
(1013,157,cs)
);
},
{
closed = 1;
nodes = (
(951,316,o),
(949,349,o),
(975,348,cs),
(1000,347,o),
(998,317,o),
(974,305,c)
);
}
);
width = 1381;
},
{
layerId = m002;
shapes = (
{
closed = 1;
nodes = (
(495,0,o),
(590,112,o),
(632,233,c),
(648,221,o),
(658,202,o),
(663,189,c),
(591,136,o),
(628,39,o),
(706,43,cs),
(785,47,o),
(801,141,o),
(748,184,c),
(773,204,o),
(797,221,o),
(815,246,c),
(836,220,o),
(846,207,o),
(853,198,c),
(803,152,o),
(838,79,o),
(896,79,cs),
(951,79,o),
(987,152,o),
(942,197,c),
(956,210,o),
(984,232,o),
(1003,241,c),
(1008,238,o),
(1014,230,o),
(1015,225,c),
(957,176,o),
(1005,106,o),
(1047,106,cs),
(1097,106,o),
(1133,158,o),
(1107,202,c),
(1137,217,o),
(1216,250,o),
(1338,194,c),
(1372,241,l),
(1342,286,l),
(1209,342,o),
(1109,269,o),
(1071,249,c),
(1068,253,o),
(1055,280,o),
(1053,284,c),
(1094,317,o),
(1082,395,o),
(1015,398,cs),
(953,400,o),
(934,324,o),
(971,290,c),
(961,273,o),
(928,256,o),
(900,243,c),
(889,251,o),
(862,295,o),
(860,298,c),
(916,341,o),
(890,431,o),
(824,434,cs),
(761,437,o),
(714,355,o),
(774,302,c),
(762,275,o),
(738,248,o),
(709,230,c),
(694,254,o),
(677,273,o),
(658,289,c),
(722,346,o),
(699,449,o),
(614,450,cs),
(532,450,o),
(489,338,o),
(576,281,c),
(543,170,o),
(468,80,o),
(332,80,cs),
(227,80,o),
(166,153,o),
(155,231,cs),
(124,446,o),
(421,474,o),
(415,339,cs),
(413,299,o),
(376,263,o),
(308,286,c),
(327,216,l),
(430,186,o),
(491,258,o),
(495,338,cs),
(505,585,o),
(39,555,o),
(72,230,cs),
(84,112,o),
(171,0,o),
(331,0,c)
);
},
{
closed = 1;
nodes = (
(681,104,o),
(679,137,o),
(703,147,c),
(742,140,o),
(736,101,o),
(704,103,cs)
);
},
{
closed = 1;
nodes = (
(576,342,o),
(583,389,o),
(613,388,cs),
(643,388,o),
(648,342,o),
(612,333,c)
);
},
{
closed = 1;
nodes = (
(872,131,o),
(868,162,o),
(897,167,c),
(926,162,o),
(920,132,o),
(895,132,cs)
);
},
{
closed = 1;
nodes = (
(785,342,o),
(789,381,o),
(819,380,cs),
(849,380,o),
(852,339,o),
(818,325,c)
);
},
{
closed = 1;
nodes = (
(1028,156,o),
(1024,186,o),
(1055,192,c),
(1085,186,o),
(1079,157,o),
(1052,157,cs)
);
},
{
closed = 1;
nodes = (
(985,323,o),
(986,351,o),
(1015,350,cs),
(1043,349,o),
(1044,324,o),
(1013,305,c)
);
}
);
width = 1442;
}
);
note = uni17DA;
unicode = 6106;
},
{
glyphname = uni17DB;
lastChange = "2024-12-17 00:52:19 +0000";
layers = (
{
layerId = m01;
shapes = (
{
closed = 1;
nodes = (
(299,168,l),
(278,158,o),
(263,149,o),
(229,169,c),
(135,102,o),
(200,0,o),
(369,2,c),
(369,218,l),
(361,284,o),
(309,364,o),
(190,339,c),
(232,418,l),
(361,357,l),
(369,427,l),
(201,504,l),
(89,273,l),
(233,290,o),
(287,282,o),
(299,216,c)
);
},
{
closed = 1;
nodes = (
(271,102,o),
(288,109,o),
(299,126,c),
(299,74,l),
(273,76,o),
(253,102,o),
(253,115,c)
);
},
{
closed = 1;
nodes = (
(477,209,o),
(413,193,o),
(362,232,cs),
(322,263,o),
(153,290,o),
(70,174,c),
(80,129,l),
(176,235,o),
(302,190,o),
(348,168,cs),
(430,129,o),
(484,149,o),
(543,235,c),
(519,269,l)
);
}
);
width = 613;
},
{
layerId = m002;
shapes = (
{
closed = 1;
nodes = (
(300,174,l),
(281,165,o),
(270,162,o),
(240,181,c),
(129,108,o),
(198,-4,o),
(390,2,c),
(390,219,l),
(382,284,o),
(332,366,o),
(219,352,c),
(248,405,l),
(380,345,l),
(391,423,l),
(207,507,l),
(83,261,l),
(215,317,o),
(289,276,o),
(300,215,c)
);
},
{
closed = 1;
nodes = (
(268,105,o),
(286,110,o),
(300,119,c),
(300,70,l),
(280,79,o),
(263,90,o),
(251,105,c)
);
},
{
closed = 1;
nodes = (
(490,210,o),
(429,191,o),
(379,230,cs),
(335,264,o),
(156,292,o),
(70,166,c),
(86,117,l),
(179,237,o),
(307,192,o),
(355,169,cs),
(443,127,o),
(503,151,o),
(566,245,c),
(530,277,l)
);
}
);
width = 636;
}
);
note = uni17DB;
unicode = 6107;
},
{
glyphname = uni17DC;
lastChange = "2024-12-17 00:52:19 +0000";
layers = (
{
layerId = m01;
shapes = (
{
closed = 1;
nodes = (
(358,-3,o),
(426,55,o),
(426,146,cs),
(426,217,o),
(382,252,o),
(296,270,cs),
(219,286,ls),
(163,298,o),
(138,329,o),
(138,366,cs),
(138,411,o),
(176,440,o),
(237,440,cs),
(298,440,o),
(363,410,o),
(350,355,c),
(401,355,l),
(415,444,o),
(339,503,o),
(240,503,cs),
(138,503,o),
(70,445,o),
(70,361,cs),
(70,295,o),
(114,261,o),
(199,243,cs),
(276,227,ls),
(332,215,o),
(358,181,o),
(358,140,cs),
(358,89,o),
(320,60,o),
(250,60,cs),
(175,60,o),
(116,101,o),
(123,153,c),
(80,153,l),
(52,80,o),
(134,-3,o),
(248,-3,cs)
);
}
);
userData = {
assembly = "NPUSHB[ ]	/* 86 values pushed */
0 8 5 7 5 8 7 128 0 9 6 4 6 9 4 128 0 4 1 6 4 1 126 0 3 2 0 2 3 0 128 0 7 0 6 9 7 6 105 0 1 0 2 3 1 2 105 0 5 5 0 97 10 1 0 0 19 0 78 1 0 54 52 47 45 42 40 38 36 31 29 25 23 18 16 13 11 8 6 0 58 1 58 11 7 22 
CALL[ ]	/* CallFunction */";
};
width = 496;
},
{
layerId = m002;
shapes = (
{
closed = 1;
nodes = (
(373,-3,o),
(446,59,o),
(446,156,cs),
(446,223,o),
(397,261,o),
(308,280,cs),
(231,296,ls),
(179,307,o),
(158,333,o),
(158,366,cs),
(158,396,o),
(189,420,o),
(247,420,cs),
(311,420,o),
(371,390,o),
(346,335,c),
(419,335,l),
(441,436,o),
(357,503,o),
(250,503,cs),
(143,503,o),
(70,441,o),
(70,361,cs),
(70,289,o),
(119,251,o),
(207,233,cs),
(284,217,ls),
(336,206,o),
(358,178,o),
(358,150,cs),
(358,104,o),
(327,80,o),
(260,80,cs),
(182,80,o),
(129,122,o),
(146,173,c),
(83,173,l),
(45,91,o),
(135,-3,o),
(258,-3,cs)
);
}
);
userData = {
assembly = "NPUSHB[ ]	/* 86 values pushed */
0 8 5 7 5 8 7 128 0 9 6 4 6 9 4 128 0 4 1 6 4 1 126 0 3 2 0 2 3 0 128 0 7 0 6 9 7 6 105 0 1 0 2 3 1 2 105 0 5 5 0 97 10 1 0 0 19 0 78 1 0 54 52 47 45 42 40 38 36 31 29 25 23 18 16 13 11 8 6 0 58 1 58 11 7 22 
CALL[ ]	/* CallFunction */";
};
width = 516;
}
);
note = uni17DC;
unicode = 6108;
},
{
glyphname = uni17DD;
lastChange = "2024-12-17 00:52:19 +0000";
layers = (
{
layerId = m01;
shapes = (
{
closed = 1;
nodes = (
(140,562,o),
(167,582,o),
(223,582,cs),
(280,582,o),
(307,562,o),
(307,522,c),
(377,522,l),
(377,589,o),
(323,633,o),
(224,633,cs),
(125,633,o),
(70,589,o),
(70,522,c),
(140,522,l)
);
}
);
width = 447;
},
{
layerId = m002;
shapes = (
{
closed = 1;
nodes = (
(157,554,o),
(176,572,o),
(233,572,cs),
(292,572,o),
(310,554,o),
(307,512,c),
(397,512,l),
(402,592,o),
(342,643,o),
(234,643,cs),
(127,643,o),
(65,592,o),
(70,512,c),
(160,512,l)
);
}
);
width = 467;
}
);
note = uni17DD;
unicode = 6109;
},
{
glyphname = uni17E0;
lastChange = "2024-12-17 00:52:19 +0000";
layers = (
{
layerId = m01;
shapes = (
{
closed = 1;
nodes = (
(249,70,o),
(140,193,o),
(140,351,cs),
(140,509,o),
(249,628,o),
(406,628,cs),
(563,628,o),
(672,509,o),
(672,351,cs),
(672,193,o),
(563,70,o),
(406,70,cs)
);
},
{
closed = 1;
nodes = (
(599,0,o),
(742,161,o),
(742,351,cs),
(742,541,o),
(599,698,o),
(406,698,cs),
(213,698,o),
(70,541,o),
(70,351,cs),
(70,161,o),
(213,0,o),
(406,0,cs)
);
}
);
width = 812;
},
{
layerId = m002;
shapes = (
{
closed = 1;
nodes = (
(263,90,o),
(160,197,o),
(160,351,cs),
(160,505,o),
(263,608,o),
(416,608,cs),
(569,608,o),
(672,505,o),
(672,351,cs),
(672,197,o),
(569,90,o),
(416,90,cs)
);
},
{
closed = 1;
nodes = (
(615,0,o),
(762,156,o),
(762,351,cs),
(762,546,o),
(615,698,o),
(416,698,cs),
(217,698,o),
(70,546,o),
(70,351,cs),
(70,156,o),
(217,0,o),
(416,0,cs)
);
}
);
width = 832;
}
);
note = uni17E0;
unicode = 6112;
},
{
glyphname = uni17E1;
lastChange = "2024-12-17 00:52:19 +0000";
layers = (
{
layerId = m01;
shapes = (
{
closed = 1;
nodes = (
(180,1,l),
(250,1,l),
(250,701,l),
(180,701,l)
);
}
);
width = 430;
},
{
layerId = m002;
shapes = (
{
closed = 1;
nodes = (
(180,1,l),
(270,1,l),
(270,701,l),
(180,701,l)
);
}
);
width = 450;
}
);
note = uni17E1;
unicode = 6113;
},
{
glyphname = uni17E2;
lastChange = "2024-12-17 00:52:19 +0000";
layers = (
{
layerId = m01;
shapes = (
{
closed = 1;
nodes = (
(340,1,l),
(410,1,l),
(410,701,l),
(340,701,l)
);
},
{
closed = 1;
nodes = (
(180,1,l),
(250,1,l),
(250,701,l),
(180,701,l)
);
}
);
width = 590;
},
{
layerId = m002;
shapes = (
{
closed = 1;
nodes = (
(360,1,l),
(450,1,l),
(450,701,l),
(360,701,l)
);
},
{
closed = 1;
nodes = (
(180,1,l),
(270,1,l),
(270,701,l),
(180,701,l)
);
}
);
width = 630;
}
);
note = uni17E2;
unicode = 6114;
},
{
glyphname = uni17E3;
lastChange = "2024-12-17 00:52:19 +0000";
layers = (
{
layerId = m01;
shapes = (
{
closed = 1;
nodes = (
(180,1,l),
(250,1,l),
(250,701,l),
(180,701,l)
);
},
{
closed = 1;
nodes = (
(500,1,l),
(570,1,l),
(570,701,l),
(500,701,l)
);
},
{
closed = 1;
nodes = (
(340,1,l),
(410,1,l),
(410,701,l),
(340,701,l)
);
}
);
width = 750;
},
{
layerId = m002;
shapes = (
{
closed = 1;
nodes = (
(180,1,l),
(270,1,l),
(270,701,l),
(180,701,l)
);
},
{
closed = 1;
nodes = (
(360,1,l),
(450,1,l),
(450,701,l),
(360,701,l)
);
},
{
closed = 1;
nodes = (
(540,1,l),
(630,1,l),
(630,701,l),
(540,701,l)
);
}
);
width = 810;
}
);
note = uni17E3;
unicode = 6115;
},
{
glyphname = uni17E4;
lastChange = "2024-12-17 00:52:19 +0000";
layers = (
{
layerId = m01;
shapes = (
{
closed = 1;
nodes = (
(499,140,l),
(395,54,o),
(165,32,o),
(144,173,cs),
(133,240,o),
(235,312,o),
(347,338,c),
(347,358,l),
(101,401,o),
(77,628,o),
(303,628,cs),
(387,628,o),
(458,597,o),
(458,547,cs),
(458,493,o),
(434,483,o),
(408,480,cs),
(365,475,o),
(342,535,o),
(417,568,c),
(347,580,l),
(256,521,o),
(321,411,o),
(409,411,cs),
(467,412,o),
(528,442,o),
(528,547,cs),
(528,640,o),
(415,699,o),
(303,699,cs),
(36,696,o),
(11,421,o),
(191,346,c),
(120,314,o),
(63,245,o),
(71,170,cs),
(94,-23,o),
(319,-29,o),
(499,50,c)
);
}
);
width = 598;
},
{
layerId = m002;
shapes = (
{
closed = 1;
nodes = (
(519,163,l),
(427,67,o),
(185,35,o),
(164,175,cs),
(154,237,o),
(254,306,o),
(367,330,c),
(367,366,l),
(121,405,o),
(96,608,o),
(313,608,cs),
(424,608,o),
(462,566,o),
(460,532,cs),
(459,511,o),
(442,493,o),
(417,490,cs),
(382,486,o),
(345,530,o),
(411,559,c),
(355,581,l),
(250,516,o),
(320,401,o),
(419,401,cs),
(502,402,o),
(549,464,o),
(548,530,cs),
(546,611,o),
(475,699,o),
(313,699,cs),
(44,696,o),
(10,435,o),
(178,346,c),
(113,309,o),
(63,242,o),
(71,169,cs),
(95,-35,o),
(334,-40,o),
(519,44,c)
);
}
);
width = 618;
}
);
note = uni17E4;
unicode = 6116;
},
{
glyphname = uni17E5;
lastChange = "2024-12-17 00:52:19 +0000";
layers = (
{
layerId = m01;
shapes = (
{
closed = 1;
nodes = (
(70,700,l),
(70,0,l),
(140,0,l),
(140,383,l),
(207,447,o),
(385,439,o),
(313,195,c),
(381,181,l),
(472,490,o),
(226,516,o),
(140,458,c),
(140,700,l)
);
}
);
width = 471;
},
{
layerId = m002;
shapes = (
{
closed = 1;
nodes = (
(70,710,l),
(70,-10,l),
(160,-10,l),
(160,379,l),
(227,437,o),
(385,426,o),
(310,187,c),
(398,169,l),
(494,480,o),
(264,525,o),
(160,475,c),
(160,710,l)
);
}
);
width = 491;
}
);
note = uni17E5;
unicode = 6117;
},
{
glyphname = uni17E6;
lastChange = "2024-12-17 00:52:19 +0000";
layers = (
{
layerId = m01;
shapes = (
{
closed = 1;
nodes = (
(294,315,o),
(254,326,o),
(220,346,c),
(255,369,o),
(300,383,o),
(351,383,cs),
(399,383,o),
(451,376,o),
(488,357,c),
(449,333,o),
(394,315,o),
(343,315,cs)
);
},
{
closed = 1;
nodes = (
(527,417,o),
(425,454,o),
(351,454,cs),
(281,454,o),
(216,431,o),
(168,393,c),
(150,418,o),
(141,445,o),
(141,476,cs),
(141,557,o),
(225,627,o),
(343,627,cs),
(425,627,o),
(489,592,o),
(523,540,c),
(602,540,l),
(564,631,o),
(461,697,o),
(343,697,cs),
(194,697,o),
(70,595,o),
(70,476,cs),
(70,426,o),
(89,381,o),
(119,344,c),
(94,309,o),
(78,266,o),
(78,222,cs),
(78,103,o),
(202,0,o),
(351,0,cs),
(473,0,o),
(578,70,o),
(613,165,c),
(535,166,l),
(504,109,o),
(437,71,o),
(351,71,cs),
(233,71,o),
(149,140,o),
(149,222,cs),
(149,249,o),
(156,274,o),
(171,297,c),
(217,264,o),
(278,245,o),
(343,245,cs),
(441,245,o),
(534,286,o),
(586,373,c)
);
}
);
width = 683;
},
{
layerId = m002;
shapes = (
{
closed = 1;
nodes = (
(313,325,o),
(279,332,o),
(250,346,c),
(281,363,o),
(318,373,o),
(361,373,cs),
(401,373,o),
(442,368,o),
(476,356,c),
(440,338,o),
(395,325,o),
(353,325,cs)
);
},
{
closed = 1;
nodes = (
(550,423,o),
(440,464,o),
(361,464,cs),
(293,464,o),
(229,443,o),
(180,407,c),
(167,428,o),
(161,450,o),
(161,476,cs),
(161,552,o),
(239,617,o),
(353,617,cs),
(435,617,o),
(496,582,o),
(527,530,c),
(626,530,l),
(592,632,o),
(481,707,o),
(353,707,cs),
(200,707,o),
(70,602,o),
(70,476,cs),
(70,426,o),
(88,381,o),
(117,344,c),
(93,309,o),
(78,265,o),
(78,222,cs),
(78,96,o),
(208,-10,o),
(361,-10,cs),
(492,-10,o),
(606,69,o),
(637,175,c),
(539,176,l),
(511,119,o),
(447,81,o),
(361,81,cs),
(247,81,o),
(169,145,o),
(169,222,cs),
(169,244,o),
(174,264,o),
(184,283,c),
(230,252,o),
(290,235,o),
(353,235,cs),
(457,235,o),
(556,280,o),
(609,376,c)
);
}
);
width = 707;
}
);
note = uni17E6;
unicode = 6118;
},
{
glyphname = uni17E7;
lastChange = "2024-12-17 00:52:19 +0000";
layers = (
{
layerId = m01;
shapes = (
{
closed = 1;
nodes = (
(183,4,l),
(202,91,o),
(254,160,o),
(307,233,cs),
(355,298,o),
(404,355,o),
(431,437,cs),
(437,455,o),
(456,507,o),
(442,572,c),
(431,653,o),
(361,701,o),
(257,701,cs),
(153,701,o),
(85,650,o),
(72,574,cs),
(59,496,o),
(106,430,o),
(161,430,cs),
(266,430,o),
(270,573,o),
(190,559,c),
(201,512,o),
(188,500,o),
(161,500,cs),
(148,500,o),
(134,519,o),
(142,562,cs),
(149,609,o),
(182,631,o),
(257,631,cs),
(332,631,o),
(356,611,o),
(372,568,c),
(381,509,o),
(371,475,o),
(367,461,c),
(335,376,o),
(292,330,o),
(251,276,cs),
(202,212,o),
(155,151,o),
(140,50,c),
(164,2,l)
);
}
);
width = 517;
},
{
layerId = m002;
shapes = (
{
closed = 1;
nodes = (
(201,5,l),
(219,93,o),
(271,152,o),
(325,227,cs),
(373,292,o),
(423,340,o),
(450,424,cs),
(456,442,o),
(474,496,o),
(462,564,cs),
(448,650,o),
(375,701,o),
(267,701,cs),
(158,701,o),
(86,647,o),
(72,566,cs),
(58,482,o),
(109,410,o),
(171,410,cs),
(294,410,o),
(293,587,o),
(188,556,c),
(234,482,o),
(122,475,o),
(152,560,cs),
(169,607,o),
(223,625,o),
(274,619,cs),
(318,614,o),
(363,592,o),
(372,555,cs),
(385,500,o),
(371,468,o),
(368,454,c),
(341,385,o),
(308,353,o),
(274,309,cs),
(267,300,o),
(260,291,o),
(253,282,cs),
(204,217,o),
(155,164,o),
(140,58,c),
(168,1,l)
);
}
);
width = 536;
}
);
note = uni17E7;
unicode = 6119;
},
{
glyphname = uni17E8;
lastChange = "2024-12-17 00:52:19 +0000";
layers = (
{
layerId = m01;
shapes = (
{
closed = 1;
nodes = (
(260,46,o),
(318,148,o),
(365,254,cs),
(403,342,o),
(434,432,o),
(436,488,cs),
(437,521,o),
(423,554,o),
(390,573,cs),
(349,595,o),
(302,593,o),
(175,563,c),
(156,556,o),
(146,573,o),
(145,589,cs),
(140,700,l),
(70,700,l),
(75,589,ls),
(78,530,o),
(139,475,o),
(199,497,c),
(312,523,o),
(367,505,o),
(366,490,cs),
(366,446,o),
(337,361,o),
(299,275,cs),
(250,163,o),
(186,49,o),
(153,17,c),
(162,0,l),
(226,13,l)
);
}
);
width = 506;
},
{
layerId = m002;
shapes = (
{
closed = 1;
nodes = (
(275,35,o),
(336,141,o),
(384,250,cs),
(422,338,o),
(454,430,o),
(456,488,cs),
(457,523,o),
(441,561,o),
(405,582,cs),
(361,605,o),
(311,603,o),
(182,573,c),
(171,568,o),
(166,576,o),
(165,590,cs),
(160,710,l),
(70,710,l),
(75,589,ls),
(78,524,o),
(145,463,o),
(212,487,c),
(322,513,o),
(367,498,o),
(366,490,c),
(366,448,o),
(338,365,o),
(300,279,cs),
(248,161,o),
(180,41,o),
(150,19,c),
(167,-11,l),
(241,4,l)
);
}
);
width = 526;
}
);
note = uni17E8;
unicode = 6120;
},
{
glyphname = uni17E9;
lastChange = "2024-12-17 00:52:19 +0000";
layers = (
{
layerId = m01;
shapes = (
{
closed = 1;
nodes = (
(140,442,l),
(217,442,o),
(277,495,o),
(277,570,cs),
(277,644,o),
(218,701,o),
(141,701,cs),
(70,701,l),
(70,631,l),
(141,631,ls),
(185,631,o),
(207,610,o),
(207,570,cs),
(207,530,o),
(185,512,o),
(115,512,cs),
(90,512,o),
(70,492,o),
(70,467,cs),
(70,0,l),
(140,0,l)
);
}
);
width = 347;
},
{
layerId = m002;
shapes = (
{
closed = 1;
nodes = (
(160,432,l),
(237,437,o),
(297,493,o),
(297,570,cs),
(297,649,o),
(233,711,o),
(151,711,cs),
(70,711,l),
(70,621,l),
(151,621,ls),
(191,621,o),
(207,606,o),
(207,570,cs),
(207,535,o),
(191,522,o),
(125,522,cs),
(95,522,o),
(70,497,o),
(70,467,cs),
(70,-10,l),
(160,-10,l)
);
}
);
width = 367;
}
);
note = uni17E9;
unicode = 6121;
},
{
glyphname = uni19E0;
lastChange = "2024-12-17 00:52:19 +0000";
layers = (
{
layerId = m01;
shapes = (
{
closed = 1;
nodes = (
(456,195,o),
(560,312,o),
(560,450,cs),
(560,589,o),
(456,703,o),
(315,703,cs),
(174,703,o),
(70,589,o),
(70,450,cs),
(70,312,o),
(174,195,o),
(315,195,cs)
);
},
{
closed = 1;
nodes = (
(212,266,o),
(140,346,o),
(140,450,cs),
(140,554,o),
(212,632,o),
(315,632,cs),
(418,632,o),
(490,554,o),
(490,450,cs),
(490,346,o),
(418,266,o),
(315,266,cs)
);
},
{
closed = 1;
nodes = (
(364,-310,o),
(473,-88,o),
(476,6,cs),
(477,32,o),
(465,61,o),
(438,77,cs),
(405,94,o),
(378,87,o),
(306,70,c),
(300,67,o),
(265,59,o),
(264,94,cs),
(261,170,l),
(190,170,l),
(193,79,ls),
(195,30,o),
(246,-16,o),
(297,2,c),
(378,21,o),
(389,22,o),
(403,13,cs),
(438,-4,o),
(280,-316,o),
(247,-336,c),
(262,-361,l),
(318,-350,l)
);
}
);
width = 630;
},
{
layerId = m002;
shapes = (
{
closed = 1;
nodes = (
(472,182,o),
(580,299,o),
(580,442,cs),
(580,586,o),
(472,700,o),
(325,700,cs),
(178,700,o),
(70,586,o),
(70,442,cs),
(70,299,o),
(178,182,o),
(325,182,cs)
);
},
{
closed = 1;
nodes = (
(226,273,o),
(160,342,o),
(160,442,cs),
(160,542,o),
(226,609,o),
(325,609,cs),
(424,609,o),
(490,542,o),
(490,442,cs),
(490,342,o),
(424,273,o),
(325,273,cs)
);
},
{
closed = 1;
nodes = (
(379,-323,o),
(493,-93,o),
(496,6,cs),
(497,34,o),
(483,68,o),
(453,86,cs),
(416,105,o),
(385,97,o),
(312,79,c),
(310,77,o),
(285,70,o),
(284,94,cs),
(281,180,l),
(190,180,l),
(193,79,ls),
(195,24,o),
(252,-28,o),
(310,-8,c),
(391,11,o),
(397,12,o),
(408,4,c),
(436,-6,o),
(283,-309,o),
(252,-327,c),
(267,-372,l),
(332,-359,l)
);
}
);
width = 650;
}
);
unicode = 6624;
},
{
glyphname = uni19E1;
lastChange = "2024-12-17 00:52:19 +0000";
layers = (
{
layerId = m01;
shapes = (
{
closed = 1;
nodes = (
(180,192,l),
(250,192,l),
(250,701,l),
(180,701,l)
);
},
{
closed = 1;
nodes = (
(169,-275,o),
(135,-241,o),
(135,-191,c),
(135,-141,o),
(169,-107,o),
(219,-107,c),
(270,-107,o),
(303,-140,o),
(303,-191,c),
(303,-241,o),
(269,-275,o),
(219,-275,c)
);
},
{
closed = 1;
nodes = (
(302,-340,o),
(368,-273,o),
(368,-191,c),
(368,-108,o),
(302,-42,o),
(219,-42,c),
(137,-42,o),
(70,-108,o),
(70,-191,c),
(70,-273,o),
(137,-340,o),
(219,-340,c)
);
}
);
width = 438;
},
{
layerId = m002;
shapes = (
{
closed = 1;
nodes = (
(190,182,l),
(280,182,l),
(280,701,l),
(190,701,l)
);
},
{
closed = 1;
nodes = (
(183,-255,o),
(155,-227,o),
(155,-181,cs),
(155,-135,o),
(183,-107,o),
(229,-107,cs),
(276,-107,o),
(303,-134,o),
(303,-181,cs),
(303,-227,o),
(275,-255,o),
(229,-255,cs)
);
},
{
closed = 1;
nodes = (
(317,-340,o),
(388,-268,o),
(388,-181,cs),
(388,-93,o),
(317,-22,o),
(229,-22,cs),
(142,-22,o),
(70,-93,o),
(70,-181,cs),
(70,-268,o),
(142,-340,o),
(229,-340,cs)
);
}
);
width = 458;
}
);
unicode = 6625;
},
{
glyphname = uni19E2;
lastChange = "2024-12-17 00:52:19 +0000";
layers = (
{
layerId = m01;
shapes = (
{
closed = 1;
nodes = (
(302,-340,o),
(368,-273,o),
(368,-191,c),
(368,-108,o),
(302,-42,o),
(219,-42,c),
(137,-42,o),
(70,-108,o),
(70,-191,c),
(70,-273,o),
(137,-340,o),
(219,-340,c)
);
},
{
closed = 1;
nodes = (
(169,-275,o),
(135,-241,o),
(135,-191,c),
(135,-141,o),
(169,-107,o),
(219,-107,c),
(270,-107,o),
(303,-140,o),
(303,-191,c),
(303,-241,o),
(269,-275,o),
(219,-275,c)
);
},
{
closed = 1;
nodes = (
(180,192,l),
(180,701,l),
(110,701,l),
(110,192,l)
);
},
{
closed = 1;
nodes = (
(340,192,l),
(340,701,l),
(270,701,l),
(270,192,l)
);
}
);
width = 438;
},
{
layerId = m002;
shapes = (
{
closed = 1;
nodes = (
(317,-340,o),
(388,-268,o),
(388,-181,cs),
(388,-93,o),
(317,-22,o),
(229,-22,cs),
(142,-22,o),
(70,-93,o),
(70,-181,cs),
(70,-268,o),
(142,-340,o),
(229,-340,cs)
);
},
{
closed = 1;
nodes = (
(183,-255,o),
(155,-227,o),
(155,-181,cs),
(155,-135,o),
(183,-107,o),
(229,-107,cs),
(276,-107,o),
(303,-134,o),
(303,-181,cs),
(303,-227,o),
(275,-255,o),
(229,-255,cs)
);
},
{
closed = 1;
nodes = (
(190,182,l),
(190,701,l),
(100,701,l),
(100,182,l)
);
},
{
closed = 1;
nodes = (
(370,182,l),
(370,701,l),
(280,701,l),
(280,182,l)
);
}
);
width = 458;
}
);
unicode = 6626;
},
{
glyphname = uni19E3;
lastChange = "2024-12-17 00:52:19 +0000";
layers = (
{
layerId = m01;
shapes = (
{
closed = 1;
nodes = (
(350,-340,o),
(416,-273,o),
(416,-191,c),
(416,-108,o),
(350,-42,o),
(267,-42,c),
(185,-42,o),
(118,-108,o),
(118,-191,c),
(118,-273,o),
(185,-340,o),
(267,-340,c)
);
},
{
closed = 1;
nodes = (
(217,-275,o),
(183,-241,o),
(183,-191,c),
(183,-141,o),
(217,-107,o),
(267,-107,c),
(318,-107,o),
(351,-140,o),
(351,-191,c),
(351,-241,o),
(317,-275,o),
(267,-275,c)
);
},
{
closed = 1;
nodes = (
(70,192,l),
(140,192,l),
(140,701,l),
(70,701,l)
);
},
{
closed = 1;
nodes = (
(390,192,l),
(460,192,l),
(460,701,l),
(390,701,l)
);
},
{
closed = 1;
nodes = (
(230,192,l),
(300,192,l),
(300,701,l),
(230,701,l)
);
}
);
width = 530;
},
{
layerId = m002;
shapes = (
{
closed = 1;
nodes = (
(381,-340,o),
(452,-268,o),
(452,-181,cs),
(452,-93,o),
(381,-22,o),
(293,-22,cs),
(206,-22,o),
(134,-93,o),
(134,-181,cs),
(134,-268,o),
(206,-340,o),
(293,-340,cs)
);
},
{
closed = 1;
nodes = (
(247,-255,o),
(219,-227,o),
(219,-181,cs),
(219,-135,o),
(247,-107,o),
(293,-107,cs),
(340,-107,o),
(367,-134,o),
(367,-181,cs),
(367,-227,o),
(339,-255,o),
(293,-255,cs)
);
},
{
closed = 1;
nodes = (
(70,182,l),
(160,182,l),
(160,701,l),
(70,701,l)
);
},
{
closed = 1;
nodes = (
(250,182,l),
(340,182,l),
(340,701,l),
(250,701,l)
);
},
{
closed = 1;
nodes = (
(430,182,l),
(520,182,l),
(520,701,l),
(430,701,l)
);
}
);
width = 590;
}
);
unicode = 6627;
},
{
glyphname = uni19E4;
lastChange = "2024-12-17 00:52:19 +0000";
layers = (
{
layerId = m01;
shapes = (
{
closed = 1;
nodes = (
(318,-340,o),
(384,-273,o),
(384,-191,c),
(384,-108,o),
(318,-42,o),
(235,-42,c),
(153,-42,o),
(86,-108,o),
(86,-191,c),
(86,-273,o),
(153,-340,o),
(235,-340,c)
);
},
{
closed = 1;
nodes = (
(185,-275,o),
(151,-241,o),
(151,-191,c),
(151,-141,o),
(185,-107,o),
(235,-107,c),
(286,-107,o),
(319,-140,o),
(319,-191,c),
(319,-241,o),
(285,-275,o),
(235,-275,c)
);
},
{
closed = 1;
nodes = (
(370,297,l),
(302,241,o),
(150,236,o),
(137,329,cs),
(130,373,o),
(196,400,o),
(270,417,c),
(270,460,l),
(109,488,o),
(93,628,o),
(241,628,cs),
(376,628,o),
(364,545,o),
(319,540,cs),
(290,537,o),
(253,574,o),
(302,596,c),
(272,613,l),
(206,570,o),
(233,480,o),
(317,480,cs),
(444,480,o),
(447,700,o),
(240,700,cs),
(45,697,o),
(27,497,o),
(158,442,c),
(86,419,o),
(65,369,o),
(71,314,cs),
(88,173,o),
(252,169,o),
(383,226,c)
);
}
);
width = 475;
},
{
layerId = m002;
shapes = (
{
closed = 1;
nodes = (
(341,-340,o),
(412,-268,o),
(412,-181,cs),
(412,-93,o),
(341,-22,o),
(253,-22,cs),
(166,-22,o),
(94,-93,o),
(94,-181,cs),
(94,-268,o),
(166,-340,o),
(253,-340,cs)
);
},
{
closed = 1;
nodes = (
(207,-255,o),
(179,-227,o),
(179,-181,cs),
(179,-135,o),
(207,-107,o),
(253,-107,cs),
(300,-107,o),
(327,-134,o),
(327,-181,cs),
(327,-227,o),
(299,-255,o),
(253,-255,cs)
);
},
{
closed = 1;
nodes = (
(386,317,l),
(329,252,o),
(170,240,o),
(157,330,cs),
(151,368,o),
(213,392,o),
(290,409,c),
(290,459,l),
(129,482,o),
(112,618,o),
(251,618,cs),
(374,618,o),
(365,554,o),
(328,550,cs),
(300,547,o),
(273,569,o),
(317,594,c),
(282,605,l),
(201,558,o),
(231,470,o),
(327,470,cs),
(467,470,o),
(471,710,o),
(250,710,cs),
(54,707,o),
(27,514,o),
(143,443,c),
(83,416,o),
(65,366,o),
(71,313,cs),
(89,161,o),
(267,158,o),
(404,220,c)
);
}
);
width = 495;
}
);
unicode = 6628;
},
{
glyphname = uni19E5;
lastChange = "2024-12-17 00:52:19 +0000";
layers = (
{
layerId = m01;
shapes = (
{
closed = 1;
nodes = (
(302,-340,o),
(368,-273,o),
(368,-191,cs),
(368,-108,o),
(302,-42,o),
(219,-42,cs),
(137,-42,o),
(70,-108,o),
(70,-191,cs),
(70,-273,o),
(137,-340,o),
(219,-340,cs)
);
},
{
closed = 1;
nodes = (
(169,-275,o),
(135,-241,o),
(135,-191,cs),
(135,-141,o),
(169,-107,o),
(219,-107,cs),
(270,-107,o),
(303,-140,o),
(303,-191,cs),
(303,-241,o),
(269,-275,o),
(219,-275,cs)
);
},
{
closed = 1;
nodes = (
(121,701,l),
(121,181,l),
(182,181,l),
(182,463,l),
(231,507,o),
(350,499,o),
(297,324,c),
(356,312,l),
(425,538,o),
(254,567,o),
(182,529,c),
(182,701,l)
);
}
);
width = 442;
},
{
layerId = m002;
shapes = (
{
closed = 1;
nodes = (
(317,-340,o),
(388,-268,o),
(388,-181,cs),
(388,-93,o),
(317,-22,o),
(229,-22,cs),
(142,-22,o),
(70,-93,o),
(70,-181,cs),
(70,-268,o),
(142,-340,o),
(229,-340,cs)
);
},
{
closed = 1;
nodes = (
(183,-255,o),
(155,-227,o),
(155,-181,cs),
(155,-135,o),
(183,-107,o),
(229,-107,cs),
(276,-107,o),
(303,-134,o),
(303,-181,cs),
(303,-227,o),
(275,-255,o),
(229,-255,cs)
);
},
{
closed = 1;
nodes = (
(106,701,l),
(106,182,l),
(187,182,l),
(187,448,l),
(235,487,o),
(335,476,o),
(279,306,c),
(358,290,l),
(432,520,o),
(272,565,o),
(187,534,c),
(187,701,l)
);
}
);
width = 458;
}
);
unicode = 6629;
},
